<svg width="52" height="52" viewBox="0 0 52 52" fill="none" xmlns="http://www.w3.org/2000/svg">
<path d="M42.3046 26.9987L31.9838 25.5047L27.3678 16.1518C27.2422 15.8965 27.0475 15.6814 26.8059 15.5309C26.5643 15.3805 26.2854 15.3008 26.0007 15.3008C25.7161 15.3008 25.4372 15.3805 25.1956 15.5309C24.954 15.6814 24.7593 15.8965 24.6337 16.1518L20.0177 25.5047L9.69692 26.9987C9.41525 27.0393 9.15057 27.1579 8.93288 27.3412C8.71518 27.5245 8.55318 27.7651 8.46522 28.0357C8.37726 28.3064 8.36687 28.5962 8.43521 28.8725C8.50356 29.1487 8.64792 29.4003 8.85192 29.5987L16.3208 36.8797L14.5577 47.1589C14.5101 47.4389 14.5417 47.7268 14.6491 47.9898C14.7564 48.2528 14.9352 48.4806 15.1651 48.6474C15.3951 48.8142 15.6671 48.9134 15.9505 48.9337C16.2339 48.9541 16.5173 48.8948 16.7687 48.7625L26.0007 43.9119L35.2318 48.7625C35.4835 48.8953 35.7674 48.955 36.0512 48.9347C36.3351 48.9144 36.6076 48.815 36.8379 48.6477C37.0682 48.4804 37.247 48.252 37.3541 47.9884C37.4611 47.7247 37.4922 47.4363 37.4438 47.1558L35.6807 36.8797L43.1496 29.5997C43.3536 29.4013 43.4979 29.1497 43.5663 28.8735C43.6346 28.5973 43.6242 28.3074 43.5363 28.0367C43.4483 27.7661 43.2863 27.5255 43.0686 27.3422C42.8509 27.1589 42.5862 27.0403 42.3046 26.9997V26.9987Z" fill="#2B2B2B"/>
<path d="M51.9253 10.5397C51.8374 10.2693 51.6757 10.0289 51.4583 9.8456C51.241 9.66235 50.9767 9.54357 50.6953 9.5027L45.3755 8.72981L42.9969 3.90966C42.8713 3.65426 42.6766 3.43917 42.435 3.28874C42.1934 3.13832 41.9145 3.05859 41.6299 3.05859C41.3452 3.05859 41.0663 3.13832 40.8247 3.28874C40.5831 3.43917 40.3884 3.65426 40.2628 3.90966L37.8832 8.72981L32.5644 9.5027C32.2836 9.54384 32.0198 9.6626 31.8028 9.84562C31.5859 10.0286 31.4244 10.2686 31.3365 10.5385C31.2487 10.8084 31.238 11.0975 31.3056 11.3731C31.3733 11.6488 31.5166 11.9001 31.7194 12.0986L35.5686 15.8565L34.6596 21.154C34.6113 21.434 34.6422 21.722 34.749 21.9854C34.8557 22.2488 35.034 22.477 35.2637 22.6444C35.4934 22.8118 35.7654 22.9115 36.0488 22.9324C36.3322 22.9533 36.6158 22.8945 36.8676 22.7627L41.6258 20.2612L46.3881 22.7627C46.6398 22.8952 46.9235 22.9546 47.2072 22.9342C47.4909 22.9137 47.7632 22.8143 47.9933 22.6471C48.2234 22.4799 48.4021 22.2516 48.5092 21.9881C48.6162 21.7245 48.6474 21.4363 48.5991 21.156L47.6901 15.8565L51.5403 12.0986C51.7433 11.9004 51.8869 11.6494 51.9549 11.374C52.0229 11.0985 52.0126 10.8096 51.9253 10.5397Z" fill="#2B2B2B"/>
<path d="M15.1343 22.7627C15.386 22.8955 15.6699 22.9551 15.9538 22.9348C16.2377 22.9145 16.5102 22.8151 16.7404 22.6479C16.9707 22.4806 17.1495 22.2522 17.2566 21.9885C17.3637 21.7248 17.3948 21.4364 17.3463 21.156L16.4323 15.8585L20.2825 12.0986C20.4865 11.9002 20.6309 11.6487 20.6992 11.3724C20.7676 11.0962 20.7572 10.8063 20.6692 10.5357C20.5813 10.265 20.4193 10.0244 20.2016 9.84113C19.9839 9.65785 19.7192 9.5392 19.4375 9.49864L14.1187 8.72981L11.7391 3.90966C11.6135 3.65426 11.4188 3.43917 11.1772 3.28874C10.9356 3.13832 10.6567 3.05859 10.372 3.05859C10.0874 3.05859 9.80851 3.13832 9.5669 3.28874C9.32528 3.43917 9.13063 3.65426 9.00502 3.90966L6.62642 8.72981L1.30658 9.5027C1.02574 9.54383 0.761977 9.6626 0.545028 9.84562C0.328079 10.0286 0.166573 10.2686 0.0787196 10.5385C-0.00913388 10.8084 -0.0198407 11.0975 0.0478062 11.3731C0.115453 11.6488 0.258764 11.9001 0.461579 12.0986L4.3108 15.8565L3.40283 21.154C3.35407 21.4344 3.38487 21.7229 3.49174 21.9868C3.5986 22.2506 3.77726 22.4793 4.00744 22.6467C4.23763 22.8142 4.51014 22.9139 4.79407 22.9344C5.078 22.9549 5.36199 22.8954 5.61384 22.7627L10.372 20.2612L15.1343 22.7627Z" fill="#2B2B2B"/>
</svg>
