<svg width="52" height="52" viewBox="0 0 52 52" fill="none" xmlns="http://www.w3.org/2000/svg">
<g clip-path="url(#clip0_114_1527)">
<path d="M49.8335 23.8335H47.5562C46.5378 13.6133 38.3867 5.46216 28.1665 4.44376V2.16653C28.1665 0.970795 27.1981 0 26 0C24.8019 0 23.8335 0.970795 23.8335 2.16653V4.44376C13.6133 5.46216 5.46216 13.6133 4.44376 23.8335H2.16653C0.968414 23.8335 0 24.8039 0 26C0 27.1961 0.968414 28.1665 2.16653 28.1665H4.44376C5.46414 38.3867 13.6133 46.5378 23.8335 47.5562V49.8335C23.8335 51.0292 24.8019 52 26 52C27.1981 52 28.1665 51.0292 28.1665 49.8335V47.5562C38.3867 46.5359 46.5378 38.3867 47.5562 28.1665H49.8335C51.0316 28.1665 52 27.1961 52 26C52 24.8039 51.0316 23.8335 49.8335 23.8335ZM43.1839 23.8335H36.6169C35.752 19.5889 32.4111 16.248 28.1665 15.3855V8.8161C35.9928 9.79999 42.2 16.0072 43.1839 23.8335ZM23.8335 8.8161V15.3831C19.5889 16.248 16.248 19.5889 15.3855 23.8335H8.8161C9.79999 16.0072 16.0072 9.79999 23.8335 8.8161ZM8.8161 28.1665H15.3831C16.2456 32.4111 19.5865 35.752 23.8311 36.6145V43.1815C16.0072 42.2 9.79999 35.9928 8.8161 28.1665ZM28.1665 43.1839V36.6169C32.4111 35.7544 35.752 32.4135 36.6145 28.1689H43.1815C42.2 35.9928 35.9928 42.2 28.1665 43.1839Z" fill="#2B2B2B"/>
</g>
<defs>
<clipPath id="clip0_114_1527">
<rect width="52" height="52" fill="white"/>
</clipPath>
</defs>
</svg>
