<svg width="52" height="52" viewBox="0 0 52 52" fill="none" xmlns="http://www.w3.org/2000/svg">
<path d="M34.0289 46.1358C33.6226 46.542 33.0716 46.7702 32.4971 46.7702C31.9225 46.7702 31.3715 46.542 30.9652 46.1358L27.5289 42.6995C27.1227 42.2932 26.8945 41.7422 26.8945 41.1676C26.8945 40.5931 27.1227 40.0421 27.5289 39.6358L39.6319 27.5328C40.0382 27.1266 40.5892 26.8984 41.1637 26.8984C41.7383 26.8984 42.2893 27.1266 42.6956 27.5328L46.1319 30.9691C46.5381 31.3755 46.7663 31.9265 46.7663 32.501C46.7663 33.0755 46.5381 33.6265 46.1319 34.0328L34.0289 46.1358Z" stroke="#2B2B2B" stroke-width="5" stroke-linecap="round" stroke-linejoin="round"/>
<path d="M38.9987 28.1673L36.0195 13.2737C35.9385 12.8685 35.7433 12.4949 35.4569 12.197C35.1705 11.8991 34.8049 11.6893 34.4032 11.5923L7.00788 4.39466C6.64697 4.30741 6.2697 4.31436 5.91225 4.41486C5.55481 4.51536 5.22919 4.70603 4.96663 4.96859C4.70408 5.23114 4.51341 5.55676 4.41291 5.9142C4.31241 6.27165 4.30545 6.64892 4.39271 7.00983L11.5904 34.4052C11.6873 34.8069 11.8971 35.1725 12.195 35.4589C12.4929 35.7452 12.8665 35.9405 13.2717 36.0215L28.1654 39.0007M4.98204 4.984L20.7684 20.7703" stroke="#2B2B2B" stroke-width="5" stroke-linecap="round" stroke-linejoin="round"/>
<path d="M23.8333 28.1667C26.2266 28.1667 28.1667 26.2266 28.1667 23.8333C28.1667 21.4401 26.2266 19.5 23.8333 19.5C21.4401 19.5 19.5 21.4401 19.5 23.8333C19.5 26.2266 21.4401 28.1667 23.8333 28.1667Z" stroke="#2B2B2B" stroke-width="5" stroke-linecap="round" stroke-linejoin="round"/>
</svg>
