<svg width="56" height="52" viewBox="0 0 56 52" fill="none" xmlns="http://www.w3.org/2000/svg">
<path d="M3.375 20V14.5C3.375 13.0413 3.95446 11.6424 4.98591 10.6109C6.01736 9.57946 7.41631 9 8.875 9H14.375M3.375 20C7.04075 20 14.375 17.8 14.375 9M3.375 20V31M14.375 9H41.875M3.375 31V36.5C3.375 37.9587 3.95446 39.3576 4.98591 40.3891C6.01736 41.4205 7.41631 42 8.875 42H14.375M3.375 31C7.04075 31 14.375 33.2 14.375 42M52.875 20V14.5C52.875 13.0413 52.2955 11.6424 51.2641 10.6109C50.2326 9.57946 48.8337 9 47.375 9H41.875M52.875 20C49.2093 20 41.875 17.8 41.875 9M52.875 20V31M52.875 31V36.5C52.875 37.9587 52.2955 39.3576 51.2641 40.3891C50.2326 41.4205 48.8337 42 47.375 42H41.875M52.875 31C49.2093 31 41.875 33.2 41.875 42M41.875 42H14.375" stroke="#2B2B2B" stroke-width="5" stroke-linecap="round" stroke-linejoin="round"/>
<path d="M28.125 31C31.1626 31 33.625 28.5376 33.625 25.5C33.625 22.4624 31.1626 20 28.125 20C25.0874 20 22.625 22.4624 22.625 25.5C22.625 28.5376 25.0874 31 28.125 31Z" stroke="#2B2B2B" stroke-width="5" stroke-linecap="round" stroke-linejoin="round"/>
</svg>
