<svg width="101" height="27" viewBox="0 0 101 27" fill="none" xmlns="http://www.w3.org/2000/svg">
<path d="M0.39225 26V1.304H5.07225V21.932H17.4563V26H0.39225ZM31.1737 26.432C28.6057 26.432 26.3857 25.976 24.5137 25.064C22.6417 24.128 21.2017 22.712 20.1937 20.816C19.2097 18.92 18.7177 16.532 18.7177 13.652C18.7177 10.748 19.2097 8.36 20.1937 6.488C21.2017 4.592 22.6417 3.188 24.5137 2.276C26.3857 1.34 28.6057 0.872 31.1737 0.872C33.7657 0.872 35.9857 1.34 37.8337 2.276C39.7057 3.188 41.1337 4.592 42.1177 6.488C43.1257 8.36 43.6297 10.748 43.6297 13.652C43.6297 16.532 43.1257 18.92 42.1177 20.816C41.1337 22.712 39.7057 24.128 37.8337 25.064C35.9857 25.976 33.7657 26.432 31.1737 26.432ZM31.1737 22.472C32.4217 22.472 33.5137 22.292 34.4497 21.932C35.4097 21.572 36.2137 21.044 36.8617 20.348C37.5097 19.628 38.0017 18.752 38.3377 17.72C38.6737 16.664 38.8417 15.452 38.8417 14.084V13.292C38.8417 11.9 38.6737 10.676 38.3377 9.62C38.0017 8.564 37.5097 7.688 36.8617 6.992C36.2137 6.272 35.4097 5.732 34.4497 5.372C33.5137 5.012 32.4217 4.832 31.1737 4.832C29.9257 4.832 28.8217 5.012 27.8617 5.372C26.9257 5.732 26.1337 6.272 25.4857 6.992C24.8377 7.688 24.3457 8.564 24.0097 9.62C23.6977 10.676 23.5417 11.9 23.5417 13.292V14.084C23.5417 15.452 23.6977 16.664 24.0097 17.72C24.3457 18.752 24.8377 19.628 25.4857 20.348C26.1337 21.044 26.9257 21.572 27.8617 21.932C28.8217 22.292 29.9257 22.472 31.1737 22.472ZM59.2258 26.432C55.4098 26.432 52.4458 25.412 50.3338 23.372C48.2218 21.308 47.1658 18.068 47.1658 13.652C47.1658 10.748 47.6578 8.36 48.6418 6.488C49.6498 4.592 51.0898 3.188 52.9618 2.276C54.8578 1.34 57.1258 0.872 59.7658 0.872C61.3498 0.872 62.8378 1.052 64.2298 1.412C65.6218 1.772 66.8458 2.324 67.9018 3.068C68.9818 3.788 69.8218 4.7 70.4218 5.804C71.0218 6.908 71.3218 8.216 71.3218 9.728H66.4978C66.4978 8.936 66.3178 8.24 65.9578 7.64C65.6218 7.016 65.1418 6.5 64.5178 6.092C63.9178 5.66 63.2218 5.348 62.4298 5.156C61.6378 4.94 60.7978 4.832 59.9098 4.832C58.5898 4.832 57.4258 5.012 56.4178 5.372C55.4338 5.708 54.6058 6.236 53.9338 6.956C53.2858 7.652 52.7938 8.528 52.4578 9.584C52.1458 10.64 51.9898 11.876 51.9898 13.292V14.048C51.9898 15.992 52.2658 17.588 52.8178 18.836C53.3698 20.084 54.1978 21.008 55.3018 21.608C56.4298 22.184 57.8218 22.472 59.4778 22.472C60.8938 22.472 62.1298 22.256 63.1858 21.824C64.2658 21.392 65.1058 20.768 65.7058 19.952C66.3298 19.112 66.6418 18.092 66.6418 16.892V16.64H58.7578V12.752H71.3218V26H67.9738L67.5778 23.264C66.8578 23.984 66.0898 24.584 65.2738 25.064C64.4578 25.52 63.5578 25.856 62.5738 26.072C61.5898 26.312 60.4738 26.432 59.2258 26.432ZM87.9158 26.432C85.3478 26.432 83.1278 25.976 81.2558 25.064C79.3838 24.128 77.9438 22.712 76.9358 20.816C75.9518 18.92 75.4598 16.532 75.4598 13.652C75.4598 10.748 75.9518 8.36 76.9358 6.488C77.9438 4.592 79.3838 3.188 81.2558 2.276C83.1278 1.34 85.3478 0.872 87.9158 0.872C90.5078 0.872 92.7278 1.34 94.5758 2.276C96.4478 3.188 97.8758 4.592 98.8598 6.488C99.8678 8.36 100.372 10.748 100.372 13.652C100.372 16.532 99.8678 18.92 98.8598 20.816C97.8758 22.712 96.4478 24.128 94.5758 25.064C92.7278 25.976 90.5078 26.432 87.9158 26.432ZM87.9158 22.472C89.1638 22.472 90.2558 22.292 91.1918 21.932C92.1518 21.572 92.9558 21.044 93.6038 20.348C94.2518 19.628 94.7438 18.752 95.0798 17.72C95.4158 16.664 95.5838 15.452 95.5838 14.084V13.292C95.5838 11.9 95.4158 10.676 95.0798 9.62C94.7438 8.564 94.2518 7.688 93.6038 6.992C92.9558 6.272 92.1518 5.732 91.1918 5.372C90.2558 5.012 89.1638 4.832 87.9158 4.832C86.6678 4.832 85.5638 5.012 84.6038 5.372C83.6678 5.732 82.8758 6.272 82.2278 6.992C81.5798 7.688 81.0878 8.564 80.7518 9.62C80.4398 10.676 80.2838 11.9 80.2838 13.292V14.084C80.2838 15.452 80.4398 16.664 80.7518 17.72C81.0878 18.752 81.5798 19.628 82.2278 20.348C82.8758 21.044 83.6678 21.572 84.6038 21.932C85.5638 22.292 86.6678 22.472 87.9158 22.472Z" fill="black"/>
</svg>
