<svg width="171" height="47" viewBox="0 0 171 47" fill="none" xmlns="http://www.w3.org/2000/svg">
<path d="M0.570312 1.81641H9.59375V37.2363H30.9805V45H0.570312V1.81641ZM56.3516 46.2012C50.1797 46.2012 45.4629 44.5215 42.2012 41.1621C37.8262 37.041 35.6387 31.1035 35.6387 23.3496C35.6387 15.4395 37.8262 9.50195 42.2012 5.53711C45.4629 2.17773 50.1797 0.498047 56.3516 0.498047C62.5234 0.498047 67.2402 2.17773 70.502 5.53711C74.8574 9.50195 77.0352 15.4395 77.0352 23.3496C77.0352 31.1035 74.8574 37.041 70.502 41.1621C67.2402 44.5215 62.5234 46.2012 56.3516 46.2012ZM64.877 34.5996C66.9668 31.9629 68.0117 28.2129 68.0117 23.3496C68.0117 18.5059 66.957 14.7656 64.8477 12.1289C62.7578 9.47266 59.9258 8.14453 56.3516 8.14453C52.7773 8.14453 49.9258 9.46289 47.7969 12.0996C45.668 14.7363 44.6035 18.4863 44.6035 23.3496C44.6035 28.2129 45.668 31.9629 47.7969 34.5996C49.9258 37.2363 52.7773 38.5547 56.3516 38.5547C59.9258 38.5547 62.7676 37.2363 64.877 34.5996ZM110.434 43.9453C108.051 45.4102 105.121 46.1426 101.645 46.1426C95.9219 46.1426 91.2344 44.1602 87.582 40.1953C83.7734 36.2109 81.8691 30.7617 81.8691 23.8477C81.8691 16.8555 83.793 11.25 87.6406 7.03125C91.4883 2.8125 96.5762 0.703125 102.904 0.703125C108.393 0.703125 112.797 2.09961 116.117 4.89258C119.457 7.66602 121.371 11.1328 121.859 15.293H112.982C112.299 12.3437 110.629 10.2832 107.973 9.11133C106.488 8.4668 104.838 8.14453 103.021 8.14453C99.5449 8.14453 96.6836 9.46289 94.4375 12.0996C92.2109 14.7168 91.0977 18.6621 91.0977 23.9355C91.0977 29.248 92.3086 33.0078 94.7305 35.2148C97.1523 37.4219 99.9062 38.5254 102.992 38.5254C106.02 38.5254 108.5 37.6562 110.434 35.918C112.367 34.1602 113.559 31.8652 114.008 29.0332H104.018V21.8262H122.006V45H116.029L115.121 39.6094C113.383 41.6602 111.82 43.1055 110.434 43.9453ZM149.75 46.2012C143.578 46.2012 138.861 44.5215 135.6 41.1621C131.225 37.041 129.037 31.1035 129.037 23.3496C129.037 15.4395 131.225 9.50195 135.6 5.53711C138.861 2.17773 143.578 0.498047 149.75 0.498047C155.922 0.498047 160.639 2.17773 163.9 5.53711C168.256 9.50195 170.434 15.4395 170.434 23.3496C170.434 31.1035 168.256 37.041 163.9 41.1621C160.639 44.5215 155.922 46.2012 149.75 46.2012ZM158.275 34.5996C160.365 31.9629 161.41 28.2129 161.41 23.3496C161.41 18.5059 160.355 14.7656 158.246 12.1289C156.156 9.47266 153.324 8.14453 149.75 8.14453C146.176 8.14453 143.324 9.46289 141.195 12.0996C139.066 14.7363 138.002 18.4863 138.002 23.3496C138.002 28.2129 139.066 31.9629 141.195 34.5996C143.324 37.2363 146.176 38.5547 149.75 38.5547C153.324 38.5547 156.166 37.2363 158.275 34.5996Z" fill="white"/>
</svg>
