<svg width="24" height="25" viewBox="0 0 24 25" fill="none" xmlns="http://www.w3.org/2000/svg">
<path fill-rule="evenodd" clip-rule="evenodd" d="M11.4697 5.21967C11.7626 4.92678 12.2374 4.92678 12.5303 5.21967L16.2803 8.96967C16.5732 9.26256 16.5732 9.73744 16.2803 10.0303C15.9874 10.3232 15.5126 10.3232 15.2197 10.0303L12 6.81066L8.78033 10.0303C8.48744 10.3232 8.01256 10.3232 7.71967 10.0303C7.42678 9.73744 7.42678 9.26256 7.71967 8.96967L11.4697 5.21967ZM7.71967 14.9697C8.01256 14.6768 8.48744 14.6768 8.78033 14.9697L12 18.1893L15.2197 14.9697C15.5126 14.6768 15.9874 14.6768 16.2803 14.9697C16.5732 15.2626 16.5732 15.7374 16.2803 16.0303L12.5303 19.7803C12.2374 20.0732 11.7626 20.0732 11.4697 19.7803L7.71967 16.0303C7.42678 15.7374 7.42678 15.2626 7.71967 14.9697Z" fill="#C2C4C7"/>
</svg>
