<svg width="24" height="25" viewBox="0 0 24 25" fill="none" xmlns="http://www.w3.org/2000/svg">
<path d="M11.25 5.83694C11.25 5.48178 11.064 5.16076 10.8488 4.8782C10.6279 4.5881 10.5 4.244 10.5 3.875C10.5 2.83947 11.5074 2 12.75 2C13.9926 2 15 2.83947 15 3.875C15 4.244 14.8721 4.5881 14.6512 4.8782C14.436 5.16076 14.25 5.48178 14.25 5.83694C14.25 6.16929 14.5277 6.4346 14.8595 6.4148C16.7701 6.30079 18.6498 6.07328 20.4922 5.73898C20.6949 5.70219 20.9039 5.75044 21.07 5.87241C21.2361 5.99437 21.3447 6.1793 21.3703 6.38377C21.5943 8.17324 21.7213 9.99263 21.7459 11.8365C21.7508 12.2028 21.4533 12.4999 21.0869 12.5C20.7318 12.5 20.4108 12.314 20.1282 12.0988C19.8381 11.8779 19.494 11.75 19.125 11.75C18.0895 11.75 17.25 12.7574 17.25 14C17.25 15.2426 18.0895 16.25 19.125 16.25C19.494 16.25 19.8381 16.1221 20.1282 15.9012C20.4108 15.686 20.7318 15.5 21.0869 15.5C21.3974 15.5 21.6439 15.7617 21.6214 16.0713C21.5028 17.7098 21.3031 19.3261 21.0263 20.9161C20.9721 21.228 20.7279 21.4721 20.416 21.5264C18.5969 21.843 16.7434 22.0587 14.8615 22.1677C14.5285 22.1869 14.25 21.9205 14.25 21.5869C14.25 21.2318 14.436 20.9108 14.6512 20.6282C14.8721 20.3381 15 19.994 15 19.625C15 18.5895 13.9926 17.75 12.75 17.75C11.5074 17.75 10.5 18.5895 10.5 19.625C10.5 19.994 10.6279 20.3381 10.8488 20.6282C11.064 20.9108 11.25 21.2318 11.25 21.5869C11.25 21.9485 10.954 22.2405 10.5925 22.2303C9.00303 22.1852 7.43238 22.064 5.88413 21.8702C5.67966 21.8446 5.49473 21.736 5.37277 21.5699C5.25081 21.4038 5.20256 21.1948 5.23935 20.9921C5.53223 19.3781 5.74315 17.7354 5.8676 16.0683C5.89058 15.7605 5.64563 15.5 5.33694 15.5C4.98178 15.5 4.66076 15.686 4.3782 15.9012C4.0881 16.1221 3.744 16.25 3.375 16.25C2.33947 16.25 1.5 15.2426 1.5 14C1.5 12.7574 2.33947 11.75 3.375 11.75C3.744 11.75 4.0881 11.8779 4.3782 12.0988C4.66076 12.314 4.98178 12.5 5.33694 12.5C5.7033 12.5 6.00078 12.203 5.99574 11.8367C5.97334 10.2084 5.86862 8.60026 5.68559 7.01628C5.6593 6.78881 5.73838 6.56178 5.9003 6.39986C6.06222 6.23794 6.28924 6.15886 6.51672 6.18515C7.85902 6.34025 9.2186 6.43912 10.5931 6.47931C10.9541 6.48987 11.25 6.19817 11.25 5.83694Z" fill="black"/>
</svg>
