<svg width="24" height="25" viewBox="0 0 24 25" fill="none" xmlns="http://www.w3.org/2000/svg">
<path fill-rule="evenodd" clip-rule="evenodd" d="M2.25 12.5C2.25 7.11522 6.61522 2.75 12 2.75C17.3848 2.75 21.75 7.11522 21.75 12.5C21.75 17.8848 17.3848 22.25 12 22.25C6.61522 22.25 2.25 17.8848 2.25 12.5ZM10.9562 11.0584C12.1025 10.4853 13.3931 11.5206 13.0823 12.7639L12.3733 15.5999L12.4148 15.5792C12.7852 15.394 13.2357 15.5441 13.421 15.9146C13.6062 16.2851 13.4561 16.7356 13.0856 16.9208L13.0441 16.9416C11.8979 17.5147 10.6072 16.4794 10.9181 15.2361L11.6271 12.4001L11.5856 12.4208C11.2151 12.6061 10.7646 12.4559 10.5793 12.0854C10.3941 11.7149 10.5443 11.2644 10.9148 11.0792L10.9562 11.0584ZM12 9.5C12.4142 9.5 12.75 9.16421 12.75 8.75C12.75 8.33579 12.4142 8 12 8C11.5858 8 11.25 8.33579 11.25 8.75C11.25 9.16421 11.5858 9.5 12 9.5Z" fill="#111827"/>
</svg>
