<svg width="24" height="25" viewBox="0 0 24 25" fill="none" xmlns="http://www.w3.org/2000/svg">
<g clip-path="url(#clip0_81_2184)">
<path d="M16.1365 0.503376C14.0045 0.749767 12.7941 3.08715 12.64 5.11738C12.3882 6.92225 13.1761 9.22531 15.0718 9.64033C16.7146 9.78686 18.0217 8.24345 18.5585 6.77117C19.1926 4.92836 19.2111 2.46742 17.6726 1.08684C17.2453 0.716495 16.6966 0.49152 16.1365 0.503376ZM7.44004 0.600005C5.66609 0.728333 4.75684 2.78991 4.88023 4.44474C4.89532 6.65741 6.11042 9.14602 8.32627 9.67128C9.97876 9.84999 11.0805 8.09738 11.1832 6.56493C11.3941 4.2197 10.355 1.37869 8.00191 0.670618C7.81902 0.620107 7.62934 0.595037 7.44004 0.600005ZM21.6944 7.7059C19.3143 7.88035 17.8092 10.4168 17.7057 12.7089C17.5805 14.2016 18.5449 16.0788 20.1686 15.9759C22.597 15.7185 24.0611 13.0119 24.0007 10.6604C23.9851 9.30654 23.1272 7.76233 21.6944 7.7059ZM0.0184391 10.8C-0.201934 13.3397 1.57527 16.2103 4.15696 16.3702C5.72172 16.2657 6.45957 14.4484 6.28023 13.0105C6.13733 10.889 4.71883 8.71653 2.87583 8.43271C1.03284 8.1489 -0.0107826 9.45095 0.0184391 10.8ZM12.2732 12.9666C9.85282 12.9722 7.63988 14.5548 6.45678 16.6961C5.46552 18.2962 4.65515 20.1077 4.50103 22.0195C4.53475 23.4939 5.9415 24.7209 7.35209 24.4273C9.36412 24.1661 11.1621 22.7688 13.2543 23.0306C14.9931 23.1694 16.4271 24.5178 18.1826 24.4982C19.8872 24.5622 20.8706 22.6088 20.2205 21.0788C19.521 18.8881 18.1648 16.9829 16.7091 15.267C15.5479 14.0021 14.0271 12.9106 12.2732 12.9666Z" fill="black"/>
</g>
<defs>
<clipPath id="clip0_81_2184">
<rect width="24" height="24" fill="white" transform="translate(0 0.5)"/>
</clipPath>
</defs>
</svg>
