<svg width="24" height="25" viewBox="0 0 24 25" fill="none" xmlns="http://www.w3.org/2000/svg">
<path d="M10.5 19.25C10.0858 19.25 9.75 19.5858 9.75 20C9.75 20.4142 10.0858 20.75 10.5 20.75H13.5C13.9142 20.75 14.25 20.4142 14.25 20C14.25 19.5858 13.9142 19.25 13.5 19.25H10.5Z" fill="black"/>
<path fill-rule="evenodd" clip-rule="evenodd" d="M8.625 1.25C6.76104 1.25 5.25 2.76104 5.25 4.625V20.375C5.25 22.239 6.76104 23.75 8.625 23.75H15.375C17.239 23.75 18.75 22.239 18.75 20.375V4.625C18.75 2.76104 17.239 1.25 15.375 1.25H8.625ZM7.5 4.625C7.5 4.00368 8.00368 3.5 8.625 3.5H9.75V3.875C9.75 4.49632 10.2537 5 10.875 5H13.125C13.7463 5 14.25 4.49632 14.25 3.875V3.5H15.375C15.9963 3.5 16.5 4.00368 16.5 4.625V20.375C16.5 20.9963 15.9963 21.5 15.375 21.5H8.625C8.00368 21.5 7.5 20.9963 7.5 20.375V4.625Z" fill="black"/>
</svg>
