<svg width="60" height="60" viewBox="0 0 60 60" fill="none" xmlns="http://www.w3.org/2000/svg">
<g clip-path="url(#clip0_88_1402)">
<path d="M59.9989 32.6648L47.7775 26.1485V11.9775L47.7163 12.0126L47.7798 11.9718L35.2446 5.28906L23.8955 11.6841L11.903 5.28906L0 11.9956L0.0521118 12.0262V26.3377L0 26.3626L0.0521118 26.3932V26.6595V41.0265L12.235 48.3742V48.3867L12.2429 48.381L12.2542 48.3867V48.3765L24.4371 41.0287V27.2882L35.5765 34.0095V34.0208L35.5856 34.0163L35.5969 34.0208V34.0095L35.615 33.997V47.3513L47.7979 54.699V54.7115L47.807 54.7058L47.8183 54.7115V54.699L60.0011 47.3513V32.6682L59.94 32.7033L59.9989 32.6648ZM23.3937 25.4699L12.6349 20.8059L12.6326 19.6244L23.3937 13.1613V25.4699ZM18.818 28.8459L12.6575 32.4155L12.6371 22.0396L22.7933 26.4442L18.818 28.8459ZM12.4808 6.66436L22.902 12.0115L12.4808 18.3091V6.66436ZM11.3479 6.69268V18.146L1.51464 12.2211L11.3479 6.69268ZM0.987859 13.099L11.3185 19.3287V20.7629L0.987859 25.513V13.099ZM2.21022 26.1984L11.3185 22.0102V32.3668L1.63133 26.5235L2.21022 26.1984ZM11.3185 46.7316L1.57582 40.8554L11.3185 36.3749V46.7316ZM11.3185 35.1276L0.987859 39.8789V27.4661L11.3185 33.6957V35.1276ZM12.6564 46.7826L12.636 36.4078L22.8896 40.8531L12.6564 46.7826ZM23.5002 39.8845L12.6349 35.1741L12.6326 33.9925L23.5002 27.4661V39.8845ZM34.66 32.3634L24.9174 26.4884L34.66 22.0079V32.3634ZM34.66 20.7618L24.4359 25.4631V13.1636L34.66 19.3287V20.7618ZM34.6906 18.1471L24.8574 12.2222L34.6906 6.69382V18.1471ZM35.9787 22.0419L46.2334 26.4884L36.0002 32.4167L35.9787 22.0419ZM46.8418 25.5164L35.9764 20.8059L35.9742 19.6244L46.8418 13.0979V25.5164ZM35.8235 6.66436L46.2436 12.0115L35.8235 18.3091V6.66436ZM46.8791 53.0564L37.1365 47.1813L46.8791 42.7008V53.0564ZM46.8791 41.4524L36.5485 46.2025V33.7908L46.8791 40.0193V41.4524ZM46.9097 38.8378L37.2452 33.0137L42.0271 30.1306L46.912 27.3834L46.9097 38.8378ZM48.0426 27.3562L58.4638 32.7033L48.0426 39.0009V27.3562ZM48.2171 53.1073L48.1967 42.7314L58.4502 47.1791L48.2171 53.1073ZM59.0608 46.2093L48.1955 41.4989L48.1933 40.3173L59.0608 33.7908V46.2093Z" fill="black"/>
</g>
<defs>
<clipPath id="clip0_88_1402">
<rect width="60" height="60" fill="white"/>
</clipPath>
</defs>
</svg>
