<svg width="60" height="60" viewBox="0 0 60 60" fill="none" xmlns="http://www.w3.org/2000/svg">
<g clipPath="url(#clip0_88_1394)">
<path d="M52.9468 19.6161H35.9279V12.0801H24.0726V19.6161H7.05474C6.16569 19.6161 5.44531 20.3365 5.44531 21.2246C5.44531 22.1126 6.16569 22.833 7.05474 22.833H24.0726V30.369H28.0403V32.8116C28.0403 33.8277 28.8186 34.6537 29.8093 34.7523C30.0633 35.5469 30.6404 35.7897 31.3079 35.9553C31.8048 36.0803 32.2366 36.187 32.5668 36.7905C32.6837 37.0039 32.6999 37.136 32.6745 37.1888C32.5689 37.4266 31.757 37.6094 31.2206 37.7273C30.2949 37.9346 29.3368 38.149 28.9964 38.8694L29.0239 38.8836L23.5209 41.0884L23.3533 40.9949V59.672L23.9395 59.7025V58.0768L29.5512 56.0661V59.9779L30.1374 59.9992V56.0579L35.7481 58.0687V59.7198L36.3344 59.672V40.9909L36.1637 41.0884L30.7034 38.8978C30.9483 38.8297 31.2114 38.7708 31.4421 38.719C32.3474 38.5168 33.2831 38.3065 33.6002 37.6064C33.7719 37.2284 33.7231 36.7885 33.4559 36.3018C32.9113 35.3081 32.1238 35.113 31.5508 34.9687C31.2114 34.8844 30.9655 34.8204 30.8213 34.5847C31.4918 34.2727 31.9582 33.5981 31.9582 32.8116V30.369H35.9249V22.833H52.9438C53.8318 22.833 54.5522 22.1126 54.5522 21.2246C54.5522 20.3365 53.8349 19.6161 52.9468 19.6161ZM29.5532 55.4412L23.9416 57.452V56.4146L29.5532 54.4038V55.4412ZM29.5532 53.783L23.9416 55.7938V54.7564L29.5532 52.7456V53.783ZM29.5532 52.1228L23.9416 54.1335V53.0961L29.5532 51.0854V52.1228ZM29.5532 50.4625L23.9416 52.4733V51.4369L29.5532 49.4261V50.4625ZM29.5532 48.8013L23.9416 50.812V49.7757L29.5532 47.7649V48.8013ZM29.5532 47.1421L23.9416 49.1528V48.1154L29.5532 46.1047V47.1421ZM29.5532 45.4839L23.9416 47.4946V46.4572L29.5532 44.4465V45.4839ZM29.5532 43.8226L23.9416 45.8334V44.796L29.5532 42.7852V43.8226ZM29.5532 42.1634L23.9416 44.1742V43.1368L29.5532 41.126V42.1634ZM29.5532 40.5021L23.9416 42.5129V41.6229L29.5532 39.4546V40.5021ZM35.7511 57.4438L30.1405 55.4331V54.3957L35.7511 56.4064V57.4438ZM35.7511 55.7826L30.1405 53.7718V52.7344L35.7511 54.7452V55.7826ZM35.7511 54.1244L30.1405 52.1136V51.0762L35.7511 53.087V54.1244ZM35.7511 52.4641L30.1405 50.4534V49.416L35.7511 51.4268V52.4641ZM35.7511 50.8049L30.1405 48.7942V47.7568L35.7511 49.7675V50.8049ZM35.7511 49.1447L30.1405 47.1339V46.0965L35.7511 48.1073V49.1447ZM35.7511 47.4835L30.1405 45.4727V44.4353L35.7511 46.4461V47.4835ZM35.7511 45.8253L30.1405 43.8145V42.7771L35.7511 44.7879V45.8253ZM35.7511 44.164L30.1405 42.1532V41.1158L35.7511 43.1266V44.164ZM35.7511 42.5048L30.1405 40.494V39.4556L35.7511 41.6239V42.5048Z" fill="black"/>
<path d="M22.9299 16.4624H23.2673V13.0332H22.9299C21.982 13.0332 21.2148 13.8003 21.2148 14.7483C21.2148 15.6963 21.982 16.4624 22.9299 16.4624Z" fill="black"/>
<path d="M36.457 13.0323V16.4614H36.7944C37.7434 16.4614 38.5095 15.6943 38.5095 14.7463C38.5095 13.7984 37.7423 13.0312 36.7944 13.0312L36.457 13.0323Z" fill="black"/>
<path d="M30.8658 11.6968L31.1442 11.6938C31.1238 9.99797 31.513 8.7787 32.335 7.96586C33.8966 6.42349 36.9285 6.49462 39.8599 6.56879C42.9151 6.64296 46.0761 6.71916 47.7749 4.93599C48.728 3.93518 49.1202 2.48628 48.9759 0.509043L47.9639 0.583215C48.0858 2.25869 47.7841 3.45357 47.0413 4.23491C46.1309 5.18899 44.613 5.48669 42.844 5.55985C43.2413 5.35257 43.6081 5.09856 43.921 4.76021C44.867 3.73705 45.249 2.17944 45.0885 0L44.0745 0.0741719C44.2137 1.95794 43.918 3.2656 43.1732 4.07133C42.0515 5.28348 39.9726 5.29567 37.7698 5.30786C35.375 5.32209 32.8979 5.33631 31.3301 6.93152C30.3049 7.97399 29.8223 9.54379 29.8487 11.7293L30.8647 11.7161C30.8637 11.709 30.8658 11.7039 30.8658 11.6968Z" fill="black"/>
</g>
<defs>
<clipPath id="clip0_88_1394">
<rect width="60" height="60" fill="white"/>
</clipPath>
</defs>
</svg>
