<svg width="60" height="60" viewBox="0 0 60 60" fill="none" xmlns="http://www.w3.org/2000/svg">
<g clip-path="url(#clip0_88_1429)">
<path d="M59.7775 23.0515C59.5468 22.633 59.1669 22.3303 58.7076 22.1973L39.2456 16.6168V5.21967C39.2456 4.7947 39.0095 4.40621 38.636 4.20874C38.5019 4.13791 38.3581 4.10572 38.211 4.09177C38.2089 4.09177 38.2067 4.08962 38.2035 4.08962L35.9026 3.6625C36.9136 3.24825 38.2711 3.25362 39.4441 3.73869C40.117 4.00162 40.7791 4.49313 41.4789 5.01362C42.4329 5.72299 43.4192 6.45489 44.6823 6.81655C48.6069 7.76846 52.3479 5.40211 55.0792 3.67216C55.4344 3.44679 55.5396 2.97674 55.3153 2.62045C55.091 2.26523 54.6198 2.15898 54.2646 2.38435C51.7631 3.96835 48.3375 6.13509 45.0729 5.34309C44.9817 5.31626 44.8937 5.27333 44.8035 5.24006C48.6487 5.84855 52.1741 3.41567 54.7626 1.61918C55.1081 1.37879 55.1929 0.904446 54.9547 0.558884C54.7132 0.212249 54.2399 0.126395 53.8944 0.366786C51.4626 2.05489 48.1325 4.36328 44.8357 3.70865C43.857 3.47255 42.9588 2.86191 42.0884 2.27059C41.3147 1.74474 40.5151 1.19957 39.6512 0.905519C37.6294 0.167176 35.2566 0.500933 33.8808 1.71684C33.4386 2.10747 33.107 2.57538 32.8881 3.10338L29.2264 2.42406C29.0515 2.39079 28.8702 2.42191 28.7145 2.50884L21.0639 6.80475C20.8847 6.90455 20.7677 7.07197 20.713 7.25977C20.6282 7.42182 20.5788 7.60212 20.5788 7.78992V10.9998L2.28874 5.75519C2.1224 5.70689 1.95499 5.68328 1.78757 5.68328C0.996643 5.68328 0.290496 6.2145 0.0715685 6.97538C-0.0615048 7.4347 -0.00784622 7.91763 0.222886 8.33617C0.453618 8.7547 0.832448 9.05734 1.29284 9.19041L20.582 14.7205V26.2646C20.582 26.7851 20.933 27.239 21.4363 27.371L30.3264 29.6859V13.79H31.1528V29.7406C31.1743 29.7352 31.1957 29.7363 31.2183 29.7299C31.259 29.717 31.2934 29.6923 31.3299 29.6751C31.3932 29.6483 31.4544 29.6268 31.5123 29.5871L38.7487 24.6355C39.0599 24.423 39.2467 24.0699 39.2467 23.6922V20.3364L57.7117 25.6314C58.6614 25.904 59.6627 25.3331 59.9288 24.4112C60.0608 23.9519 60.0082 23.47 59.7775 23.0515ZM30.3501 8.42846L23.8531 7.16319L23.6384 7.10738L29.2222 3.97157L32.5855 4.56182C32.5662 5.03187 32.608 5.52553 32.7271 6.0428C32.7379 6.09216 32.7636 6.13294 32.7829 6.17694C32.7883 6.46455 32.8119 6.75968 32.8634 7.06446L30.3501 8.42846ZM34.3036 6.28426C34.2757 5.75948 34.3455 5.29694 34.5258 4.90309L36.2815 5.21109L34.3036 6.28426Z" fill="black"/>
<path d="M19.4044 54.8302C19.3958 54.827 19.3862 54.8259 19.3776 54.8237C19.0964 54.7465 18.8174 54.6402 18.5426 54.4975C18.2744 54.3601 18.0254 54.1949 17.7946 54.0113C17.7796 53.9995 17.7657 53.9877 17.7517 53.9749C17.5467 53.8085 17.3589 53.6207 17.1851 53.4222C17.125 53.3524 17.0713 53.2762 17.0144 53.2043C16.9082 53.0702 16.8095 52.9285 16.7172 52.7815C16.612 52.6152 16.5219 52.4381 16.4349 52.2589C16.3781 52.1387 16.3158 52.0206 16.2675 51.8983C16.23 51.8017 16.201 51.703 16.1699 51.6064C16.1023 51.4025 16.0411 51.1953 16.0003 50.9829C15.9939 50.9528 15.9863 50.9238 15.981 50.8938C15.9316 50.6115 15.9037 50.3261 15.9005 50.0385C15.9005 50.0191 15.9005 49.9988 15.9005 49.9794C15.9005 49.6886 15.9241 49.3999 15.9724 49.1123C15.9756 49.0984 15.9767 49.0866 15.9799 49.0726C16.0325 48.7743 16.1119 48.4781 16.2214 48.1915C16.3491 47.8599 16.5101 47.5616 16.6936 47.2858C16.7064 47.2665 16.7193 47.2504 16.7311 47.231C16.8824 47.0143 17.0574 46.8275 17.2377 46.6494C17.4137 46.4766 17.6047 46.3339 17.8011 46.1997C17.8923 46.1364 17.976 46.0634 18.0704 46.0098C18.3709 45.8402 18.6897 45.7039 19.0224 45.6191L17.639 45.9658C17.3064 46.0495 16.9898 46.1847 16.6893 46.3543C16.5905 46.4101 16.5047 46.4863 16.4103 46.5517C16.216 46.6848 16.0293 46.8243 15.8576 46.9939C15.8222 47.0293 15.776 47.0497 15.7417 47.0872C15.6365 47.1978 15.5388 47.3137 15.4444 47.4382C15.4101 47.4843 15.3779 47.5348 15.3446 47.583C15.3339 47.5981 15.3231 47.6131 15.3135 47.6281C15.2877 47.6657 15.2598 47.7011 15.2362 47.7397C15.1782 47.831 15.1246 47.9243 15.0731 48.022C15.0269 48.11 14.9829 48.2001 14.94 48.2924C14.9035 48.3718 14.8692 48.4534 14.8381 48.536C14.8348 48.5446 14.8327 48.5521 14.8295 48.5586C14.7983 48.6412 14.7694 48.7238 14.7425 48.8054C14.7168 48.8923 14.691 48.9792 14.6696 49.0651C14.647 49.1531 14.6266 49.2422 14.6095 49.3302C14.6041 49.3602 14.6009 49.3881 14.5955 49.4171C14.5934 49.4311 14.5902 49.4439 14.5891 49.4579C14.5805 49.504 14.5719 49.5512 14.5644 49.5985C14.5515 49.6908 14.5408 49.7841 14.5333 49.8764C14.5247 49.9752 14.5182 50.0717 14.5161 50.1672C14.515 50.2177 14.5161 50.2703 14.5161 50.3229C14.5161 50.3432 14.5161 50.3626 14.5161 50.383C14.5161 50.413 14.5161 50.4463 14.5161 50.4763C14.5193 50.5879 14.5258 50.7006 14.5376 50.8112C14.5494 50.9378 14.5655 51.0644 14.5869 51.1911C14.5891 51.2072 14.5934 51.2211 14.5977 51.2372C14.603 51.2662 14.6105 51.2973 14.617 51.3284C14.6374 51.4368 14.6578 51.5452 14.6857 51.6525C14.7125 51.7545 14.7533 51.8521 14.7865 51.9519C14.8187 52.0496 14.8477 52.1483 14.8853 52.2438C14.9024 52.2835 14.911 52.3286 14.9282 52.3694C14.9625 52.451 15.0151 52.5239 15.0538 52.6023C15.1407 52.7826 15.2308 52.9596 15.3371 53.1281C15.365 53.1732 15.3822 53.2247 15.4122 53.2687C15.4777 53.3664 15.5582 53.4533 15.6301 53.5467C15.6891 53.6207 15.7427 53.698 15.8039 53.7677C15.8275 53.7935 15.8447 53.8235 15.8672 53.8493C15.9692 53.9609 16.0754 54.0661 16.1881 54.168C16.245 54.2195 16.3051 54.2689 16.3663 54.3183C16.3834 54.3312 16.3984 54.344 16.4156 54.3601C16.4328 54.373 16.4489 54.387 16.4661 54.4031C16.5508 54.4674 16.6378 54.5297 16.7268 54.5898C16.8095 54.6445 16.8932 54.6971 16.9801 54.7465C17.0391 54.7808 17.1003 54.813 17.1604 54.8452C17.1851 54.8592 17.2098 54.8699 17.2355 54.8828C17.316 54.9235 17.3965 54.959 17.4791 54.9944C17.5585 55.0276 17.6401 55.0588 17.7206 55.0856C17.8011 55.1114 17.8805 55.1393 17.9621 55.1618C17.9728 55.1639 17.9846 55.1661 17.9932 55.1693C18.0039 55.1715 18.0136 55.1747 18.0232 55.1768C18.0855 55.194 18.1456 55.2101 18.2067 55.224C18.2915 55.2401 18.3752 55.2562 18.4589 55.2691C18.548 55.2831 18.636 55.2916 18.724 55.3002C18.7691 55.3034 18.8131 55.3067 18.8582 55.3077C18.9075 55.311 18.958 55.311 19.0063 55.312C19.1093 55.312 19.2102 55.3088 19.3132 55.3002C19.4312 55.2906 19.5482 55.2777 19.6641 55.2573C19.7618 55.2391 19.8584 55.2197 19.9539 55.1961L21.3383 54.8527C20.983 54.9407 20.6149 54.9772 20.2415 54.9633C19.9635 54.9493 19.6845 54.9053 19.4044 54.8302Z" fill="black"/>
<path d="M22.1236 49.3707C22.1193 49.3578 22.1161 49.3439 22.1108 49.3299C22.0925 49.287 22.0657 49.2516 22.0464 49.2108C22.0002 49.1153 21.953 49.0219 21.8961 48.9328C21.8854 48.9157 21.8779 48.8953 21.8661 48.8781C21.8242 48.8159 21.777 48.7622 21.7298 48.7053C21.7051 48.6742 21.6826 48.6409 21.6557 48.6109C21.6493 48.6034 21.6439 48.5948 21.6364 48.5873C21.586 48.5315 21.5323 48.4789 21.4765 48.4295C21.4411 48.3963 21.4035 48.3673 21.366 48.3372C21.3595 48.334 21.3542 48.3287 21.3477 48.3233C21.3445 48.319 21.3413 48.3147 21.3359 48.3115C21.2941 48.2804 21.2501 48.2482 21.2061 48.2192C21.1664 48.1934 21.1245 48.1666 21.0827 48.1441C21.0526 48.1269 21.0236 48.1119 20.9936 48.0958C20.9904 48.0947 20.9893 48.0926 20.9861 48.0915C20.9775 48.0883 20.971 48.0829 20.9635 48.0786C20.9228 48.0604 20.8852 48.041 20.8444 48.026C20.8058 48.0099 20.7661 47.9938 20.7264 47.9809C20.6877 47.967 20.647 47.9552 20.6062 47.9434C20.6019 47.9423 20.5976 47.9412 20.5922 47.9391C20.589 47.9391 20.5836 47.938 20.5804 47.9359C20.5482 47.9273 20.5171 47.9187 20.4849 47.9123C20.442 47.9037 20.4001 47.8951 20.3572 47.8897C20.3121 47.8833 20.2681 47.8779 20.2231 47.8747C20.2005 47.8715 20.178 47.8704 20.1554 47.8693C20.1308 47.8683 20.105 47.8683 20.0792 47.8672C20.0267 47.8672 19.9741 47.8693 19.9236 47.8736C19.8646 47.8779 19.8056 47.8865 19.7476 47.8951C19.6993 47.9037 19.6532 47.9133 19.606 47.9251L18.2227 48.2696C18.3976 48.2256 18.5822 48.2063 18.7721 48.2149C18.9191 48.2213 19.063 48.2439 19.2025 48.2825C19.3398 48.3201 19.474 48.3726 19.6028 48.437C19.6049 48.4381 19.607 48.4392 19.6092 48.4413C19.7337 48.5068 19.8517 48.5819 19.9633 48.6678C19.9698 48.6721 19.9751 48.6796 19.9805 48.6839C20.0846 48.7654 20.1812 48.8599 20.2713 48.9597C20.2971 48.9876 20.3196 49.0208 20.3443 49.0509C20.4033 49.1239 20.4591 49.2001 20.5117 49.2816C20.5665 49.3686 20.6137 49.4608 20.6598 49.5553C20.6856 49.61 20.7167 49.6615 20.7392 49.7184C20.7564 49.7581 20.7671 49.8021 20.7811 49.8429C20.8176 49.9491 20.8498 50.0543 20.8734 50.1659C20.8777 50.1831 20.8809 50.2024 20.8852 50.2196C20.912 50.3687 20.9303 50.5211 20.9313 50.6768C20.9346 50.9493 20.8959 51.209 20.8219 51.4494C20.75 51.6866 20.6405 51.9023 20.5053 52.0933C20.5021 52.0987 20.4989 52.1041 20.4946 52.1094C20.3862 52.2608 20.2488 52.3788 20.1071 52.4936C20.0567 52.5355 20.0084 52.5827 19.9526 52.6181C19.7766 52.7319 19.5877 52.8274 19.3806 52.8789L20.7639 52.5344C20.9721 52.4829 21.1621 52.3874 21.3391 52.2715C21.3928 52.2361 21.439 52.191 21.4894 52.1502C21.5602 52.0923 21.6396 52.045 21.704 51.9774C21.7555 51.9227 21.8038 51.8658 21.8511 51.8036C21.8607 51.7907 21.8704 51.7778 21.879 51.7628C21.8832 51.7585 21.8854 51.7531 21.8897 51.7478C21.9111 51.7167 21.9348 51.6855 21.9551 51.6533C21.9831 51.6083 22.011 51.5621 22.0367 51.5138C22.0592 51.4688 22.0818 51.4258 22.1022 51.3797C22.1215 51.3368 22.1397 51.2938 22.1558 51.2488C22.1719 51.2069 22.187 51.164 22.2009 51.121C22.202 51.1168 22.2031 51.1114 22.2041 51.1071C22.2052 51.1049 22.2063 51.1028 22.2073 51.0996C22.2181 51.0642 22.2288 51.0288 22.2374 50.9912C22.2492 50.9472 22.2589 50.9043 22.2674 50.8592C22.276 50.8152 22.2835 50.7701 22.29 50.725C22.2953 50.68 22.3007 50.6328 22.305 50.5845C22.3093 50.5362 22.3125 50.4868 22.3136 50.4374C22.3147 50.4009 22.3157 50.3655 22.3147 50.3258C22.3147 50.3097 22.3136 50.2947 22.3136 50.2786C22.3125 50.2207 22.3082 50.1659 22.3039 50.109C22.2964 50.0447 22.29 49.9813 22.2792 49.9191C22.2771 49.903 22.2717 49.888 22.2696 49.8697C22.2664 49.8526 22.2621 49.8365 22.2589 49.8182C22.2503 49.7742 22.2417 49.7291 22.231 49.6862C22.2138 49.6197 22.187 49.5564 22.1655 49.4909C22.1515 49.4544 22.1408 49.4115 22.1236 49.3707Z" fill="black"/>
<path d="M26.6709 53.8296L24.853 51.9204L24.8723 51.7391C24.9281 51.2089 24.9302 50.7185 24.8777 50.2377L24.8551 50.0413L26.6666 48.336C26.5239 47.8349 26.3479 47.3519 26.144 46.898L23.6821 46.8894L23.5598 46.7177C23.2722 46.3056 22.9492 45.9278 22.594 45.5876L22.462 45.4653L22.5821 42.7824C22.3782 42.6536 22.1668 42.5334 21.95 42.4207C21.7633 42.3284 21.5669 42.2318 21.3619 42.147L20.4777 43.1827C20.4219 43.1751 20.365 43.1666 20.3092 43.1623C20.2383 43.1558 20.1697 43.1526 20.101 43.1494C20.0162 43.1451 19.9325 43.144 19.8509 43.144C19.7254 43.143 19.6019 43.1451 19.4785 43.1505L17.8097 41.0234L16.4264 41.3679L18.0952 43.4971C18.3023 43.4853 18.5095 43.4842 18.7177 43.496C18.9859 43.5068 19.2575 43.5368 19.5333 43.5894L20.2931 43.3973L19.7404 44.0455L19.5139 44.0026C19.2575 43.9543 19.0063 43.9264 18.7541 43.9156C18.5556 43.906 18.3624 43.9081 18.1682 43.9156L17.9643 43.9253L16.332 41.8455C15.9199 41.9678 15.525 42.1256 15.1515 42.3145L15.2706 45.0028L15.1161 45.1283C14.9873 45.2324 14.8972 45.3655 14.7813 45.4782L12.6886 45.2313L11.3053 45.5769L13.7854 45.871L14.6031 45.666C14.4572 45.8227 14.2887 45.9568 14.161 46.1307L14.0236 46.3153L11.5907 46.0276C11.4931 46.2305 11.4029 46.444 11.316 46.6619C11.2355 46.898 11.1539 47.133 11.082 47.3723L12.9 49.2944L12.8774 49.4757C12.8206 49.9898 12.8195 50.492 12.8721 50.9739L12.8946 51.1714L11.0831 52.8637C11.2248 53.3628 11.4008 53.8478 11.609 54.3136L14.0386 54.3265L14.1556 54.4918C14.4615 54.921 14.7791 55.2848 15.129 55.6046L15.2663 55.7302L15.1322 58.4174C15.335 58.5451 15.5464 58.6653 15.7621 58.778C15.9585 58.8864 16.1646 58.9776 16.3513 59.0527L17.9697 57.1747L18.1886 57.208C18.4494 57.2498 18.7091 57.2788 18.9656 57.2895L19.1856 57.2949C19.1898 57.2949 19.1931 57.2949 19.1974 57.2949L18.0716 57.5771L16.4157 59.5002L17.7979 59.1525L19.4066 57.2874C19.4539 57.2852 19.5011 57.2852 19.5483 57.2831L19.7608 57.2659L21.3866 59.3543C21.7676 59.2448 22.1658 59.0871 22.5736 58.8821L22.4416 56.1949L22.5982 56.0682C22.9642 55.771 23.2786 55.4469 23.5641 55.0777L23.7025 54.8974L24.8734 55.0262L23.8163 55.2913C23.5126 55.6905 23.1702 56.0425 22.7893 56.3516L22.9245 59.0924C22.3815 59.3833 21.8127 59.6215 21.231 59.7685L22.6143 59.4219C23.196 59.277 23.7648 59.0399 24.3078 58.7469L24.1737 56.0071C24.3872 55.8311 24.589 55.6454 24.7779 55.4447C24.8938 55.3224 25.0011 55.1893 25.1084 55.0541L26.159 55.1711C26.2556 54.9661 26.3479 54.7558 26.4348 54.5454C26.5228 54.3136 26.6023 54.0743 26.6709 53.8296ZM23.1831 52.7897C22.4952 54.5755 20.8876 55.7291 19.0911 55.7291L18.9001 55.7248C18.2583 55.6969 17.6305 55.5263 17.036 55.2183C14.6868 54.0088 13.56 50.9567 14.5269 48.4197C15.2159 46.6329 16.8267 45.4793 18.6286 45.4793L18.8153 45.4825C19.4581 45.5104 20.087 45.6832 20.6859 45.9901C23.0307 47.1899 24.1844 50.2398 23.1831 52.7897Z" fill="black"/>
<path d="M26.5716 51.2314C26.5845 51.0833 26.592 50.9374 26.5963 50.7893C26.5974 50.7528 26.5963 50.7152 26.5963 50.6777C26.5963 50.6315 26.5963 50.5843 26.5963 50.5382C26.5963 50.4791 26.5974 50.4233 26.5963 50.3632C26.5931 50.2194 26.5834 50.0746 26.5716 49.9329C26.5673 49.8964 26.5641 49.8599 26.5598 49.8224L28.4003 48.0892C28.2908 47.6653 28.1449 47.251 27.9839 46.8411C27.9657 46.7917 27.9539 46.7402 27.9335 46.6919C27.8562 46.502 27.7725 46.3142 27.6834 46.1317L25.2055 46.1221C25.0026 45.8259 24.7816 45.5458 24.5433 45.2871C24.4285 45.1648 24.3126 45.0446 24.1902 44.9308L24.3126 42.2028C24.3061 42.1986 24.3008 42.1932 24.2954 42.19C24.143 42.0891 23.9874 41.9936 23.8275 41.9013C23.7535 41.8079 23.644 41.6695 23.6279 41.6684C23.6461 41.6319 23.7073 41.5504 23.8597 41.4409C24.6184 40.8388 28.5656 40.9183 30.0508 40.9451C30.4125 40.9515 30.7216 40.958 30.9491 40.958C31.0736 40.958 31.2807 40.9655 31.5468 40.9741C35.0304 41.091 37.4847 40.9708 38.134 39.9921C38.3422 39.6766 38.3636 39.2956 38.1887 38.9157C37.5298 37.4991 35.5766 37.5914 33.6878 37.6794C32.9548 37.7116 32.2133 37.7449 31.564 37.6966C32.6082 37.2544 33.3401 36.2199 33.3401 35.0137V29.3945C32.7606 29.974 31.8065 30.634 30.478 30.648C29.1504 30.663 28.4432 30.3797 27.5181 29.7862V35.0147C27.5181 36.0224 28.0322 36.9121 28.8113 37.4347C28.8993 37.5903 28.9991 37.7352 29.1204 37.8629C30.1163 38.92 31.9557 38.8331 33.7361 38.7504C35.274 38.6818 36.859 38.6056 37.2411 39.3986C37.1198 39.6025 36.3257 40.0619 31.5844 39.902C31.3022 39.8923 31.0822 39.8848 30.9502 39.8848C30.7269 39.8848 30.4264 39.8794 30.0723 39.8719C27.1275 39.815 24.172 39.8236 23.2169 40.5834C22.9153 40.7981 22.7232 41.0556 22.6266 41.325C22.6073 41.3185 22.5891 41.31 22.5708 41.3025L21.1875 41.648C21.4966 41.7607 21.7917 41.9013 22.0761 42.0419C22.3723 42.1975 22.6577 42.3638 22.9293 42.5463L22.808 45.2753C23.1857 45.6327 23.5227 46.0298 23.8232 46.4676L26.3012 46.4773C26.4139 46.7123 26.5104 46.9559 26.607 47.1995C26.7669 47.6052 26.9086 48.0173 27.018 48.4358L25.1765 50.169C25.2022 50.4148 25.214 50.6594 25.214 50.9052C25.214 50.9374 25.214 50.9717 25.214 51.005C25.2108 51.2529 25.1969 51.503 25.17 51.7541L27.0148 53.6933C26.929 54.0281 26.8302 54.349 26.7068 54.671C26.5834 54.9757 26.445 55.2805 26.2947 55.5735L27.678 55.2279C27.7585 55.0713 27.8347 54.9124 27.9077 54.7493C27.971 54.6087 28.0311 54.4671 28.0891 54.3254C28.0966 54.3082 28.103 54.2932 28.1095 54.276C28.162 54.1365 28.2093 53.9938 28.2554 53.8511C28.3059 53.6922 28.3531 53.528 28.3949 53.3628C28.396 53.3574 28.3971 53.351 28.3992 53.3456L26.5534 51.4074C26.5598 51.3484 26.5641 51.2894 26.5716 51.2314Z" fill="black"/>
<path d="M34.2368 45.6211L33.6852 45.6243L32.3008 45.9699L32.8535 45.9677L33.404 46.0192L33.9127 47.5592L34.1252 48.2192L35.5074 47.8726L35.296 47.2137L34.7873 45.6726L34.2368 45.6211Z" fill="black"/>
<path d="M37.883 50.1468L37.2906 49.8935L37.5525 49.2829L38.1513 47.8642C37.9957 47.6506 37.8272 47.4413 37.6491 47.2471C37.56 47.1494 37.4666 47.055 37.3711 46.9648L35.9867 47.3115C36.2733 47.5787 36.5351 47.8888 36.768 48.2097L36.1681 49.6295L35.9062 50.238L36.5008 50.4924L37.8659 51.0901L37.912 51.7018L37.8798 52.3082L36.5265 52.7857L35.9395 52.9875L36.2153 53.6217L36.8485 55.0963C36.797 55.1639 36.7401 55.2261 36.6864 55.2927C36.6188 55.3764 36.5502 55.4633 36.4783 55.5438C36.3548 55.6779 36.2261 55.8024 36.0898 55.9119L37.4752 55.5663C37.6019 55.4622 37.7231 55.3463 37.8401 55.2229C37.9753 55.078 38.1063 54.9203 38.2265 54.7582C38.2297 54.755 38.2318 54.7539 38.235 54.7507L37.6008 53.2762L37.3239 52.6409L37.912 52.4402L39.2653 51.9615L39.2964 51.352L39.2503 50.7446L37.883 50.1468Z" fill="black"/>
<path d="M17.1136 50.5044C17.1254 51.598 17.9313 52.5177 18.9068 52.5596L18.9787 52.5628C19.3855 52.5628 19.7729 52.3996 20.0648 52.1013C20.4136 51.7493 20.6024 51.2524 20.596 50.703C20.5831 49.6051 19.7847 48.6747 18.8145 48.6339C18.8124 48.6339 18.8092 48.6328 18.8092 48.6328C18.3337 48.6328 17.9453 48.7992 17.6491 49.0996C17.3024 49.4527 17.105 49.9635 17.1136 50.5044Z" fill="black"/>
<path d="M36.4848 55.0594L35.4996 52.7746L37.5934 52.0449L37.6084 51.7025L37.5837 51.3784L35.4782 50.4684L36.4075 48.2866C36.2744 48.1128 36.1382 47.9518 35.9986 47.8091L33.98 48.7953L33.2009 46.4107L32.9079 46.3828L32.6847 46.3839L32.3713 47.3937L31.1318 46.7005L29.7463 47.0471L31.0642 47.7854L31.6319 48.1074L32.1932 47.9668L31.9592 48.7202L29.8912 47.5569C29.7646 47.6738 29.6412 47.8058 29.5263 47.9453L30.5265 50.2312L28.4081 50.961L28.3984 51.2936L28.4178 51.6274L30.5416 52.5417L29.6143 54.7246C29.7324 54.8759 29.8687 55.0315 30.0211 55.186L32.0419 54.2127L32.176 54.628L31.7113 54.7428L31.1522 55.0154L29.8504 55.6379L31.2348 55.2912L32.2404 54.8126L32.8221 56.5983L33.0946 56.623L33.3393 56.622L34.0616 54.2889L34.7999 54.7053L34.2043 54.8544L34.0058 55.4973L33.5357 56.9933L34.9212 56.6488L35.3912 55.1506L35.4202 55.0551L36.1274 55.4554C36.2455 55.3384 36.3667 55.2086 36.4848 55.0594ZM34.038 52.6705C33.7783 52.9324 33.4348 53.0783 33.0732 53.0783C32.2018 53.0418 31.5621 52.3336 31.5482 51.4621C31.545 51.0275 31.7006 50.6283 31.985 50.3385C32.2458 50.0756 32.5892 49.9318 32.9508 49.9318L33.0174 49.9329C33.2245 49.9425 33.4209 49.9983 33.599 50.0895L32.63 50.331C32.4701 50.3718 32.3338 50.4652 32.2114 50.5789C32.1953 50.5929 32.1728 50.5939 32.1588 50.609C32.1363 50.6358 32.1095 50.6658 32.0869 50.6959C32.0816 50.7034 32.0762 50.712 32.0719 50.7184C32.0698 50.7184 32.0698 50.7195 32.0698 50.7195C32.058 50.7367 32.0472 50.7528 32.0343 50.7699C32.0204 50.7935 32.0064 50.8161 31.9936 50.8397C31.9818 50.8622 31.971 50.8848 31.9624 50.9073C31.9528 50.9277 31.9421 50.9492 31.9345 50.9728C31.926 50.9932 31.9184 51.0146 31.912 51.0372C31.912 51.0393 31.9109 51.0415 31.9109 51.0447L31.9077 51.0457C31.9034 51.0661 31.8981 51.0833 31.8927 51.1026C31.8862 51.1252 31.882 51.1466 31.8766 51.1681C31.8734 51.1906 31.8691 51.2132 31.8659 51.2346C31.8616 51.2572 31.8583 51.2808 31.8562 51.3033C31.8551 51.328 31.8541 51.3516 31.853 51.3774C31.853 51.3967 31.853 51.4138 31.853 51.4321C31.853 51.4396 31.853 51.4493 31.853 51.4568C31.8541 51.4836 31.8551 51.5126 31.8583 51.5405C31.8616 51.5716 31.8659 51.6038 31.8723 51.6349C31.8777 51.6757 31.8862 51.7111 31.8948 51.7497C31.9077 51.7948 31.9238 51.8388 31.9399 51.8796C31.941 51.8882 31.9442 51.8946 31.9463 51.9021C31.9485 51.9107 31.9528 51.9204 31.9571 51.9268C31.9903 52.0073 32.0301 52.0824 32.0762 52.1511C32.1062 52.194 32.1395 52.2348 32.1728 52.2735C32.1728 52.2735 32.1749 52.2756 32.1782 52.2777C32.1824 52.2831 32.1857 52.2906 32.191 52.2949C32.2157 52.3228 32.2425 52.3507 32.2715 52.3733C32.293 52.3947 32.3166 52.414 32.3391 52.4323C32.3606 52.4484 32.3821 52.4634 32.4057 52.4795C32.425 52.4924 32.4454 52.5031 32.4668 52.516C32.4808 52.5267 32.498 52.5353 32.5141 52.5428C32.5162 52.5428 32.5173 52.5439 32.5173 52.5439C32.5205 52.545 32.5237 52.546 32.5269 52.5482C32.5473 52.5568 32.5656 52.5664 32.587 52.575C32.6063 52.5825 32.6257 52.5911 32.6461 52.5976C32.6664 52.6051 32.6868 52.6126 32.7062 52.619C32.7276 52.6233 32.748 52.6308 32.7695 52.6351C32.7909 52.6373 32.8124 52.6426 32.8328 52.6448C32.8553 52.648 32.8789 52.6512 32.9004 52.6534C32.9133 52.6544 32.9229 52.6544 32.9337 52.6544C32.9487 52.6555 32.9594 52.6555 32.9734 52.6555C33.0002 52.6555 33.027 52.6544 33.0517 52.6534C33.0818 52.6512 33.1107 52.6469 33.1408 52.6426C33.1633 52.6394 33.188 52.633 33.2116 52.6276L34.229 52.3733C34.1678 52.4741 34.1206 52.5858 34.038 52.6705ZM34.2762 52.3003C34.0004 52.2767 33.7514 52.1447 33.5647 51.9386C33.5593 51.9333 33.555 51.9268 33.5497 51.9204C33.4584 51.8131 33.3812 51.6907 33.3275 51.5544C33.3254 51.5501 33.3243 51.5437 33.3211 51.5362C33.2685 51.3956 33.2363 51.2443 33.2342 51.0865C33.232 50.9502 33.2545 50.8204 33.2878 50.7034L33.29 50.6991C33.3243 50.5811 33.379 50.4748 33.4466 50.3804C33.4488 50.3782 33.4509 50.3729 33.452 50.3707C33.4906 50.3171 33.5422 50.2795 33.5883 50.2355C33.6216 50.2055 33.6656 50.1936 33.701 50.1679C34.1485 50.448 34.4619 50.9502 34.4715 51.548C34.4758 51.8238 34.3943 52.0696 34.2762 52.3003Z" fill="black"/>
</g>
<defs>
<clipPath id="clip0_88_1429">
<rect width="60" height="60" fill="white"/>
</clipPath>
</defs>
</svg>
