<svg width="60" height="60" viewBox="0 0 60 60" fill="none" xmlns="http://www.w3.org/2000/svg">
<g clipPath="url(#clip0_88_1368)">
<path d="M30.1948 47.8731L30.1869 43.7402C29.5622 43.9029 28.9398 44.0599 28.3207 44.2046V47.7991L23.8603 45.1108C23.1784 45.2274 22.5055 45.3238 21.8359 45.4181L29.6037 50.1038V50.1229L29.6138 50.115L29.6306 50.1229V50.1038L38.2766 44.8887L36.786 44.0565L30.1948 47.8731Z" fill="black"/>
<path d="M29.1393 9.87891L12.4688 19.274L12.5416 19.3178V21.2053L12.6987 21.1145V27.2919L12.5416 27.3895V39.8127L13.8875 40.6247C14.686 40.6326 15.5025 40.6169 16.3414 40.5776L14.6748 39.5727L28.3194 33.2977V38.6923C28.9363 38.5353 29.5531 38.3749 30.1745 38.2022L30.1666 33.3426L33.4123 34.749L34.1896 33.3583L30.1644 31.6121L30.1599 29.9567L45.3803 20.8173V38.2101L43.8034 37.5248L43.025 38.9178L44.5279 39.5682L41.7656 41.1698L40.4006 43.6058L46.6913 39.8116V19.2482L46.6061 19.2976L46.6947 19.2404L29.1393 9.87891ZM28.3206 31.5492L13.8538 38.2033V20.8161L28.3206 29.5417V31.5492ZM28.3621 27.8874L14.5918 19.5892L28.3621 11.8461V27.8874ZM29.949 28.114V11.8068L44.5458 19.2953L29.949 28.114Z" fill="black"/>
<path d="M59.7441 20.0337C58.6742 16.5636 54.4202 14.4271 47.7639 14.0133C45.2135 13.854 42.3906 13.9639 39.4219 14.2992L43.8396 16.6545C45.1395 16.613 46.4046 16.6107 47.5979 16.6848C52.9824 17.0179 56.476 18.5263 57.1848 20.8221C57.7041 22.5022 56.7081 24.7553 54.3843 27.1655L56.31 29.0239C60.2006 24.9942 60.3228 21.9111 59.7441 20.0337Z" fill="black"/>
<path d="M36.2302 33.4846L34.9225 35.8208L37.7387 37.3965C36.2583 37.955 34.7509 38.49 33.2133 38.9622C25.6923 41.2849 18.3002 42.3593 12.3987 41.9982C7.0153 41.664 3.52171 40.1566 2.81178 37.8608C2.10409 35.5673 4.14192 32.3518 8.4004 29.0422C9.45576 28.2212 10.63 27.4227 11.8816 26.6455V23.5332C10.0053 24.6189 8.27254 25.7527 6.75847 26.9292C1.49509 31.0183 -0.814153 35.1815 0.255794 38.6515C1.32574 42.1204 5.58085 44.257 12.2338 44.6686C13.038 44.7168 13.8645 44.7415 14.7158 44.7415C20.4479 44.7415 27.1906 43.6222 34.0028 41.5182C35.4889 41.0595 36.9469 40.5458 38.3836 40.0086L37.0153 42.4524L39.3526 43.7601L42.9886 37.2642L36.2302 33.4846Z" fill="black"/>
<path d="M33.0267 15.3457C32.5007 15.4567 31.9747 15.5666 31.4453 15.6911V18.4468C33.3037 17.997 35.134 17.628 36.9195 17.3432L33.0267 15.3457Z" fill="black"/>
<path d="M20.443 21.9928C22.4719 21.1651 24.5882 20.398 26.7875 19.7206C26.9188 19.6802 27.0511 19.6466 27.1834 19.6062V16.8203C26.7875 16.937 26.3939 17.0413 25.998 17.1624C23.0607 18.0686 20.2389 19.1172 17.5977 20.278L20.443 21.9928Z" fill="black"/>
</g>
<defs>
<clipPath id="clip0_88_1368">
<rect width="60" height="60" fill="white"/>
</clipPath>
</defs>
</svg>
