<svg width="60" height="60" viewBox="0 0 60 60" fill="none" xmlns="http://www.w3.org/2000/svg">
<g clip-path="url(#clip0_88_1343)">
<path d="M11.7194 50.5284L19.8569 42.3922L18.7151 41.7043L9.89095 50.5297H6.78879V47.6901L7.48966 46.9905L9.17716 47.637L9.94138 46.8728L8.25259 46.225L9.3181 45.162L12.331 46.3207L13.0966 45.5564L10.0823 44.3978L11.1478 43.3349L12.8341 43.9814L13.5996 43.2172L11.9108 42.5681L12.9763 41.5038L14.6625 42.153L15.428 41.3875L13.7418 40.7409L14.806 39.6754L16.3022 40.2508L16.1392 40.1526C15.3647 39.687 14.8177 38.9603 14.519 38.1327L6.7875 45.8642V2.68359H0V57.3172H5.36638H6.78879H60V50.5284H11.7194ZM5.49569 4.99954H3.8444V6.08058H5.49569V7.58575H2.54612V8.66678H5.49569V10.172H3.8444V11.253H5.49569V12.7582H3.8444V13.8392H5.49569V15.3444H2.54612V16.4254H5.49569V17.9306H3.8444V19.0116H5.49569V20.5168H3.8444V21.5978H5.49569V23.103H3.8444V24.184H5.49569V25.6892H2.54612V26.7702H5.49569V28.2754H3.8444V29.3564H5.49569V30.8616H3.8444V31.9426H5.49569V33.4478H3.8444V34.5288H5.49569V36.034H2.54612V37.1151H5.49569V38.6202H3.8444V39.7013H5.49569V41.2064H3.8444V42.2875H5.49569V43.7926H3.8444V44.8737H5.49569V46.3788H2.54612V47.4599H5.49569V48.9651H3.8444V50.0461H5.49569V50.5284H5.36638V51.5513H3.8431V52.6323H5.36638V54.1375H3.8431V55.2185H5.36638V56.0241H1.2931V3.9767H5.49569V4.99954ZM58.7069 56.0241H57.6841V54.3728H56.603V56.0241H55.0978V53.0745H54.0168V56.0241H52.5116V54.3728H51.4306V56.0241H49.9254V54.3728H48.8444V56.0241H47.3392V53.0745H46.2582V56.0241H44.753V54.3728H43.672V56.0241H42.1668V54.3728H41.0858V56.0241H39.5806V54.3728H38.4996V56.0241H36.9944V53.0745H35.9134V56.0241H34.4082V54.3728H33.3272V56.0241H31.822V54.3728H30.7409V56.0241H29.2358V54.3728H28.1547V56.0241H26.6496V53.0745H25.5685V56.0241H24.0634V54.3728H22.9823V56.0241H21.4772V54.3728H20.3961V56.0241H18.8909V54.3728H17.8099V56.0241H16.3047V53.0745H15.2237V56.0241H13.7185V54.3728H12.6375V56.0241H11.1323V54.3728H10.0513V56.0241H8.54612V54.3728H7.46509V56.0241H6.78879V51.8215H58.7069V56.0241Z" fill="black"/>
<path d="M42.3826 18.0373L42.1653 18.2545L43.3589 18.8894L44.6183 17.6312L37.686 14.9648L37.0977 15.5519L40.1533 17.1799L42.3826 18.0373Z" fill="black"/>
<path d="M13.0191 36.0207L26.9252 44.4065V44.422L26.9342 44.4142L26.9471 44.422V44.4065L40.8519 36.0207V19.2608L40.7821 19.3009L40.8545 19.2543L26.5489 11.625L12.9609 19.2815L13.0204 19.3164L13.0191 36.0207ZM27.4075 42.5922L27.3842 30.7487L39.0868 35.8228L27.4075 42.5922ZM39.7851 34.7147L27.3829 29.3379L27.3803 27.9892L39.7851 20.5397V34.7147ZM27.2071 13.1961L39.1023 19.2996L27.2071 26.4866V13.1961ZM25.879 42.5315L14.7584 35.8241L25.879 30.7099V42.5315ZM25.914 13.2284V26.3017L14.6898 19.5388L25.914 13.2284ZM14.0872 20.5397L25.879 27.6517V29.2875L14.0872 34.7108V20.5397Z" fill="black"/>
</g>
<defs>
<clipPath id="clip0_88_1343">
<rect width="60" height="60" fill="white"/>
</clipPath>
</defs>
</svg>
