<svg width="68" height="69" viewBox="0 0 68 69" fill="none" xmlns="http://www.w3.org/2000/svg">
<g clipPath="url(#clip0_180_2924)">
<path d="M15.9296 61.0349C21.9996 56.6649 28.9596 50.955 35.1596 45.205C40.0396 49.685 45.7896 54.635 50.9496 58.755C65.3096 70.215 66.7496 68.775 67.3696 68.155C67.7396 67.785 68.3996 67.115 66.4296 63.575C67.0296 63.505 67.2696 63.215 67.3896 63.0149C67.6596 62.595 68.1496 61.965 65.8896 58.6749C66.9796 58.6549 67.3096 58.1749 67.4196 57.875C67.5796 57.395 67.8796 56.805 65.3396 53.8349C66.9596 53.8349 67.3996 53.135 67.4396 52.725C67.4996 52.205 67.5796 51.655 64.8096 49.095C66.9296 49.005 67.4996 48.0849 67.4596 47.5849C67.4096 47.0249 67.2196 46.5149 64.3696 44.485C66.8796 44.195 67.6296 43.035 67.4796 42.445C67.3496 41.915 66.9496 41.505 64.7996 40.345C66.9096 39.525 67.7396 37.9049 67.4996 37.305C67.2996 36.785 66.7296 36.445 64.8796 35.785C66.9696 34.6349 67.8596 32.825 67.5196 32.165C67.2696 31.685 66.6196 31.425 65.1396 31.115C67.0896 29.645 67.9896 27.725 67.5596 27.035C67.2996 26.605 66.6596 26.405 65.5096 26.295C67.2496 24.555 68.0896 22.605 67.5896 21.895C67.3296 21.535 66.7796 21.365 65.8996 21.335C67.4296 19.405 68.1796 17.455 67.6196 16.745C67.3496 16.405 66.7996 16.275 65.9896 16.295C67.4396 14.225 68.2696 12.345 67.6296 11.605C67.3996 11.335 66.9796 11.215 66.4196 11.215C67.6596 9.05495 68.3196 7.18495 67.6496 6.46495C67.4596 6.26495 67.1696 6.15495 66.7996 6.12495C67.8696 3.89495 68.3796 2.03495 67.6696 1.32495C66.2096 -0.135047 59.9596 3.22495 52.2796 8.74495C46.1896 13.115 39.2296 18.845 33.0196 24.615C29.1296 21.055 24.0396 16.565 19.0396 12.465C10.6696 5.60495 2.57959 -0.10505 0.839592 1.62495C0.629593 1.83495 0.529594 2.14495 0.529594 2.53495C0.529594 3.42495 1.05959 4.76495 1.94959 6.38495C1.83959 6.38495 1.73959 6.38495 1.63959 6.38495C1.26959 6.41495 0.989593 6.53495 0.809593 6.75495C0.629593 6.96495 0.559593 7.26495 0.589592 7.62495C0.659591 8.51495 1.3396 9.83495 2.4396 11.4249C2.0896 11.4049 1.77959 11.4249 1.51959 11.4749C1.1796 11.535 0.939598 11.6749 0.789596 11.8949C0.639595 12.1049 0.599601 12.3849 0.659599 12.7249C0.819602 13.6049 1.6596 14.8749 2.9696 16.3949C2.31959 16.3749 1.77959 16.4249 1.3996 16.5649C1.0896 16.665 0.8796 16.8249 0.759597 17.0349C0.649596 17.2449 0.6296 17.505 0.719596 17.8149C0.969596 18.665 1.9796 19.8449 3.4796 21.2049C2.5096 21.235 1.73959 21.3849 1.26959 21.6449C0.989593 21.7749 0.8096 21.955 0.729598 22.165C0.649596 22.3749 0.669593 22.6249 0.779593 22.905C1.11959 23.695 2.24959 24.715 3.88959 25.855C2.63959 26.025 1.65959 26.325 1.13959 26.7249C0.899596 26.8849 0.749595 27.085 0.699591 27.3049C0.649588 27.5149 0.699591 27.745 0.849593 27.995C1.26959 28.695 2.4396 29.5049 4.11959 30.3649C2.66959 30.7449 1.5396 31.2649 1.02959 31.8049C0.819594 32.005 0.699591 32.215 0.679595 32.435C0.659598 32.6449 0.739592 32.8649 0.919592 33.0849C1.38959 33.6649 2.51959 34.2549 4.09959 34.8249C2.56959 35.4649 1.3796 36.2149 0.909598 36.8949C0.729597 37.1249 0.639601 37.3549 0.659598 37.5749C0.679594 37.7849 0.779593 37.9849 0.989592 38.1749C1.47959 38.6249 2.46959 39.0049 3.83959 39.3249C2.33959 40.2349 1.17959 41.2049 0.789595 41.9849C0.639593 42.2549 0.579596 42.4949 0.639593 42.7149C0.689596 42.9249 0.829588 43.105 1.05959 43.2749C1.51959 43.5949 2.3296 43.8149 3.3996 43.9549C2.02959 45.085 0.979597 46.2249 0.679594 47.0749C0.559591 47.3749 0.539595 47.6349 0.619596 47.8649C0.699598 48.0749 0.869589 48.2449 1.12959 48.3749C1.51959 48.5749 2.1196 48.6949 2.8696 48.7349C1.6696 50.0349 0.76959 51.2749 0.559591 52.1649C0.469595 52.495 0.479589 52.7849 0.599592 53.0049C0.709592 53.2049 0.909589 53.3649 1.19959 53.4749C1.48959 53.585 1.8796 53.6349 2.3296 53.6449C1.3096 55.0449 0.569593 56.3449 0.439596 57.2549C0.379598 57.6149 0.419591 57.9249 0.569593 58.1449C0.709592 58.3449 0.939588 58.4949 1.26959 58.5749C1.42959 58.6149 1.6196 58.6349 1.82959 58.6449C0.969594 60.1149 0.37959 61.4349 0.319593 62.3449C0.289594 62.745 0.359594 63.0649 0.549596 63.2949C0.719594 63.495 0.989591 63.6249 1.33959 63.6749C1.34959 63.6749 1.36959 63.6749 1.37959 63.6749C0.669591 65.1849 0.19959 66.515 0.19959 67.4349C0.19959 67.8649 0.299588 68.2049 0.529591 68.4349C1.98959 69.8949 8.23959 66.5349 15.9196 61.0149L15.9296 61.0349ZM10.1596 21.755C8.7896 20.535 7.52959 19.3749 6.4296 18.3049C7.13959 18.5149 7.91959 18.7649 8.74959 19.0449C8.9696 19.2849 9.18959 19.525 9.40959 19.755C10.3496 20.765 11.3396 21.7949 12.3396 22.825C12.1796 22.775 12.0096 22.745 11.8596 22.685C11.5296 22.575 11.1896 22.4649 10.8596 22.3649C10.6296 22.1649 10.3896 21.945 10.1596 21.745L10.1596 21.755ZM58.7596 22.005C58.4796 22.035 58.1896 22.075 57.8996 22.105C58.0396 21.945 58.1896 21.785 58.3296 21.625C59.3196 20.525 60.0596 19.475 60.7896 18.715C61.0196 18.465 61.2596 18.205 61.4996 17.935C61.9996 17.815 62.4696 17.705 62.9096 17.605C61.7896 18.885 60.4196 20.335 58.8296 21.935C58.8096 21.955 58.7896 21.975 58.7596 21.995L58.7596 22.005ZM57.1696 35.635C56.7296 35.745 56.2796 35.855 55.8196 35.955C55.5796 35.8749 55.3296 35.795 55.0796 35.705C54.3296 35.425 53.5596 35.135 52.7796 34.845C53.8796 34.575 54.9096 34.2949 55.8596 34.0149C55.9896 33.9749 56.1096 33.925 56.2396 33.885C56.3296 33.905 56.4296 33.9249 56.5196 33.9449C57.8796 34.235 59.1396 34.525 60.2796 34.825C59.3296 35.095 58.2996 35.365 57.1796 35.645L57.1696 35.635ZM58.0196 47.985C59.4096 49.225 60.6896 50.395 61.8096 51.475C61.0696 51.255 60.2696 50.995 59.3996 50.705C59.1996 50.475 58.9996 50.255 58.7896 50.0149C58.3496 49.5249 57.8796 49.0349 57.3896 48.5149C56.9096 48.005 56.4196 47.485 55.9196 46.955C56.0796 47.005 56.2396 47.0449 56.3896 47.1049C56.7796 47.255 57.1296 47.3849 57.4896 47.5149C57.6596 47.665 57.8496 47.8349 58.0196 47.985ZM12.4196 42.8549C12.1896 42.8749 11.9696 42.8849 11.7496 42.9049C12.8296 42.1249 13.9996 41.3249 15.2296 40.5049C15.4196 40.5049 15.6096 40.5249 15.7896 40.5349C14.7996 41.3349 13.8796 42.0849 13.0096 42.8049C12.8196 42.8249 12.6096 42.835 12.4196 42.8449L12.4196 42.8549ZM13.0396 39.3949C14.0696 38.8649 15.1496 38.3249 16.2996 37.7849C16.4396 37.8149 16.5796 37.8349 16.7196 37.8749C16.8996 37.9149 17.0696 37.9549 17.2496 37.9949C16.3796 38.5249 15.5396 39.0349 14.7396 39.5349C14.5896 39.5249 14.4296 39.5049 14.2796 39.4949C13.8596 39.4549 13.4496 39.4249 13.0496 39.4049L13.0396 39.3949ZM14.2096 30.585C14.8596 30.585 15.5296 30.585 16.2096 30.585C16.8896 31.065 17.5696 31.535 18.2496 31.995C17.8296 32.035 17.4096 32.065 16.9896 32.105C16.0396 31.595 15.1196 31.085 14.2096 30.585ZM13.5996 27.4549C13.7396 27.475 13.8796 27.485 14.0196 27.505C14.3796 27.555 14.7596 27.615 15.1196 27.675C15.8996 28.345 16.6896 29.015 17.4696 29.675C17.1796 29.655 16.8996 29.625 16.6196 29.605C15.5896 28.885 14.5796 28.1649 13.5996 27.4549ZM55.1696 30.365C54.1596 30.885 53.0996 31.415 51.9796 31.945C51.6096 31.865 51.2296 31.795 50.8596 31.715C51.7096 31.195 52.5196 30.705 53.2896 30.235C53.3396 30.235 53.3896 30.235 53.4296 30.245C54.0196 30.295 54.5996 30.335 55.1596 30.365L55.1696 30.365ZM53.8296 36.305C53.0496 36.435 52.2396 36.555 51.4196 36.665C50.7596 36.325 50.0996 35.9949 49.4296 35.6549C50.0096 35.5149 50.5696 35.3749 51.1196 35.2449C52.0496 35.6049 52.9596 35.955 53.8396 36.305L53.8296 36.305ZM53.9596 39.185C53.3796 39.185 52.8096 39.185 52.2096 39.185C51.4896 38.655 50.7596 38.1149 50.0196 37.5849C50.3196 37.5649 50.6096 37.5349 50.8996 37.5149C51.9396 38.075 52.9596 38.635 53.9496 39.185L53.9596 39.185ZM20.0796 39.9649C20.3896 39.6049 20.7296 39.2349 21.0596 38.865C23.3396 39.3749 25.5796 39.8149 27.6396 40.0849C25.0696 40.1849 22.5296 40.115 20.0896 39.955L20.0796 39.9649ZM48.0896 29.815C47.7596 30.195 47.3996 30.595 47.0496 30.985C44.1796 30.475 41.2796 30.055 38.5596 29.835C38.5496 29.825 38.5396 29.815 38.5196 29.795C41.7596 29.535 44.9996 29.625 48.0796 29.815L48.0896 29.815ZM28.4496 32.115C28.8996 31.905 29.3396 31.685 29.7896 31.465C30.2396 31.315 30.6996 31.145 31.1496 30.985C31.6096 30.895 32.0596 30.805 32.5196 30.705C32.9696 30.685 33.4196 30.665 33.8596 30.635C34.0996 30.655 34.3396 30.685 34.5696 30.705C34.7996 30.725 35.0296 30.765 35.2596 30.795C35.6796 30.905 36.1196 31.045 36.5496 31.175C36.9696 31.365 37.3896 31.555 37.8096 31.755C38.2496 32.035 38.6796 32.315 39.1296 32.615C39.5596 32.975 39.9896 33.3549 40.4296 33.7349C41.0696 34.4049 41.7196 35.085 42.3796 35.795C41.9696 36.115 41.5496 36.435 41.1396 36.755C40.6696 37.045 40.1996 37.345 39.7296 37.635C39.2796 37.845 38.8396 38.0649 38.3896 38.2849C37.9396 38.435 37.4796 38.6049 37.0296 38.7649C36.5696 38.8549 36.1196 38.945 35.6696 39.045C35.2196 39.065 34.7696 39.085 34.3296 39.115C34.0896 39.095 33.8496 39.0549 33.6196 39.0349C33.3896 39.0149 33.1596 38.9749 32.9296 38.9449C32.5096 38.8349 32.0696 38.695 31.6396 38.565C31.1896 38.365 30.7396 38.1649 30.2896 37.9449C29.8896 37.685 29.4796 37.4149 29.0696 37.135C28.6496 36.785 28.2296 36.4249 27.8096 36.0549C27.1496 35.365 26.4896 34.6649 25.8096 33.9349C26.2196 33.615 26.6296 33.295 27.0496 32.975C27.5196 32.685 27.9896 32.385 28.4596 32.095L28.4496 32.115ZM24.8996 37.2549C24.2696 37.065 23.6396 36.8749 23.0196 36.6749C23.0896 36.5949 23.1596 36.5249 23.2296 36.4449C23.7996 36.7249 24.3496 36.995 24.8996 37.2549ZM43.0396 37.415C43.2596 37.345 43.4796 37.275 43.6996 37.2149C43.8296 37.3549 43.9596 37.4949 44.0896 37.6449C43.6096 37.7149 43.1196 37.775 42.6296 37.845C42.7696 37.705 42.8996 37.565 43.0396 37.415ZM44.8396 33.4449C43.7696 32.9549 42.7196 32.495 41.6796 32.055C42.8396 32.365 43.9996 32.715 45.1596 33.095C45.0596 33.205 44.9396 33.325 44.8396 33.4449ZM39.8796 30.745C42.0696 30.945 44.2696 31.275 46.4196 31.695C46.1996 31.935 45.9896 32.185 45.7696 32.425C43.7696 31.795 41.7896 31.215 39.8796 30.745ZM25.3396 32.145C25.0196 32.245 24.6996 32.335 24.3796 32.435C24.2896 32.335 24.1896 32.225 24.0996 32.125C24.5896 32.055 25.0696 31.995 25.5596 31.925C25.4896 32.005 25.4196 32.075 25.3396 32.155L25.3396 32.145ZM22.3096 37.4649C23.7496 37.9849 25.1396 38.4449 26.4696 38.8449C24.8896 38.6449 23.3096 38.3849 21.7696 38.0849C21.9496 37.8749 22.1296 37.675 22.3196 37.475L22.3096 37.4649ZM42.0696 38.4249C42.8796 38.2949 43.6996 38.1849 44.4996 38.0849C44.7796 38.3949 45.0596 38.7049 45.3396 39.0149C44.0896 38.9849 42.8296 38.9549 41.5596 38.9449C41.7296 38.775 41.8996 38.5949 42.0696 38.4249ZM26.2996 31.145C25.3796 31.285 24.4596 31.395 23.5296 31.495C23.2996 31.245 23.0796 30.995 22.8496 30.735C24.0996 30.765 25.3596 30.795 26.6296 30.805C26.5196 30.915 26.4096 31.025 26.2996 31.135L26.2996 31.145ZM41.0896 39.4249C42.6896 39.4249 44.2796 39.4849 45.8396 39.595C46.2996 40.1049 46.7496 40.6049 47.2096 41.1249C45.0196 40.735 42.7896 40.325 40.5596 39.9649C40.7396 39.7849 40.9096 39.6049 41.0896 39.4249ZM39.9796 28.505C43.5296 27.835 47.0196 27.505 50.2396 27.295C49.7996 27.815 49.3496 28.345 48.8996 28.865C45.9396 28.615 42.8696 28.405 39.9796 28.505ZM26.8596 30.575C25.3896 30.515 23.8796 30.365 22.3396 30.195C21.8796 29.6849 21.4196 29.165 20.9696 28.655C23.1596 29.045 25.3896 29.455 27.6196 29.815C27.3696 30.075 27.1096 30.325 26.8596 30.585L26.8596 30.575ZM19.3696 40.795C22.5696 41.0549 25.7696 41.275 28.6496 41.185C24.9396 41.925 21.2796 42.2749 17.9196 42.4949C18.3896 41.9349 18.8796 41.3649 19.3696 40.795ZM39.8596 40.665C39.9496 40.5749 40.0296 40.4949 40.1096 40.4049C42.7496 40.8049 45.4196 41.415 47.9796 42.005C48.6196 42.735 49.2596 43.4649 49.8896 44.205C46.5496 43.155 43.0396 41.975 39.6196 40.8949C39.6996 40.8149 39.7896 40.7349 39.8696 40.6549L39.8596 40.665ZM51.1196 26.235C47.1596 26.495 42.8296 26.755 38.8596 27.525C43.7096 25.845 48.4496 24.825 52.5596 24.005C52.7196 23.975 52.8696 23.935 53.0296 23.905C52.4196 24.675 51.7796 25.445 51.1296 26.235L51.1196 26.235ZM28.2996 29.105C28.1596 29.245 28.0196 29.385 27.8796 29.535C25.4196 29.055 22.7596 28.295 20.0596 27.625C19.4596 26.9449 18.8596 26.255 18.2696 25.565C21.6096 26.615 25.1196 27.795 28.5396 28.875C28.4596 28.955 28.3696 29.035 28.2996 29.115L28.2996 29.105ZM17.1096 43.4449C17.3996 43.4249 17.6696 43.385 17.9596 43.3649C21.8496 43.115 25.8996 42.8549 29.5096 42.185C24.4096 43.975 19.4096 45.0349 15.1396 45.8649C15.7796 45.0749 16.4296 44.2649 17.1096 43.4449ZM39.1296 41.3749C43.1396 42.5849 47.2696 44.2949 51.0996 45.6249C51.9396 46.615 52.7596 47.595 53.5696 48.565C53.4496 48.515 53.3396 48.4749 53.2196 48.4249C48.6396 46.505 43.5196 44.025 38.6996 41.775C38.8396 41.635 38.9796 41.505 39.1196 41.365L39.1296 41.3749ZM53.5996 46.4249C54.4296 47.2849 55.2396 48.1349 56.0196 48.965C56.2796 49.2449 56.5296 49.505 56.7896 49.7849C56.5996 49.715 56.3996 49.645 56.2096 49.575C55.3596 48.5349 54.4896 47.485 53.5996 46.4249ZM52.0596 42.915C52.1396 42.935 52.2096 42.9449 52.2896 42.9649C53.3996 43.9249 54.4996 44.885 55.5396 45.815C55.2296 45.745 54.9196 45.675 54.6096 45.595C53.7696 44.7149 52.9196 43.8149 52.0596 42.9249L52.0596 42.915ZM54.1496 42.2649C53.8496 42.2249 53.5396 42.1749 53.2296 42.1249C52.4396 41.415 51.6296 40.695 50.8196 39.975C50.9896 39.985 51.1596 40.005 51.3296 40.0149C52.4396 40.7849 53.5196 41.555 54.5696 42.315C54.4296 42.295 54.2896 42.2849 54.1496 42.2649ZM49.8696 39.145C49.6296 38.935 49.3796 38.7249 49.1396 38.5149C49.4496 38.7249 49.7696 38.9349 50.0796 39.1549C50.0096 39.1549 49.9396 39.1549 49.8696 39.1549L49.8696 39.145ZM49.1696 36.9649C48.7396 36.6549 48.2996 36.345 47.8696 36.045C47.9196 36.035 47.9796 36.0149 48.0296 36.005C48.5996 36.295 49.1796 36.595 49.7396 36.895C49.5496 36.9249 49.3596 36.945 49.1696 36.975L49.1696 36.9649ZM48.5196 35.1949C48.2096 35.0449 47.9096 34.8949 47.5996 34.7449C47.9496 34.5949 48.2896 34.4449 48.6296 34.3049C49.0596 34.4649 49.4996 34.6249 49.9296 34.7849C49.4596 34.9249 48.9996 35.065 48.5196 35.205L48.5196 35.1949ZM46.7796 34.3549C46.7796 34.3549 46.6896 34.315 46.6496 34.295C46.8896 34.1449 47.1296 33.995 47.3696 33.845C47.4696 33.8749 47.5596 33.915 47.6596 33.955C47.3696 34.095 47.0796 34.225 46.7796 34.365L46.7796 34.3549ZM48.3196 33.255C48.7996 32.955 49.2696 32.665 49.7396 32.385C50.0296 32.445 50.3096 32.515 50.5996 32.585C50.0096 32.865 49.4196 33.1349 48.8096 33.4249C48.6496 33.3749 48.4896 33.3149 48.3296 33.2649L48.3196 33.255ZM49.5996 31.445C49.5996 31.445 49.5596 31.445 49.5396 31.435C50.1396 30.955 50.7196 30.495 51.2796 30.045C51.4296 30.055 51.5696 30.075 51.7096 30.085C51.0196 30.535 50.3196 30.985 49.5996 31.455L49.5996 31.445ZM53.1396 27.095L53.1596 27.095C53.1096 27.135 53.0596 27.175 53.0096 27.225C53.0496 27.185 53.0896 27.145 53.1296 27.095L53.1396 27.095ZM54.0896 22.555C53.6596 22.635 53.2196 22.765 52.7796 22.855C48.1696 23.855 42.8596 24.895 38.0696 26.525C43.0696 24.055 47.9396 22.275 52.1396 20.855C53.1396 20.515 54.0896 20.165 55.0096 19.855C55.5396 19.675 56.0496 19.505 56.5496 19.345C55.7696 20.385 54.9596 21.445 54.0896 22.545L54.0896 22.555ZM28.9196 28.505C25.2996 27.245 21.1096 25.355 16.9496 23.995C16.1496 23.055 15.3696 22.115 14.5996 21.185C14.7196 21.235 14.8296 21.275 14.9496 21.325C19.5296 23.245 24.6496 25.725 29.4696 27.975C29.2896 28.155 29.0996 28.325 28.9296 28.505L28.9196 28.505ZM12.9396 21.355C13.4996 22.025 14.0596 22.6949 14.6296 23.3649C14.6296 23.3649 14.6096 23.3649 14.5996 23.3649C13.6096 22.3349 12.6496 21.315 11.7196 20.325C11.6096 20.2049 11.4996 20.095 11.3896 19.975C11.5796 20.0449 11.7696 20.115 11.9696 20.185C12.2896 20.575 12.6096 20.965 12.9396 21.355ZM13.6596 24.1949C14.4896 25.045 15.3196 25.895 16.1496 26.735C16.0296 26.715 15.9096 26.685 15.7896 26.665C15.7696 26.665 15.7396 26.665 15.7196 26.665C14.6596 25.745 13.6396 24.8449 12.6396 23.9549C12.9796 24.0349 13.3196 24.1149 13.6596 24.1949ZM17.4296 28.025C17.6796 28.275 17.9296 28.525 18.1896 28.775C17.8796 28.515 17.5796 28.255 17.2796 27.995C17.3296 27.995 17.3896 28.015 17.4396 28.025L17.4296 28.025ZM18.6196 30.625C19.1096 31.035 19.5896 31.435 20.0696 31.835C20.0096 31.835 19.9496 31.845 19.8896 31.855C19.2796 31.445 18.6796 31.035 18.0796 30.625C18.2596 30.625 18.4396 30.625 18.6096 30.635L18.6196 30.625ZM19.3596 32.745C19.7396 33.0049 20.1096 33.2549 20.4796 33.5049C20.2896 33.5549 20.0996 33.6049 19.9096 33.6549C19.4096 33.3949 18.9196 33.135 18.4196 32.875C18.7296 32.8349 19.0396 32.795 19.3496 32.755L19.3596 32.745ZM21.3296 34.065C21.4696 34.155 21.6196 34.2549 21.7596 34.3449C21.6796 34.385 21.5996 34.4149 21.5196 34.4449C21.3296 34.3549 21.1496 34.2649 20.9596 34.1649C21.0796 34.1249 21.2096 34.0949 21.3296 34.0549L21.3296 34.065ZM20.3296 34.9649C20.0096 35.1049 19.6796 35.2549 19.3596 35.385C18.9796 35.245 18.5996 35.1149 18.2296 34.975C18.6796 34.8449 19.1196 34.705 19.5796 34.5749C19.8296 34.705 20.0796 34.8349 20.3296 34.9649ZM21.2696 35.4449C21.2696 35.4449 21.3096 35.465 21.3196 35.475C21.1096 35.605 20.8896 35.7449 20.6796 35.8749C20.6196 35.8549 20.5596 35.8249 20.4896 35.8049C20.7496 35.6849 20.9996 35.5649 21.2596 35.4449L21.2696 35.4449ZM19.6796 36.4849C19.2096 36.7749 18.7396 37.0649 18.2896 37.3349C18.0396 37.2749 17.8096 37.225 17.5596 37.1649C18.1396 36.8949 18.7196 36.6249 19.3096 36.3449C19.4296 36.3949 19.5496 36.4349 19.6696 36.4849L19.6796 36.4849ZM18.4996 38.3449C17.9196 38.8049 17.3496 39.2549 16.7996 39.6949C16.6796 39.6849 16.5696 39.6749 16.4496 39.6649C17.1196 39.225 17.7896 38.7849 18.4896 38.3449L18.4996 38.3449ZM13.7296 43.7649C13.7896 43.7649 13.8596 43.7549 13.9296 43.7449C12.9596 44.7449 12.0496 45.6949 11.2396 46.5749C11.1996 46.6149 11.1696 46.6549 11.1396 46.6949C10.8796 46.7449 10.6296 46.7949 10.3796 46.8349C10.6696 46.5549 10.9596 46.2749 11.2596 45.9949C12.0396 45.2749 12.8796 44.5249 13.7396 43.7749L13.7296 43.7649ZM14.1096 47.1749C15.5596 46.8349 17.0496 46.4349 18.6096 46.1049C22.4696 45.2949 26.5096 44.4149 30.1696 43.1949C24.9596 45.7749 19.8796 47.605 15.5596 49.045C14.7396 49.315 13.9496 49.605 13.1796 49.8649C12.6596 50.0449 12.1596 50.2049 11.6596 50.3649C12.4396 49.3249 13.2496 48.2649 14.1096 47.1649L14.1096 47.1749ZM37.1596 43.295C42.0096 46.245 47.3296 49.825 52.1596 52.555C53.2696 53.185 54.3596 53.645 55.2896 54.1949C57.2196 55.345 58.8396 56.215 60.1996 56.875C61.4096 58.4749 62.4896 59.955 63.3896 61.275C61.2396 60.245 58.1896 58.435 54.6796 56.165C53.9096 55.665 53.1096 55.145 52.2996 54.595C47.3796 51.265 41.9096 47.2349 36.9896 43.455C37.0396 43.405 37.0996 43.3549 37.1496 43.3049L37.1596 43.295ZM55.0996 52.735C54.3396 52.345 53.5596 51.9449 52.7696 51.505C48.0096 48.885 42.7196 45.6349 37.8496 42.6249C37.9496 42.525 38.0496 42.4249 38.1496 42.3249C42.9796 44.525 48.1296 47.415 52.7796 49.455C53.5496 49.795 54.3096 50.025 55.0096 50.2849C55.4996 50.8849 55.9996 51.4949 56.4696 52.0849C57.0696 52.8349 57.6496 53.5649 58.2096 54.2849C57.2296 53.8149 56.1896 53.295 55.0996 52.735ZM57.9496 51.715C57.9496 51.715 57.8896 51.645 57.8596 51.6049C58.2296 51.7749 58.5896 51.935 58.9296 52.075C60.3096 53.5849 61.5596 54.9949 62.6196 56.2649C62.0996 56.055 61.5396 55.8149 60.9396 55.555C60.0496 54.385 59.0596 53.115 57.9396 51.715L57.9496 51.715ZM57.9796 46.3349C57.5996 45.9949 57.2096 45.655 56.7996 45.295C56.0796 44.655 55.3396 43.9949 54.5896 43.325C55.1396 43.365 55.6696 43.3749 56.1596 43.415C56.6496 43.7649 57.1596 44.115 57.6296 44.455C58.8596 45.315 59.9996 46.155 61.0196 46.935C60.0896 46.775 59.0696 46.575 57.9696 46.3349L57.9796 46.3349ZM56.8096 42.4949C56.6196 42.3649 56.4196 42.235 56.2196 42.095C55.3396 41.475 54.4396 40.815 53.5196 40.135C53.8896 40.155 54.2596 40.165 54.6096 40.1749C54.9996 40.1749 55.3596 40.165 55.7196 40.135C56.2396 40.415 56.7496 40.685 57.2496 40.9449C58.3896 41.555 59.4496 42.145 60.4296 42.705C59.3296 42.665 58.1196 42.5949 56.7996 42.4949L56.8096 42.4949ZM56.7496 39.0349C56.5196 39.055 56.2896 39.075 56.0496 39.0849C55.9096 39.0149 55.7796 38.955 55.6496 38.8749C54.7196 38.365 53.7496 37.8549 52.7596 37.3349C53.6196 37.2549 54.4496 37.175 55.2396 37.065C55.3996 37.045 55.5496 37.0149 55.6996 36.985C56.0996 37.135 56.4996 37.275 56.8796 37.415C58.0596 37.845 59.1496 38.275 60.1596 38.685C59.1196 38.805 57.9796 38.915 56.7396 39.025L56.7496 39.0349ZM51.4096 34.325C50.8896 34.135 50.3796 33.9549 49.8496 33.7649C50.5696 33.4549 51.2596 33.165 51.9396 32.885C52.5896 33.035 53.2396 33.1949 53.8696 33.345C53.9996 33.3749 54.1196 33.395 54.2496 33.4249C53.3396 33.7249 52.3996 34.025 51.4196 34.325L51.4096 34.325ZM56.0696 32.795C55.5796 32.625 55.0396 32.585 54.4996 32.465C54.1596 32.385 53.7996 32.315 53.4496 32.235C54.5396 31.765 55.5496 31.325 56.4696 30.885C56.7496 30.755 57.0096 30.615 57.2596 30.465C58.4996 30.555 59.6496 30.675 60.6896 30.795C59.7496 31.235 58.7096 31.695 57.5796 32.175C57.0996 32.385 56.5896 32.585 56.0696 32.785L56.0696 32.795ZM55.5296 29.355C55.2896 29.305 55.0296 29.295 54.7796 29.285C55.6096 28.765 56.3896 28.265 57.0896 27.785C57.6296 27.425 58.0996 27.045 58.5396 26.695C59.5596 26.645 60.4996 26.625 61.3496 26.625C60.3596 27.285 59.2396 27.995 57.9896 28.755C57.5496 29.015 57.0996 29.285 56.6296 29.555C56.2696 29.485 55.9096 29.425 55.5196 29.345L55.5296 29.355ZM53.0396 29.195C52.8196 29.175 52.6096 29.165 52.3896 29.145C53.3496 28.375 54.2496 27.635 55.0896 26.945C55.3096 26.925 55.5396 26.905 55.7596 26.885C55.9996 26.865 56.2396 26.845 56.4696 26.835C55.4096 27.605 54.2496 28.395 53.0396 29.195ZM56.2496 25.965C56.7596 25.525 57.2596 25.105 57.7096 24.705C58.5896 23.925 59.2396 23.115 59.9096 22.535C60.7096 22.415 61.4496 22.305 62.1296 22.235C61.0596 23.175 59.8296 24.225 58.4196 25.345C58.1396 25.565 57.8596 25.785 57.5696 26.015C57.1496 26.005 56.7096 25.985 56.2596 25.975L56.2496 25.965ZM56.9396 23.745C56.1696 24.455 55.3396 25.195 54.4796 25.945C54.3996 25.945 54.3196 25.945 54.2396 25.955C55.2496 24.915 56.1696 23.945 57.0096 23.035C57.2896 22.985 57.5696 22.925 57.8396 22.875C57.5496 23.165 57.2396 23.445 56.9296 23.735L56.9396 23.745ZM57.3996 20.665C57.2696 20.805 57.1296 20.965 57.0096 21.105C57.6796 20.225 58.2896 19.405 58.8496 18.635C58.9696 18.605 59.0896 18.565 59.1996 18.535C58.6296 19.225 58.0296 19.935 57.3996 20.665ZM59.6396 17.545C60.2796 16.655 60.8496 15.845 61.3296 15.155C61.7696 14.515 62.2496 13.805 62.7396 13.065C63.0496 12.965 63.3496 12.865 63.6296 12.785C62.6696 14.145 61.4996 15.705 60.1096 17.435C59.9596 17.475 59.7996 17.515 59.6496 17.555L59.6396 17.545ZM59.6396 15.075C58.9696 16.045 58.2296 17.065 57.4596 18.115C56.3496 18.405 55.1696 18.715 53.8896 19.045C53.3196 19.195 52.7696 19.445 52.1896 19.655C47.5496 21.295 42.2696 23.175 37.4596 25.495C42.5396 22.275 47.4496 19.755 51.6896 17.745C52.7096 17.265 53.6796 16.785 54.6096 16.355C56.8096 15.335 58.7696 14.505 60.4596 13.865C60.1896 14.265 59.9096 14.665 59.6196 15.085L59.6396 15.075ZM53.3496 15.605C52.7696 15.845 52.2096 16.165 51.6196 16.445C47.0896 18.655 41.9996 21.235 37.2896 24.135C42.2896 20.305 47.0796 17.145 51.2596 14.615C52.2996 13.985 53.2896 13.395 54.2396 12.835C58.5696 10.315 62.0596 8.63495 64.2596 7.83495C63.4896 9.17495 62.5496 10.715 61.4196 12.425C59.1996 13.215 56.4796 14.315 53.3396 15.605L53.3496 15.605ZM31.0996 26.365C27.2596 23.965 22.4596 20.865 17.7196 18.125C16.0996 17.1949 14.4396 16.435 12.9396 15.585C11.2896 14.645 9.6796 13.8349 8.20959 13.185C6.9096 11.475 5.7496 9.88495 4.7896 8.48495C6.9396 9.51495 9.9996 11.3349 13.4996 13.595C14.2696 14.095 15.0596 14.615 15.8696 15.155C20.7896 18.485 26.2596 22.5149 31.1796 26.295C31.1596 26.315 31.1296 26.3349 31.1096 26.365L31.0996 26.365ZM13.0796 17.015C13.8296 17.405 14.6096 17.805 15.3996 18.235C20.1596 20.855 25.4496 24.1049 30.3196 27.115C30.2596 27.1749 30.2096 27.225 30.1496 27.285C26.3196 25.455 21.6696 23.045 17.0696 20.975C15.7496 20.385 14.4096 19.965 13.1696 19.465C12.5296 18.6749 11.8896 17.895 11.2796 17.1249C10.8296 16.5649 10.3996 16.015 9.9696 15.4649C10.9496 15.935 11.9896 16.455 13.0796 17.015ZM10.4196 18.2949C10.1096 18.1749 9.7996 18.055 9.4896 17.935C8.0196 16.335 6.6896 14.825 5.5596 13.485C6.06959 13.685 6.60959 13.9249 7.18959 14.1749C8.19959 15.5049 9.27959 16.895 10.4096 18.2949L10.4196 18.2949ZM10.1796 23.405C11.3296 24.405 12.5296 25.425 13.7296 26.465C13.1396 26.4349 12.5796 26.395 12.0396 26.335C11.5296 25.975 11.0096 25.605 10.5196 25.265C9.31959 24.415 8.19959 23.595 7.18959 22.825C8.09959 22.985 9.09959 23.185 10.1796 23.415L10.1796 23.405ZM11.3796 27.245C12.4696 27.985 13.5796 28.735 14.6896 29.515C13.9496 29.515 13.2396 29.595 12.5696 29.675C11.9996 29.365 11.4296 29.065 10.8896 28.775C9.77959 28.175 8.73959 27.5949 7.77959 27.0449C8.86959 27.085 10.0796 27.155 11.3796 27.255L11.3796 27.245ZM11.4296 30.6949C11.6696 30.6749 11.9096 30.655 12.1496 30.635C13.1796 31.155 14.2296 31.685 15.2796 32.255C15.0096 32.285 14.7296 32.305 14.4696 32.335C13.7796 32.415 13.1496 32.575 12.5496 32.745C12.1196 32.585 11.6896 32.425 11.2696 32.275C10.1196 31.845 9.0496 31.425 8.0596 31.015C9.08959 30.895 10.2096 30.785 11.4296 30.685L11.4296 30.6949ZM16.7896 33.0749C17.3596 33.385 17.9196 33.6849 18.4896 33.9849C17.9196 34.1249 17.3596 34.2749 16.7996 34.4149C15.9596 34.0849 15.1396 33.7649 14.3396 33.4449C15.1396 33.3149 15.9496 33.1949 16.7996 33.0749L16.7896 33.0749ZM15.2696 34.8049C14.7796 34.9349 14.2896 35.0549 13.8196 35.1849C13.1496 35.3649 12.5596 35.6149 11.9996 35.8649C11.8796 35.8449 11.7596 35.815 11.6496 35.7949C10.3196 35.515 9.08959 35.2149 7.9696 34.9249C8.8996 34.6649 9.9196 34.3949 11.0196 34.1149C11.4696 34.0049 11.9296 33.8949 12.4096 33.7849C13.3496 34.1149 14.3096 34.4449 15.2796 34.8049L15.2696 34.8049ZM16.8196 35.385C17.2596 35.5549 17.6996 35.725 18.1396 35.8949C17.4096 36.205 16.6996 36.5049 16.0096 36.8049C15.2996 36.635 14.6096 36.4649 13.9396 36.3049C14.8696 35.9949 15.8196 35.6949 16.8196 35.3949L16.8196 35.385ZM12.0996 36.9349C12.9096 37.1049 13.7396 37.2549 14.5896 37.4149C14.1096 37.6249 13.6296 37.8349 13.1696 38.0349C12.3596 38.3949 11.6596 38.8349 11.0196 39.2449C9.7596 39.1449 8.5996 39.0249 7.53959 38.8949C8.4696 38.4649 9.48959 38.0149 10.5996 37.5349C11.0796 37.3349 11.5796 37.1249 12.0896 36.9349L12.0996 36.9349ZM12.6396 40.3749C12.8496 40.3849 13.0696 40.3949 13.2796 40.4049C13.0296 40.5649 12.7596 40.725 12.5196 40.885C11.4196 41.585 10.5396 42.3449 9.74959 42.9949C8.70959 43.0449 7.74959 43.065 6.87959 43.065C7.85959 42.4149 8.96959 41.7149 10.1896 40.9649C10.5496 40.7449 10.9296 40.515 11.3096 40.2949C11.7496 40.3249 12.1896 40.3549 12.6396 40.3749ZM11.6296 43.9349C10.2496 45.135 9.20959 46.2949 8.28959 47.1649C7.49959 47.2849 6.76959 47.3849 6.10959 47.4549C7.1696 46.515 8.38959 45.4849 9.78959 44.3749C9.9396 44.2549 10.0896 44.135 10.2396 44.0249C10.6996 43.995 11.1696 43.9649 11.6496 43.9349L11.6296 43.9349ZM9.91959 48.0249C8.92959 49.175 8.10959 50.2149 7.39959 51.0249C7.19959 51.2549 6.98959 51.5049 6.77959 51.7549C6.25959 51.8849 5.7596 51.995 5.30959 52.0949C6.33959 50.9349 7.56959 49.6149 8.97959 48.1849C9.28959 48.1349 9.59959 48.0749 9.91959 48.0249ZM10.7796 49.065C10.8996 48.9349 11.0296 48.7949 11.1396 48.6549C10.4896 49.5149 9.88959 50.315 9.33959 51.065C9.22959 51.0949 9.10959 51.1349 8.99959 51.1649C9.55959 50.4849 10.1496 49.785 10.7796 49.065ZM8.21959 52.6249C7.7096 53.3449 7.24959 53.9949 6.84959 54.5749C6.41959 55.2049 5.93959 55.9149 5.45959 56.6449C5.14959 56.7449 4.85959 56.8349 4.5796 56.9149C5.44959 55.6849 6.49959 54.2849 7.71959 52.7449C7.87959 52.7049 8.0496 52.6549 8.21959 52.6049L8.21959 52.6249ZM8.54959 54.6449C9.14959 53.7849 9.7796 52.8949 10.4496 51.975C11.6596 51.5949 12.9396 51.1749 14.2796 50.6949C15.8696 50.1349 17.5096 49.4649 19.2296 48.8549C22.9996 47.5249 26.9596 46.045 30.5996 44.315C25.3596 47.635 20.2996 50.205 15.9696 52.2349C15.1296 52.6249 14.3296 53.0149 13.5496 53.3749C11.3696 54.3849 9.40959 55.2049 7.71959 55.8449C7.98959 55.4549 8.2596 55.0549 8.53959 54.6449L8.54959 54.6449ZM14.8296 54.135C16.4496 53.355 18.1196 52.4749 19.8696 51.6049C23.4896 49.8049 27.2796 47.8149 30.8396 45.6449C25.6596 49.615 20.6896 52.865 16.4096 55.4349C15.5596 55.9449 14.7296 56.4349 13.9396 56.9049C9.61959 59.4149 6.1396 61.0849 3.9396 61.8949C4.64959 60.6449 5.52959 59.2249 6.54959 57.6449C8.87959 56.8549 11.7196 55.6449 14.8396 54.1449L14.8296 54.135ZM66.4196 67.135C65.1696 67.615 59.0996 63.445 51.8596 57.685C46.8096 53.665 41.1996 48.8649 36.2596 44.3349C41.0996 48.0349 46.5896 52.2549 51.5596 55.6549C52.6996 56.4349 53.7896 57.095 54.7496 57.755C59.9696 61.335 62.9896 62.825 64.7696 63.345C65.8396 65.045 66.4496 66.305 66.4496 66.925C66.4496 67.005 66.4396 67.075 66.4196 67.135ZM66.4396 62.1549C66.2596 62.235 65.9596 62.2249 65.5696 62.125C64.8596 60.985 63.9296 59.615 62.7396 57.965C63.3796 58.1949 63.9296 58.365 64.4096 58.475C65.6596 60.115 66.4096 61.345 66.4596 61.945C66.4596 62.025 66.4596 62.0849 66.4396 62.145L66.4396 62.1549ZM66.4596 57.1749C66.1796 57.3349 65.5596 57.2649 64.6796 57.0149C63.8496 55.9249 62.7896 54.615 61.4496 53.055C62.4696 53.395 63.3296 53.615 64.0396 53.725C65.4796 55.255 66.3596 56.4149 66.4696 56.9949C66.4696 57.0649 66.4696 57.125 66.4696 57.1749L66.4596 57.1749ZM66.4596 52.025C66.4696 52.085 66.4796 52.145 66.4696 52.195C66.1196 52.445 65.1296 52.3549 63.6696 52.005C62.7196 50.995 61.5496 49.805 60.0996 48.385C61.5496 48.795 62.7396 49.0149 63.6996 49.0849C65.2996 50.4349 66.2996 51.485 66.4596 52.035L66.4596 52.025ZM66.4596 47.055C66.4796 47.115 66.4896 47.165 66.4896 47.205C66.1096 47.545 64.7296 47.515 62.6796 47.225C61.6296 46.335 60.3596 45.275 58.8096 44.025C60.7196 44.4449 62.2596 44.595 63.4696 44.555C65.1696 45.665 66.2496 46.555 66.4696 47.045L66.4596 47.055ZM66.4596 42.0849C66.4596 42.0849 66.4996 42.1749 66.4996 42.215C66.1096 42.6549 64.4196 42.805 61.8496 42.7649C60.7396 42.0249 59.3796 41.1349 57.7696 40.1049C60.5196 41.0149 62.6496 40.9949 64.1896 40.555C65.4296 41.1949 66.2296 41.735 66.4596 42.0849ZM66.4596 37.115C66.4596 37.115 66.5096 37.195 66.5096 37.235C66.1496 37.755 64.2596 38.2049 61.3196 38.5849C60.2096 38.0349 58.8896 37.3849 57.3396 36.6249C57.5796 36.5649 57.8096 36.505 58.0296 36.465C60.6896 37.0849 62.7896 36.755 64.3496 36.045C65.4696 36.455 66.2096 36.825 66.4596 37.1049L66.4596 37.115ZM66.4596 32.145C66.4596 32.145 66.5096 32.215 66.5296 32.245C66.2196 32.825 64.2796 33.625 61.1996 34.545C60.1696 34.205 58.9796 33.805 57.5796 33.3349C57.9296 33.1749 58.2596 33.035 58.5796 32.915C61.0496 33.145 63.0796 32.465 64.5996 31.475C65.5596 31.695 66.2096 31.925 66.4596 32.135L66.4596 32.145ZM66.4596 27.175C66.4596 27.175 66.5196 27.235 66.5396 27.265C66.2996 27.895 64.4796 29.025 61.4796 30.455C60.5496 30.295 59.4796 30.105 58.2596 29.885C58.5596 29.695 58.8496 29.515 59.1296 29.365C61.4396 29.195 63.4296 28.115 64.9196 26.815C65.6896 26.905 66.2196 27.025 66.4696 27.175L66.4596 27.175ZM66.4596 22.205C66.4596 22.205 66.5296 22.255 66.5596 22.275C66.3996 22.915 64.8096 24.295 62.1096 26.145C61.2896 26.125 60.3796 26.115 59.3396 26.085C59.4496 25.995 59.5696 25.905 59.6796 25.815C61.8296 25.195 63.7996 23.685 65.2596 22.045C65.8296 22.055 66.2396 22.105 66.4696 22.195L66.4596 22.205ZM66.4596 17.235C66.4596 17.235 66.5396 17.265 66.5696 17.285C66.4796 17.915 65.1996 19.415 62.9296 21.495C62.3096 21.565 61.6296 21.645 60.8796 21.735C62.4096 20.485 63.9896 18.835 65.2496 17.215C65.7996 17.165 66.2196 17.165 66.4596 17.225L66.4596 17.235ZM66.4596 12.265C66.4596 12.265 66.5496 12.285 66.5896 12.305C66.5696 12.915 65.5796 14.425 63.7696 16.585C63.3396 16.665 62.8796 16.765 62.3796 16.885C63.5596 15.465 64.7496 13.845 65.7296 12.305C66.0396 12.265 66.2896 12.255 66.4596 12.275L66.4596 12.265ZM66.4596 7.29495C66.5096 7.29495 66.5596 7.30495 66.5996 7.31495C66.6296 7.88495 65.8996 9.35495 64.4996 11.475C64.2096 11.545 63.8996 11.625 63.5796 11.725C64.4996 10.275 65.4196 8.74495 66.1696 7.30495C66.2796 7.29495 66.3796 7.28495 66.4596 7.29495ZM66.6196 2.33495C66.6896 2.87495 66.1696 4.27495 65.0896 6.31495C62.4296 6.98495 58.0596 9.21495 52.7796 12.185C52.1896 12.515 51.6096 12.895 51.0196 13.265C46.6696 15.935 41.8996 19.085 37.3796 22.455C43.4296 17.055 49.1096 12.635 53.8396 9.35495C60.6796 4.62495 65.4996 2.19495 66.6596 2.34495L66.6196 2.33495ZM1.7496 2.63495C2.9996 2.15495 9.0696 6.32495 16.3096 12.085C21.2396 16.005 26.6996 20.665 31.5496 25.105C27.7596 22.185 23.0196 18.565 18.3596 15.295C16.7096 14.145 15.0396 13.095 13.4896 12.055C9.5796 9.42495 5.9796 7.44495 3.5796 6.70495C2.2596 4.62495 1.5596 3.17495 1.7596 2.63495L1.7496 2.63495ZM1.7296 7.61495C1.9096 7.52495 2.22959 7.54495 2.63959 7.64495C3.47959 9.02495 4.5296 10.565 5.7196 12.205C5.1496 12.005 4.6096 11.8449 4.1096 11.7149C2.48959 9.63495 1.5796 8.14495 1.7196 7.60495L1.7296 7.61495ZM1.70959 12.5949C1.9696 12.445 2.52959 12.4949 3.3296 12.7149C4.3396 14.0549 5.5896 15.5549 6.97959 17.1249C6.14959 16.895 5.3796 16.715 4.6796 16.585C2.7496 14.595 1.62959 13.1349 1.70959 12.5949ZM1.6896 17.575C2.0096 17.345 2.8596 17.405 4.1096 17.675C5.2896 18.915 6.69959 20.2749 8.25959 21.7049C7.16959 21.475 6.12959 21.325 5.18959 21.255C2.99959 19.455 1.6696 18.095 1.6896 17.575ZM1.66959 22.5549C2.01959 22.245 3.16959 22.235 4.90959 22.4549C6.2196 23.5349 7.7696 24.7049 9.4496 25.915C8.0796 25.735 6.75959 25.6749 5.56959 25.7149C3.1896 24.2149 1.7196 23.0449 1.66959 22.5549ZM1.6496 27.5349C1.99959 27.1349 3.4096 26.9749 5.5796 26.9749C6.9896 27.8549 8.63959 28.7949 10.4096 29.745C8.8096 29.655 7.17959 29.775 5.72959 30.015C3.2996 28.8949 1.77959 27.9749 1.6496 27.5349ZM1.62959 32.515C1.95959 32.045 3.52959 31.635 5.9896 31.275C7.3896 31.905 8.99959 32.5549 10.7396 33.1949C10.5396 33.2349 10.3396 33.285 10.1496 33.2949C8.6296 33.425 7.0396 33.7849 5.60959 34.2449C3.2896 33.5349 1.8296 32.8849 1.63959 32.505L1.62959 32.515ZM1.60959 37.4949C1.88959 36.9649 3.49959 36.2649 6.0596 35.4649C7.3496 35.8449 8.8096 36.2049 10.3796 36.565C10.1096 36.675 9.83959 36.7749 9.5796 36.8449C8.1296 37.2149 6.58959 37.835 5.18959 38.5449C3.13959 38.195 1.83959 37.8049 1.59959 37.4949L1.60959 37.4949ZM1.58959 42.4749C1.80959 41.905 3.31959 40.9349 5.79959 39.6949C6.90959 39.8649 8.1496 40.015 9.4896 40.1349C9.33959 40.215 9.17959 40.315 9.02959 40.3849C7.58959 41.0249 6.00959 41.9749 4.59959 42.9949C2.91959 42.9049 1.84959 42.7149 1.58959 42.4849L1.58959 42.4749ZM1.56959 47.4549C1.7296 46.8649 3.03959 45.6849 5.29959 44.0849C6.17959 44.1149 7.15959 44.1149 8.21959 44.0849C6.81959 45.0249 5.24959 46.3049 3.8996 47.6149C2.6496 47.675 1.8296 47.6149 1.56959 47.4449L1.56959 47.4549ZM1.5496 52.4349C1.63959 51.8449 2.73959 50.5249 4.68959 48.6949C5.33959 48.6549 6.04959 48.5849 6.81959 48.4849C5.59959 49.6649 4.2996 51.065 3.1896 52.4349C2.3496 52.5349 1.78959 52.5349 1.5496 52.4349ZM1.52959 57.4149C1.55959 56.8349 2.4396 55.4549 4.05959 53.4949C4.5096 53.4349 4.99959 53.3449 5.51959 53.2449C4.47959 54.5649 3.42959 56.0049 2.52959 57.3949C2.05959 57.4749 1.70959 57.4849 1.52959 57.4249L1.52959 57.4149ZM1.5096 62.3949C1.4896 61.8349 2.1696 60.4449 3.4796 58.4349C3.7596 58.3849 4.05959 58.315 4.36959 58.2349C3.5096 59.6049 2.65959 61.035 1.94959 62.3849C1.76959 62.405 1.6196 62.4149 1.5096 62.3849L1.5096 62.3949ZM2.9796 63.4849C5.6796 62.8749 10.1496 60.6449 15.3196 57.5349C16.9696 56.5449 18.6796 55.445 20.4496 54.315C23.8296 52.155 27.3396 49.775 30.7096 47.275C24.6596 52.675 18.9796 57.085 14.2596 60.3649C7.46959 65.085 2.63959 67.515 1.48959 67.3649C1.42959 66.8249 1.9396 65.4649 2.9796 63.4749L2.9796 63.4849Z" fill="#1D4C29"/>
</g>
<defs>
<clipPath id="clip0_180_2924">
<rect width="67.81" height="67.78" fill="white" transform="translate(68 0.985352) rotate(90)"/>
</clipPath>
</defs>
</svg>
