<svg width="88" height="82" viewBox="0 0 88 82" fill="none" xmlns="http://www.w3.org/2000/svg">
<rect width="88" height="82" rx="14" fill="#1D4C29" fill-opacity="0.07"/>
<path d="M60.3046 41.9987L49.9838 40.5047L45.3678 31.1518C45.2422 30.8965 45.0475 30.6814 44.8059 30.5309C44.5643 30.3805 44.2854 30.3008 44.0007 30.3008C43.7161 30.3008 43.4372 30.3805 43.1956 30.5309C42.954 30.6814 42.7593 30.8965 42.6337 31.1518L38.0177 40.5047L27.6969 41.9987C27.4153 42.0393 27.1506 42.1579 26.9329 42.3412C26.7152 42.5245 26.5532 42.7651 26.4652 43.0357C26.3773 43.3064 26.3669 43.5962 26.4352 43.8725C26.5036 44.1487 26.6479 44.4003 26.8519 44.5987L34.3208 51.8797L32.5577 62.1589C32.5101 62.4389 32.5417 62.7268 32.6491 62.9898C32.7564 63.2528 32.9352 63.4806 33.1651 63.6474C33.3951 63.8142 33.6671 63.9134 33.9505 63.9337C34.2339 63.9541 34.5173 63.8948 34.7687 63.7625L44.0007 58.9119L53.2318 63.7625C53.4835 63.8953 53.7674 63.955 54.0512 63.9347C54.3351 63.9144 54.6076 63.815 54.8379 63.6477C55.0682 63.4804 55.247 63.252 55.3541 62.9884C55.4611 62.7247 55.4922 62.4363 55.4438 62.1558L53.6807 51.8797L61.1496 44.5997C61.3536 44.4013 61.4979 44.1497 61.5663 43.8735C61.6346 43.5973 61.6242 43.3074 61.5363 43.0367C61.4483 42.7661 61.2863 42.5255 61.0686 42.3422C60.8509 42.1589 60.5862 42.0403 60.3046 41.9997V41.9987Z" fill="#1D4C29"/>
<path d="M69.9253 25.5397C69.8374 25.2693 69.6757 25.0289 69.4583 24.8456C69.241 24.6623 68.9767 24.5436 68.6953 24.5027L63.3755 23.7298L60.9969 18.9097C60.8713 18.6543 60.6766 18.4392 60.435 18.2887C60.1934 18.1383 59.9145 18.0586 59.6299 18.0586C59.3452 18.0586 59.0663 18.1383 58.8247 18.2887C58.5831 18.4392 58.3884 18.6543 58.2628 18.9097L55.8832 23.7298L50.5644 24.5027C50.2836 24.5438 50.0198 24.6626 49.8028 24.8456C49.5859 25.0286 49.4244 25.2686 49.3365 25.5385C49.2487 25.8084 49.238 26.0975 49.3056 26.3731C49.3733 26.6488 49.5166 26.9001 49.7194 27.0986L53.5686 30.8565L52.6596 36.154C52.6113 36.434 52.6422 36.722 52.749 36.9854C52.8557 37.2488 53.034 37.477 53.2637 37.6444C53.4934 37.8118 53.7654 37.9115 54.0488 37.9324C54.3322 37.9533 54.6158 37.8945 54.8676 37.7627L59.6258 35.2612L64.3881 37.7627C64.6398 37.8952 64.9235 37.9546 65.2072 37.9342C65.4909 37.9137 65.7632 37.8143 65.9933 37.6471C66.2234 37.4799 66.4021 37.2516 66.5092 36.9881C66.6162 36.7245 66.6474 36.4363 66.5991 36.156L65.6901 30.8565L69.5403 27.0986C69.7433 26.9004 69.8869 26.6494 69.9549 26.374C70.0229 26.0985 70.0126 25.8096 69.9253 25.5397Z" fill="#1D4C29"/>
<path d="M33.1343 37.7627C33.386 37.8955 33.6699 37.9551 33.9538 37.9348C34.2377 37.9145 34.5102 37.8151 34.7404 37.6479C34.9707 37.4806 35.1495 37.2522 35.2566 36.9885C35.3637 36.7248 35.3948 36.4364 35.3463 36.156L34.4323 30.8585L38.2825 27.0986C38.4865 26.9002 38.6309 26.6487 38.6992 26.3724C38.7676 26.0962 38.7572 25.8063 38.6692 25.5357C38.5813 25.265 38.4193 25.0244 38.2016 24.8411C37.9839 24.6578 37.7192 24.5392 37.4375 24.4986L32.1187 23.7298L29.7391 18.9097C29.6135 18.6543 29.4188 18.4392 29.1772 18.2887C28.9356 18.1383 28.6567 18.0586 28.372 18.0586C28.0874 18.0586 27.8085 18.1383 27.5669 18.2887C27.3253 18.4392 27.1306 18.6543 27.005 18.9097L24.6264 23.7298L19.3066 24.5027C19.0257 24.5438 18.762 24.6626 18.545 24.8456C18.3281 25.0286 18.1666 25.2686 18.0787 25.5385C17.9909 25.8084 17.9802 26.0975 18.0478 26.3731C18.1155 26.6488 18.2588 26.9001 18.4616 27.0986L22.3108 30.8565L21.4028 36.154C21.3541 36.4344 21.3849 36.7229 21.4917 36.9868C21.5986 37.2506 21.7773 37.4793 22.0074 37.6467C22.2376 37.8142 22.5101 37.9139 22.7941 37.9344C23.078 37.9549 23.362 37.8954 23.6138 37.7627L28.372 35.2612L33.1343 37.7627Z" fill="#1D4C29"/>
</svg>
