<svg width="85" height="58" viewBox="0 0 85 58" fill="none" xmlns="http://www.w3.org/2000/svg">
<g clipPath="url(#clip0_180_2870)">
<path d="M70.6469 0.635271C69.9605 0.635271 69.2741 0.724247 68.5877 0.914911C66.9098 1.3725 65.4862 2.33854 64.5837 3.63505C63.6813 4.90614 63.3889 6.35519 63.7575 7.68984C64.5202 10.4862 67.9394 11.9861 71.3714 11.0455C74.8033 10.1049 76.9642 7.067 76.2015 4.2706C75.8329 2.92324 74.8415 1.84281 73.4178 1.20726C72.5662 0.825935 71.6256 0.635271 70.6469 0.635271ZM69.3122 11.9607C66.3887 11.9607 63.8211 10.3718 63.1347 7.85508C62.7152 6.32977 63.0457 4.69006 64.0499 3.26643C65.0413 1.85552 66.5921 0.800513 68.4097 0.304786C70.2274 -0.19094 72.0959 -0.0765417 73.6721 0.62256C75.2736 1.33437 76.3795 2.58004 76.799 4.10536C77.6633 7.23225 75.2864 10.6261 71.5239 11.6557C70.774 11.859 70.024 11.9607 69.3122 11.9607Z" fill="#1D4C29"/>
<path d="M64.5204 3.53338C63.8468 4.46128 63.5036 5.51629 63.529 6.58401C63.529 6.97804 63.5925 7.3848 63.7069 7.77883C64.0883 9.1389 65.0543 10.2193 66.3254 10.9057C67.7999 11.7065 69.6557 11.948 71.5369 11.554C72.4394 11.3633 73.2656 11.0455 73.9647 10.5752C74.7146 10.0668 75.2993 9.40583 75.7315 8.6686C76.4941 7.37208 76.7865 5.8849 76.3416 4.44857C75.9476 3.0885 74.9434 1.98265 73.5198 1.32168C72.6554 0.92764 71.7148 0.711554 70.7234 0.686132C70.037 0.673421 69.3379 0.749687 68.6388 0.914929C67.4185 1.20728 66.3381 1.75385 65.4738 2.51651C65.1179 2.82157 64.8001 3.16476 64.5204 3.54609V3.53338ZM63.9993 3.16476C65.0289 1.75385 66.6177 0.736976 68.4735 0.292093C70.3166 -0.140078 72.2233 0.0251637 73.8249 0.78782C74.3333 1.02933 74.7909 1.32168 75.1976 1.65216C76.0874 2.3894 76.7229 3.33001 77.028 4.39773C77.3839 5.6434 77.2568 6.91449 76.7611 8.0839C76.2145 9.40583 75.1976 10.5752 73.8249 11.376C73.4435 11.6048 73.0241 11.7955 72.5792 11.948C72.325 12.037 72.0453 12.126 71.7784 12.1895C71.0157 12.3802 70.2531 12.4565 69.5031 12.4437C66.5542 12.3929 63.9866 10.7278 63.1985 8.17287C62.8807 7.11787 62.8553 6.03744 63.1222 4.98243C63.2875 4.32146 63.5671 3.69862 63.9866 3.13934L63.9993 3.16476Z" fill="#1D4C29"/>
<path d="M64.6978 3.94081C63.986 4.88142 63.6555 5.98727 63.6936 7.13125C63.7063 7.55071 63.7699 7.95746 63.8843 8.37692C64.2783 9.78784 65.2698 10.9318 66.579 11.6945C68.0916 12.5842 70.011 12.8766 71.943 12.5715C72.909 12.419 73.7861 12.1266 74.5106 11.6436C75.286 11.1098 75.858 10.398 76.2774 9.58446C76.9893 8.21168 77.2308 6.64824 76.7223 5.12293C76.3029 3.75014 75.286 2.61887 73.8497 1.93248C72.9853 1.51302 72.0193 1.28422 71.0405 1.23338C70.3414 1.19525 69.6423 1.2588 68.9305 1.41133C67.6849 1.67826 66.579 2.1867 65.6892 2.92393C65.3206 3.229 64.9774 3.57219 64.6978 3.95352V3.94081ZM64.1893 3.57219C65.2571 2.16128 66.8714 1.18254 68.7907 0.801208C70.6719 0.41988 72.5913 0.648676 74.2437 1.47489C74.7521 1.72911 75.2224 2.03417 75.6419 2.39007C76.5444 3.15273 77.1926 4.13147 77.5231 5.22461C77.9044 6.50842 77.79 7.80493 77.3325 9.01247C76.7986 10.4107 75.8071 11.6309 74.4216 12.4444C74.0276 12.6732 73.5954 12.8766 73.1378 13.0291C72.8709 13.1181 72.5913 13.1944 72.3116 13.2579C71.5363 13.4359 70.7482 13.4994 69.9728 13.4486C66.9857 13.3469 64.4181 11.6182 63.5411 9.01247C63.1598 7.86849 63.0835 6.69908 63.3123 5.56781C63.4648 4.81786 63.7445 4.13147 64.1893 3.54677V3.57219Z" fill="#1D4C29"/>
<path d="M65.0675 4.80511C64.3303 5.75843 63.9871 6.91512 64.0507 8.12266C64.0761 8.55483 64.1396 8.987 64.2668 9.41918C64.6862 10.8809 65.7031 12.0758 67.0377 12.9147C68.6012 13.8934 70.5587 14.2493 72.5416 14.0332C73.5839 13.9188 74.5118 13.6646 75.2617 13.1562C76.0625 12.6096 76.6345 11.8215 77.0285 10.9318C77.6768 9.48273 77.8802 7.83031 77.3082 6.24144C76.8633 4.84324 75.8337 3.69925 74.3847 2.98744C73.5076 2.55527 72.5416 2.30105 71.5501 2.22479C70.851 2.17394 70.1265 2.22479 69.4147 2.3519C68.1436 2.58069 66.9996 3.051 66.0971 3.77552C65.7031 4.06787 65.3599 4.41107 65.0675 4.7924V4.80511ZM64.5591 4.42378C65.665 3.02558 67.3174 2.05954 69.2749 1.74177C71.1815 1.424 73.139 1.71635 74.8168 2.5934C75.338 2.87304 75.8083 3.19082 76.2405 3.55943C77.1556 4.36022 77.8293 5.35168 78.1725 6.48295C78.5793 7.79218 78.4776 9.13954 78.0581 10.3725C77.5497 11.8343 76.5709 13.1181 75.1727 13.957C74.766 14.1985 74.3211 14.4019 73.8508 14.5544C73.5712 14.6434 73.2915 14.7196 72.9992 14.7832C72.1984 14.9484 71.3976 14.9993 70.6095 14.923C67.597 14.7578 65.004 12.9782 64.0634 10.3217C63.6185 9.08869 63.4914 7.83031 63.6693 6.61006C63.7964 5.77114 64.0888 5.0339 64.5718 4.42378H64.5591Z" fill="#1D4C29"/>
<path d="M65.5636 6.06318C64.8009 7.02921 64.4578 8.22404 64.534 9.52056C64.5594 9.96544 64.6357 10.423 64.7628 10.8679C65.2077 12.3805 66.25 13.6389 67.6101 14.5414C69.2243 15.6091 71.2327 16.0286 73.2537 15.9014C74.3596 15.8252 75.3383 15.6091 76.1264 15.0752C76.9653 14.5032 77.5119 13.6643 77.8932 12.6983C78.4906 11.173 78.6432 9.44429 78.0076 7.76645C77.5373 6.35553 76.495 5.18613 75.046 4.44889C74.1562 3.9913 73.1902 3.71166 72.186 3.63539C71.4742 3.57184 70.7497 3.59726 70.0378 3.71166C68.7413 3.90232 67.5719 4.34721 66.644 5.05902C66.2373 5.35137 65.8814 5.69457 65.5763 6.07589L65.5636 6.06318ZM65.0552 5.68185C66.1991 4.28365 67.877 3.35575 69.898 3.08882C71.8428 2.83461 73.8257 3.1778 75.5417 4.13112C76.0628 4.42347 76.5459 4.75396 76.978 5.13528C77.9186 5.9615 78.5923 6.99108 78.9609 8.14778C79.3931 9.49514 79.3168 10.8679 78.9228 12.139C78.4398 13.677 77.4865 15.0117 76.0628 15.8633C75.6434 16.1175 75.1858 16.3209 74.7028 16.4607C74.4231 16.5497 74.1308 16.626 73.8257 16.6768C73.0122 16.8293 72.186 16.8675 71.3725 16.7658C68.3346 16.5497 65.7288 14.7066 64.6993 11.9992C64.1908 10.6645 64.0002 9.31718 64.1527 8.03338C64.2671 7.10548 64.5594 6.30469 65.0806 5.66914L65.0552 5.68185Z" fill="#1D4C29"/>
<path d="M66.1359 7.62664C65.3478 8.60538 64.9919 9.85105 65.0936 11.2238C65.1318 11.6814 65.208 12.1517 65.3478 12.622C65.8054 14.1855 66.8732 15.5074 68.2714 16.4734C69.9365 17.6301 72.0084 17.8462 74.0675 18.0623C75.237 18.1894 76.2793 17.8462 77.08 17.2997C77.9444 16.715 78.4782 15.8125 78.8341 14.7575C79.3807 13.1559 79.4951 11.3509 78.7706 9.59683C78.2749 8.1605 77.2071 6.97838 75.7581 6.21573C74.8683 5.74542 73.8896 5.44036 72.8727 5.33867C72.1482 5.24969 71.4237 5.27512 70.6991 5.36409C69.3772 5.52934 68.1824 5.93609 67.2291 6.62248C66.8096 6.90212 66.441 7.24531 66.1232 7.63935L66.1359 7.62664ZM65.6275 7.24531C66.7969 5.84711 68.5256 4.95734 70.5848 4.75397C72.5549 4.55059 74.576 4.95734 76.3174 5.97422C76.8512 6.27928 77.3343 6.63519 77.7791 7.02923C78.7325 7.89357 79.4316 8.94858 79.8129 10.1307C80.2705 11.5162 80.2069 12.9271 79.8383 14.2236C79.3807 15.8379 78.4401 17.2234 76.9911 18.1004C76.5589 18.3547 76.1013 18.558 75.5929 18.7106C75.3005 18.7996 74.9954 18.8631 74.6904 18.9139C73.8642 19.0665 73.0125 19.0665 72.1736 18.9521C69.1103 18.6852 66.4791 16.7785 65.3733 14.0202C64.8013 12.5966 64.5598 11.1603 64.6742 9.7875C64.7631 8.77062 65.0682 7.90628 65.6148 7.24531H65.6275Z" fill="#1D4C29"/>
<path d="M66.7201 9.46935C65.8939 10.4608 65.5507 11.7573 65.6651 13.1936C65.7032 13.6767 65.7922 14.1597 65.932 14.6427C66.415 16.257 67.5081 17.6425 68.9318 18.6848C70.635 19.9304 72.7832 20.1847 74.8678 20.5151C76.1007 20.7058 77.1939 20.3753 78.0328 19.8033C78.9226 19.1932 79.4564 18.2399 79.7869 17.1086C80.2826 15.4308 80.3462 13.5496 79.5581 11.7192C79.037 10.2701 77.9565 9.0626 76.4948 8.27452C75.5923 7.77879 74.6009 7.46102 73.5967 7.33391C72.8722 7.23222 72.1349 7.23222 71.3977 7.30849C70.0376 7.4356 68.8301 7.80421 67.8641 8.47789C67.4319 8.75753 67.0506 9.08802 66.7201 9.48206V9.46935ZM66.2116 9.07531C67.4192 7.6771 69.1733 6.82547 71.296 6.67294C73.3043 6.53312 75.3508 6.99071 77.1303 8.07114C77.6642 8.40163 78.1726 8.75753 78.6175 9.17699C79.5835 10.0668 80.2953 11.1599 80.7021 12.3674C81.1724 13.7911 81.147 15.2274 80.8038 16.5748C80.3843 18.2653 79.4437 19.7016 77.982 20.5914C77.5498 20.8583 77.0668 21.0617 76.5456 21.2015C76.2533 21.2905 75.9355 21.3541 75.6177 21.3922C74.7661 21.532 73.9017 21.5193 73.0501 21.3795C69.9614 21.0617 67.2921 19.0915 66.1227 16.2824C65.4871 14.7698 65.182 13.2445 65.271 11.7954C65.3346 10.6896 65.6524 9.7617 66.2371 9.07531H66.2116Z" fill="#1D4C29"/>
<path d="M67.2789 11.5033C66.4273 12.5075 66.0714 13.8421 66.2112 15.3674C66.2493 15.8631 66.351 16.3589 66.4909 16.8673C66.9866 18.5324 68.1179 19.9815 69.5669 21.0873C71.321 22.422 73.5327 22.727 75.6427 23.1592C76.9265 23.4134 78.0832 23.0957 78.9603 22.4983C79.8755 21.8627 80.3966 20.8585 80.7144 19.6383C81.1593 17.8969 81.172 15.9267 80.3203 14.0073C79.7738 12.5329 78.6806 11.3126 77.2189 10.4991C76.3037 9.99069 75.3122 9.64749 74.2954 9.49496C73.5581 9.36785 72.8209 9.36785 72.0837 9.4187C70.6982 9.50767 69.4652 9.85087 68.4738 10.5118C68.0289 10.7788 67.6221 11.122 67.2916 11.516L67.2789 11.5033ZM66.7832 11.1093C68.0162 9.71105 69.8211 8.88484 71.982 8.79586C74.0157 8.70688 76.1003 9.22803 77.9053 10.372C78.4518 10.7152 78.9603 11.0965 79.4052 11.5287C80.3839 12.4566 81.1211 13.5752 81.5406 14.8081C82.0363 16.2699 82.0236 17.7444 81.7186 19.1171C81.3245 20.884 80.4093 22.3711 78.9221 23.2736C78.4773 23.5533 77.9815 23.7566 77.4477 23.8965C77.1426 23.9727 76.8248 24.0363 76.4944 24.0744C75.63 24.2015 74.7403 24.1761 73.8632 24.0109C70.749 23.6422 68.0543 21.6085 66.8086 18.7612C66.1095 17.1597 65.7409 15.5327 65.7918 14.0073C65.8299 12.8125 66.1477 11.8338 66.7832 11.1093Z" fill="#1D4C29"/>
<path d="M67.749 13.6767C66.8719 14.6935 66.516 16.079 66.6686 17.6806C66.7194 18.1891 66.8084 18.7102 66.9736 19.2314C67.4948 20.9473 68.6388 22.4472 70.1259 23.6293C71.9309 25.053 74.1553 25.7648 76.3543 25.9427C77.7398 26.0571 78.9219 25.9427 79.8117 25.3326C80.7523 24.6843 81.2734 23.6166 81.5531 22.3201C81.9598 20.5024 81.909 18.4433 80.9938 16.4604C80.4218 14.9732 79.316 13.7402 77.8415 12.8886C76.9136 12.3547 75.9221 11.9988 74.8925 11.8209C74.1553 11.6811 73.4054 11.6556 72.6554 11.6938C71.2445 11.7446 69.9734 12.0624 68.9692 12.6979C68.4989 12.9649 68.0922 13.2953 67.749 13.7021V13.6767ZM67.2533 13.2826C68.5244 11.8844 70.3547 11.198 72.5792 11.0709C74.6383 10.9438 76.7483 11.6175 78.6041 12.825C79.1507 13.1809 79.6719 13.575 80.1295 14.0199C81.1336 14.9859 81.8709 16.1299 82.3157 17.3883C82.8369 18.8882 82.8496 20.388 82.57 21.799C82.2013 23.642 81.2989 25.1801 79.799 26.108C79.3414 26.3876 78.8329 26.6037 78.2737 26.7308C77.9559 26.8071 77.6381 26.8706 77.2949 26.9088C76.4179 27.0232 75.5154 26.9723 74.6002 26.7944C71.4606 26.3622 68.7277 24.2776 67.4185 21.3795C66.6559 19.6889 66.2237 17.973 66.2491 16.3714C66.2618 15.0876 66.5923 14.0453 67.266 13.3081L67.2533 13.2826Z" fill="#1D4C29"/>
<path d="M68.079 15.9137C67.1766 16.9433 66.8079 18.3796 66.9859 20.0447C67.0367 20.5659 67.1384 21.1125 67.3037 21.6463C67.8502 23.4131 69.0197 24.9766 70.5323 26.2222C72.3881 27.7476 74.6633 28.5229 76.9004 28.7644C78.3495 28.9297 79.5824 28.8534 80.5103 28.2052C81.4764 27.5315 81.9848 26.4129 82.2517 25.0274C82.6076 23.1462 82.506 20.9981 81.5272 18.9389C80.9298 17.439 79.8112 16.1806 78.3241 15.3036C77.3962 14.757 76.392 14.3757 75.3497 14.1723C74.5998 14.0197 73.8371 13.9816 73.0872 13.9816C71.6508 14.007 70.3543 14.274 69.3247 14.9095C68.8417 15.1637 68.4222 15.4942 68.0663 15.901L68.079 15.9137ZM67.5833 15.5196C68.8798 14.1087 70.761 13.4732 73.0236 13.3969C75.1209 13.3206 77.2563 14.0706 79.1376 15.329C79.6968 15.6976 80.218 16.1171 80.6883 16.5746C81.7052 17.5661 82.4678 18.7482 82.9254 20.032C83.472 21.57 83.4974 23.1081 83.2432 24.5444C82.9 26.4638 82.0102 28.0526 80.4849 28.9932C80.0146 29.2856 79.4935 29.5017 78.9215 29.6288C78.6037 29.705 78.2732 29.7559 77.9173 29.794C77.0275 29.8957 76.0996 29.8322 75.1717 29.6288C72.0067 29.1458 69.2484 26.9976 67.863 24.0487C67.024 22.2564 66.5537 20.4642 66.541 18.7736C66.541 17.3881 66.8715 16.295 67.5706 15.5324L67.5833 15.5196Z" fill="#1D4C29"/>
<path d="M68.2318 18.1511C67.2912 19.1934 66.9226 20.6678 67.1259 22.4219C67.1895 22.9685 67.2912 23.5151 67.4691 24.0744C68.0284 25.892 69.2359 27.519 70.774 28.8282C72.6679 30.4425 75.0067 31.2942 77.282 31.6119C78.8073 31.8153 80.0911 31.7772 81.0444 31.1162C82.0486 30.4298 82.5443 29.2477 82.7858 27.7732C83.1036 25.8158 82.9383 23.5913 81.8833 21.4432C81.2605 19.9179 80.1165 18.6468 78.642 17.7443C77.7014 17.1723 76.6846 16.7656 75.6423 16.5495C74.8923 16.3715 74.1169 16.3207 73.3543 16.308C71.8798 16.2953 70.5706 16.5368 69.5156 17.1469C69.0199 17.4011 68.5877 17.7316 68.2191 18.1383L68.2318 18.1511ZM67.7361 17.7443C69.058 16.3334 70.9773 15.6216 73.3034 15.7106C75.4262 15.7995 77.5997 16.4986 79.5064 17.8206C80.0657 18.2146 80.5995 18.6341 81.0698 19.1171C82.0994 20.1467 82.8748 21.3542 83.3578 22.6634C83.9298 24.2396 83.9806 25.8157 83.7518 27.2775C83.4468 29.2731 82.5697 30.9128 81.019 31.8662C80.536 32.1712 80.0021 32.3873 79.4174 32.5144C79.0869 32.5907 78.7437 32.6415 78.3878 32.6669C77.4726 32.7559 76.532 32.6669 75.5787 32.4381C72.3883 31.9043 69.5919 29.6926 68.1555 26.6928C67.253 24.8116 66.7192 22.9177 66.681 21.1635C66.6556 19.6891 66.9861 18.5324 67.7361 17.7443Z" fill="#1D4C29"/>
<path d="M68.1299 20.3375C67.1638 21.3925 66.7952 22.9179 67.0113 24.7355C67.0749 25.2948 67.1892 25.8668 67.3672 26.4388C67.9519 28.3073 69.1722 29.9979 70.7483 31.3833C72.6931 33.0866 75.0827 34.0272 77.4088 34.4085C78.9977 34.6628 80.3324 34.6501 81.3238 33.9637C82.3534 33.2518 82.8491 32.0189 83.0652 30.4682C83.3448 28.4471 83.1288 26.1337 81.9975 23.9093C81.3492 22.3713 80.1925 21.0748 78.7054 20.1469C77.752 19.5622 76.7352 19.13 75.6929 18.8885C74.9302 18.6978 74.1548 18.6216 73.3922 18.5961C71.8923 18.5453 70.5576 18.7614 69.4772 19.3461C68.9688 19.5876 68.5239 19.9181 68.1426 20.3248L68.1299 20.3375ZM67.6468 19.9308C68.9942 18.5199 70.9517 17.8462 73.3286 17.9987C75.4768 18.1385 77.6885 18.9012 79.6333 20.2867C80.2052 20.6934 80.7391 21.1383 81.2221 21.6341C82.2644 22.6891 83.0652 23.9347 83.5482 25.2694C84.1456 26.871 84.2219 28.4852 84.0185 29.9851C83.7389 32.057 82.8745 33.7476 81.3111 34.7263C80.8154 35.0314 80.2688 35.2475 79.6714 35.3746C79.3409 35.4508 78.985 35.5017 78.6291 35.5144C77.7012 35.5907 76.7352 35.5017 75.7564 35.2348C72.5406 34.6501 69.706 32.3875 68.2061 29.3242C67.2401 27.354 66.6427 25.3711 66.5791 23.528C66.5283 21.9645 66.8715 20.7443 67.6596 19.9308H67.6468Z" fill="#1D4C29"/>
<path d="M67.7239 22.4097C66.7325 23.4647 66.3511 25.0536 66.5926 26.9475C66.6689 27.5195 66.7833 28.1042 66.974 28.7016C67.5714 30.621 68.8298 32.3751 70.4313 33.8241C72.427 35.6164 74.8675 36.6459 77.2317 37.0908C78.8968 37.4086 80.2696 37.4086 81.2865 36.6968C82.3415 35.9596 82.8372 34.6757 83.0152 33.036C83.244 30.9387 82.977 28.5364 81.7822 26.2484C81.1085 24.685 79.9391 23.3757 78.4392 22.4351C77.4859 21.825 76.4563 21.3801 75.4013 21.1259C74.6259 20.9225 73.8506 20.8335 73.0752 20.7827C71.5499 20.6937 70.1898 20.8717 69.0967 21.4564C68.5755 21.6979 68.1052 22.0157 67.7239 22.4351V22.4097ZM67.2409 22.0029C68.6137 20.592 70.6093 19.9438 73.0498 20.1599C75.2361 20.3505 77.4732 21.1767 79.4434 22.6258C80.0154 23.0452 80.562 23.5028 81.0577 24.0113C82.1127 25.1044 82.9262 26.3755 83.4346 27.7356C84.0575 29.3753 84.1592 31.0277 83.9812 32.553C83.727 34.7012 82.8753 36.4426 81.2992 37.434C80.8035 37.7518 80.2315 37.9679 79.6213 38.095C79.2782 38.1713 78.9222 38.2094 78.5536 38.2221C77.613 38.2857 76.6216 38.1713 75.6301 37.8916C72.3888 37.2561 69.5162 34.93 67.9527 31.8158C66.9104 29.7566 66.2622 27.6847 66.1605 25.7654C66.0842 24.113 66.4401 22.8419 67.2536 21.9902L67.2409 22.0029Z" fill="#1D4C29"/>
<path d="M66.9739 24.2904C65.9443 25.3582 65.5757 26.9979 65.8299 28.9681C65.9062 29.5655 66.0333 30.1629 66.224 30.773C66.8468 32.7432 68.1306 34.5609 69.7576 36.0735C71.7914 37.9547 74.2954 39.0605 76.6978 39.569C78.4265 39.9376 79.8628 39.9503 80.9051 39.2258C81.9855 38.4758 82.4813 37.1285 82.6338 35.4125C82.8245 33.2516 82.494 30.7603 81.2356 28.3834C80.5365 26.8072 79.3544 25.4726 77.8545 24.5065C76.8885 23.8837 75.8589 23.4134 74.7912 23.1337C74.0158 22.9049 73.215 22.8033 72.4396 22.7397C70.8762 22.6126 69.4907 22.7651 68.3848 23.3244C67.8383 23.5532 67.368 23.8837 66.9739 24.3031V24.2904ZM66.4909 23.871C67.9018 22.4601 69.9356 21.8499 72.4142 22.1169C74.6259 22.3584 76.9012 23.2481 78.9095 24.7607C79.4942 25.1929 80.0408 25.6759 80.5365 26.1971C81.6169 27.3283 82.4431 28.6122 82.9643 30.0104C83.5998 31.6882 83.7397 33.3788 83.5744 34.9295C83.3583 37.1539 82.5194 38.9461 80.9178 39.9503C80.4094 40.2808 79.8247 40.4969 79.2019 40.6113C78.8459 40.6875 78.49 40.7257 78.1087 40.7384C77.1427 40.7892 76.1385 40.6621 75.1216 40.3571C71.8549 39.658 68.9441 37.281 67.3171 34.116C66.2113 31.9678 65.4995 29.7943 65.3723 27.7987C65.2707 26.0573 65.6266 24.7226 66.4909 23.8583V23.871Z" fill="#1D4C29"/>
<path d="M65.83 25.9305C64.7749 27.011 64.3936 28.6888 64.6733 30.7353C64.7622 31.3454 64.8893 31.9682 65.0927 32.5911C65.741 34.6121 67.0375 36.4933 68.7026 38.0695C70.7872 40.0397 73.3421 41.2345 75.7953 41.8065C77.6003 42.226 79.0747 42.2641 80.1552 41.5269C81.261 40.7515 81.7568 39.3533 81.8839 37.5483C82.0364 35.3112 81.6424 32.7436 80.3204 30.2904C79.5959 28.6888 78.4011 27.3415 76.8885 26.35C75.9097 25.7018 74.8674 25.2187 73.7997 24.9137C73.0116 24.6722 72.2108 24.5451 71.4228 24.4688C69.8339 24.3035 68.423 24.4179 67.2917 24.9772C66.7324 25.206 66.2494 25.5238 65.8427 25.9433L65.83 25.9305ZM65.3469 25.5111C66.7833 24.0875 68.8552 23.5155 71.3973 23.8587C73.6345 24.1637 75.9479 25.1043 77.9816 26.6805C78.5663 27.1381 79.1256 27.6211 79.634 28.1677C80.7272 29.3244 81.5661 30.6463 82.1127 32.0699C82.7736 33.7859 82.9262 35.5019 82.7991 37.1035C82.6084 39.4041 81.7822 41.2345 80.1552 42.2768C79.634 42.6073 79.0493 42.8361 78.3884 42.9505C78.0324 43.014 77.6511 43.0522 77.2698 43.0649C76.2911 43.103 75.2615 42.9632 74.2192 42.6327C70.927 41.8828 67.9781 39.4423 66.2875 36.2264C65.1054 33.9893 64.3428 31.7267 64.1902 29.6549C64.0504 27.8245 64.4318 26.4263 65.3342 25.5365L65.3469 25.5111Z" fill="#1D4C29"/>
<path d="M64.2155 27.2525C63.135 28.3456 62.741 30.0743 63.0461 32.197C63.135 32.8199 63.2749 33.4554 63.4782 34.1037C64.1392 36.1756 65.4739 38.1203 67.1771 39.76C69.3126 41.8319 71.9183 43.103 74.4096 43.7386C76.2781 44.2089 77.8162 44.2724 78.9093 43.5098C80.0533 42.7217 80.5363 41.2599 80.6253 39.3787C80.7397 37.078 80.2821 34.4215 78.8839 31.8793C78.1339 30.265 76.9137 28.8922 75.4011 27.8753C74.4096 27.2144 73.3673 26.7059 72.2996 26.3754C71.5115 26.1085 70.698 25.9814 69.91 25.8797C68.2957 25.6763 66.8593 25.7653 65.7026 26.2992C65.1307 26.5153 64.6349 26.8457 64.2155 27.2652V27.2525ZM63.7325 26.833C65.1942 25.4094 67.3169 24.8628 69.8973 25.2696C72.1725 25.6255 74.4986 26.6297 76.5832 28.2694C77.1806 28.7397 77.7399 29.2481 78.2611 29.8074C79.3669 31.0022 80.2313 32.3496 80.7905 33.7859C81.4769 35.54 81.6549 37.2941 81.5532 38.9211C81.4007 41.2981 80.5744 43.1793 78.9347 44.2343C78.4009 44.5775 77.8035 44.8063 77.1298 44.9207C76.7612 44.9842 76.3798 45.0224 75.9858 45.0224C74.9943 45.0478 73.952 44.8826 72.8843 44.5394C69.5668 43.7386 66.5797 41.2472 64.8256 37.9678C63.5799 35.6417 62.7537 33.2902 62.5758 31.1293C62.4105 29.21 62.8046 27.7482 63.7325 26.833Z" fill="#1D4C29"/>
<path d="M62.1053 28.1932C60.9867 29.2991 60.5927 31.0786 60.9232 33.2776C61.0122 33.9131 61.1647 34.5741 61.3808 35.2351C62.0672 37.3578 63.4145 39.3661 65.1559 41.0821C67.3295 43.243 69.9988 44.603 72.5283 45.2894C74.473 45.8233 76.0492 45.8995 77.1805 45.1115C78.3499 44.298 78.8329 42.7854 78.8964 40.8152C78.9727 38.4382 78.4516 35.7054 76.9898 33.0869C76.2144 31.4472 74.9815 30.0617 73.4562 29.0194C72.4647 28.333 71.4097 27.7992 70.3293 27.456C69.5285 27.1763 68.715 27.0238 67.9142 26.9094C66.2618 26.6679 64.8127 26.7314 63.6306 27.2399C63.0459 27.456 62.5375 27.7737 62.1053 28.1932ZM61.635 27.7737C63.1222 26.3501 65.283 25.8417 67.9269 26.312C70.2276 26.7187 72.5918 27.7865 74.7018 29.4897C75.2993 29.9727 75.8712 30.4939 76.3924 31.0786C77.511 32.2988 78.388 33.6843 78.9727 35.1461C79.6845 36.9383 79.8879 38.7306 79.8116 40.383C79.6845 42.8362 78.871 44.7683 77.2186 45.8487C76.672 46.1919 76.0619 46.4334 75.3755 46.5351C75.0069 46.5986 74.6129 46.6241 74.2061 46.6241C73.2019 46.6495 72.1342 46.4588 71.0411 46.0902C67.6981 45.2386 64.6729 42.6837 62.8552 39.3534C61.5333 36.9383 60.6563 34.4851 60.4529 32.2607C60.2622 30.2524 60.6563 28.7271 61.635 27.7865V27.7737Z" fill="#1D4C29"/>
<path d="M59.4246 28.7012C58.2806 29.8197 57.8865 31.6374 58.2297 33.9126C58.3314 34.5736 58.4839 35.2346 58.7 35.921C59.3991 38.0945 60.7846 40.1664 62.5514 41.946C64.7759 44.1958 67.496 45.6448 70.0763 46.3948C72.0847 46.9795 73.7116 47.0812 74.8811 46.2677C76.0759 45.4288 76.5589 43.8653 76.597 41.8188C76.6352 39.3784 76.0632 36.5438 74.5252 33.8618C73.7244 32.2094 72.4787 30.7985 70.9534 29.7307C69.9492 29.0316 68.8942 28.4724 67.8011 28.1037C66.9876 27.8114 66.1741 27.6334 65.3606 27.5063C63.6827 27.2267 62.2083 27.2521 61.0007 27.7606C60.4033 27.9639 59.8694 28.2817 59.4373 28.7139L59.4246 28.7012ZM58.9542 28.269C60.4669 26.8327 62.6658 26.3623 65.3606 26.8962C67.6867 27.3538 70.089 28.4851 72.2372 30.2519C72.8473 30.7603 73.4193 31.2942 73.9532 31.8789C75.0971 33.1373 75.9869 34.5482 76.5843 36.0354C77.3216 37.8657 77.5504 39.6834 77.4995 41.374C77.4105 43.9034 76.6097 45.8863 74.9319 46.9795C74.3853 47.3354 73.7498 47.5769 73.0507 47.6786C72.6694 47.7421 72.2753 47.7676 71.8559 47.7549C70.8263 47.7549 69.7458 47.5642 68.6273 47.1702C65.2589 46.2677 62.1955 43.6619 60.327 40.2681C58.9415 37.7641 58.0009 35.2219 57.7594 32.9085C57.5433 30.8112 57.9501 29.2223 58.967 28.2563L58.9542 28.269Z" fill="#1D4C29"/>
<path d="M56.55 28.6888C55.3806 29.8201 54.9739 31.6886 55.3425 34.0402C55.4442 34.7138 55.6094 35.4002 55.8255 36.0866C56.55 38.311 57.9609 40.4465 59.7532 42.2895C62.0284 44.6284 64.7867 46.1664 67.4179 46.9799C69.4897 47.6154 71.1803 47.7425 72.3624 46.9163C73.5827 46.0647 74.0657 44.4377 74.0784 42.3023C74.0784 39.7855 73.4428 36.8747 71.8413 34.1037C71.0151 32.4386 69.7567 31.0022 68.2186 29.9091C67.2018 29.1846 66.1341 28.6126 65.0409 28.2185C64.2274 27.9008 63.3885 27.7101 62.5877 27.5703C60.8844 27.2525 59.3718 27.2525 58.1643 27.7355C57.5542 27.9389 57.0076 28.2567 56.5627 28.6888H56.55ZM56.0797 28.2567C57.6177 26.8203 59.8676 26.3755 62.6131 26.9729C64.9774 27.4813 67.4052 28.6761 69.5787 30.5065C70.1888 31.0277 70.7863 31.5869 71.3201 32.1844C72.4768 33.4682 73.3793 34.9172 74.0021 36.4298C74.7648 38.2856 75.019 40.1541 74.9809 41.8701C74.93 44.4758 74.1292 46.5096 72.4387 47.6154C71.8794 47.984 71.2311 48.2128 70.5193 48.3145C70.138 48.3781 69.7313 48.4035 69.2991 48.3908C68.2568 48.3908 67.1509 48.1747 66.0197 47.7425C62.6258 46.7765 59.5244 44.1199 57.5923 40.6753C56.1306 38.0822 55.1391 35.4511 54.8722 33.0614C54.6307 30.8751 55.0374 29.2227 56.0924 28.244L56.0797 28.2567Z" fill="#1D4C29"/>
<path d="M54.6572 28.142C53.4497 29.286 53.0429 31.2054 53.437 33.6204C53.5514 34.3068 53.7039 35.0187 53.9454 35.7305C54.6953 38.0057 56.119 40.192 57.9493 42.1114C60.2627 44.5519 63.0846 46.1661 65.7538 47.0432C67.902 47.7423 69.6307 47.8821 70.8509 47.0305C72.0966 46.1534 72.5923 44.4756 72.5542 42.2639C72.5161 39.6709 71.817 36.6838 70.1518 33.8365C69.3002 32.146 68.0291 30.6969 66.4784 29.5784C65.4615 28.8411 64.3811 28.2437 63.2752 27.837C62.449 27.5065 61.6101 27.3031 60.7966 27.1379C59.0552 26.782 57.5299 26.7565 56.2969 27.2141C55.6614 27.4048 55.1148 27.7226 54.6572 28.1547V28.142ZM54.1869 27.7099C55.7503 26.2735 58.0383 25.8668 60.8347 26.5277C63.2244 27.087 65.6903 28.3454 67.8893 30.2393C68.5121 30.7732 69.1095 31.3452 69.6561 31.968C70.8255 33.29 71.7534 34.7644 72.389 36.3025C73.177 38.1964 73.4567 40.103 73.444 41.8444C73.4312 44.5264 72.6305 46.611 70.9145 47.7423C70.3425 48.1109 69.6815 48.3524 68.957 48.4541C68.563 48.5177 68.1435 48.5304 67.7113 48.5177C66.6563 48.505 65.5251 48.2634 64.3684 47.8186C60.9491 46.8017 57.8095 44.0815 55.8139 40.586C54.2886 37.904 53.2336 35.1712 52.9412 32.7053C52.6743 30.43 53.0938 28.714 54.1869 27.7099Z" fill="#1D4C29"/>
<path d="M52.9798 27.2014C51.7468 28.3581 51.3401 30.3283 51.7468 32.8196C51.8612 33.5187 52.0265 34.2432 52.268 34.9678C53.0306 37.2939 54.4924 39.5437 56.3482 41.5266C58.7124 44.0561 61.5851 45.7593 64.3052 46.6872C66.5169 47.4372 68.3092 47.6024 69.5548 46.7254C70.8386 45.8356 71.3217 44.0942 71.2581 41.7935C71.1818 39.1369 70.4192 36.0609 68.6778 33.1374C67.8007 31.4341 66.5169 29.9597 64.9662 28.8157C63.9366 28.053 62.8562 27.4429 61.7503 27.0107C60.9241 26.6675 60.0725 26.4387 59.2463 26.2481C57.4794 25.854 55.9287 25.7905 54.6703 26.2481C54.0221 26.426 53.4628 26.7438 52.9925 27.1887L52.9798 27.2014ZM52.5222 26.7565C54.1111 25.3074 56.4372 24.9388 59.2844 25.6634C61.6995 26.2862 64.2035 27.5954 66.4407 29.5529C67.0635 30.0995 67.6736 30.6969 68.2202 31.3324C69.4023 32.6798 70.3429 34.1924 71.0039 35.7558C71.8174 37.6879 72.1224 39.62 72.1352 41.3995C72.1479 44.1578 71.3725 46.2932 69.6311 47.4372C69.0464 47.8185 68.3727 48.06 67.6228 48.149C67.216 48.1998 66.7966 48.2253 66.3517 48.1998C65.2713 48.1744 64.1273 47.9202 62.9452 47.4499C59.5005 46.3822 56.3228 43.6112 54.2636 40.0521C52.662 37.2812 51.5562 34.4593 51.2384 31.9171C50.946 29.5402 51.3655 27.7734 52.5095 26.7438L52.5222 26.7565Z" fill="#1D4C29"/>
<path d="M51.4919 25.9302C50.2336 27.0996 49.8141 29.108 50.2463 31.6883C50.3607 32.4128 50.5386 33.15 50.7928 33.8873C51.5809 36.2642 53.0554 38.5776 54.9493 40.6368C57.3644 43.2552 60.2879 45.0475 63.0462 46.0389C65.3214 46.8524 67.1645 47.0304 68.4356 46.1279C69.7448 45.2127 70.2279 43.4205 70.1389 41.0308C70.0372 38.298 69.1983 35.133 67.3933 32.1332C66.4908 30.4045 65.1816 28.9173 63.6309 27.7479C62.5886 26.9725 61.5082 26.337 60.3896 25.8794C59.5507 25.5108 58.699 25.2693 57.8601 25.0659C56.0679 24.6337 54.4917 24.5447 53.2079 24.9769C52.5469 25.1549 51.9749 25.4726 51.4919 25.9175V25.9302ZM51.0343 25.4854C52.6486 24.0363 55.0256 23.6931 57.9237 24.4812C60.3769 25.1549 62.9064 26.5276 65.1689 28.5487C65.8045 29.1207 66.4146 29.7181 66.9739 30.3663C68.1687 31.7518 69.1347 33.2899 69.8084 34.8787C70.6473 36.8489 70.9778 38.8191 71.0159 40.6368C71.0668 43.4713 70.2914 45.6576 68.5373 46.8143C67.9399 47.2083 67.2535 47.4498 66.4908 47.5388C66.0841 47.5897 65.6519 47.6024 65.1943 47.577C64.1012 47.5388 62.9318 47.2719 61.737 46.7762C58.2669 45.6576 55.051 42.8231 52.9283 39.2132C51.2504 36.3532 50.0937 33.4424 49.7378 30.8112C49.4201 28.3453 49.8522 26.5149 51.0216 25.4599L51.0343 25.4854Z" fill="#1D4C29"/>
<path d="M50.1201 24.3799C48.8363 25.5493 48.4041 27.6212 48.8617 30.265C48.9888 31.0023 49.1668 31.7522 49.421 32.5149C50.2218 34.9427 51.7344 37.3196 53.6537 39.4423C56.107 42.1498 59.0813 44.0437 61.9032 45.086C64.2547 45.9631 66.1486 46.1537 67.4451 45.2385C68.7798 44.2979 69.2628 42.4548 69.1357 39.9889C68.9959 37.1925 68.0934 33.9385 66.2249 30.8625C65.297 29.1211 63.975 27.6085 62.4116 26.4136C61.3693 25.6128 60.2634 24.9646 59.1449 24.4816C58.2932 24.1002 57.4416 23.8333 56.6027 23.6172C54.7723 23.1469 53.1834 23.0325 51.8742 23.452C51.2005 23.6172 50.6031 23.935 50.1201 24.3799ZM49.6625 23.935C51.3022 22.4732 53.7173 22.1682 56.6662 23.0325C59.1449 23.757 61.7125 25.1934 64.0132 27.2907C64.6487 27.8754 65.2715 28.4982 65.8435 29.1592C67.0638 30.5828 68.0298 32.1463 68.7289 33.7606C69.5933 35.7689 69.9492 37.7772 70 39.6203C70.089 42.5311 69.3136 44.7682 67.5468 45.9503C66.9494 46.3444 66.2503 46.5986 65.4622 46.6876C65.0428 46.7384 64.6106 46.7511 64.153 46.713C63.0471 46.6622 61.865 46.3698 60.6321 45.8614C57.1365 44.692 53.8825 41.8066 51.6963 38.1331C49.9549 35.1842 48.7346 32.1844 48.3533 29.477C47.9974 26.9221 48.4423 25.0281 49.6625 23.9477V23.935Z" fill="#1D4C29"/>
<path d="M48.8358 22.6003C47.5138 23.7824 47.0944 25.9051 47.5647 28.6252C47.6918 29.3752 47.8824 30.1506 48.1494 30.9259C48.9756 33.4046 50.5009 35.8451 52.4584 38.0313C54.9624 40.8277 57.9876 42.8106 60.8476 43.9038C63.2627 44.8317 65.2074 45.0478 66.5421 44.1072C67.9022 43.1538 68.3979 41.2472 68.2327 38.6923C68.0547 35.8196 67.1014 32.4894 65.1566 29.3371C64.2033 27.5702 62.8686 26.0449 61.3052 24.8247C60.2502 24.0112 59.1443 23.3248 58.0131 22.8291C57.1614 22.4223 56.2844 22.1554 55.4454 21.9139C53.5897 21.3927 51.9754 21.2529 50.6407 21.6597C49.9543 21.8249 49.3442 22.13 48.8485 22.5875L48.8358 22.6003ZM48.3782 22.1554C50.0433 20.6936 52.5092 20.414 55.509 21.3419C58.0131 22.1172 60.6188 23.6171 62.9449 25.778C63.5932 26.3754 64.216 27.011 64.788 27.6973C66.021 29.1464 67.0124 30.7353 67.7242 32.3877C68.614 34.4341 68.9953 36.4679 69.0716 38.3491C69.1987 41.3362 68.436 43.6241 66.6438 44.819C66.0337 45.2257 65.3218 45.4799 64.5211 45.5562C64.1016 45.6071 63.644 45.6071 63.1864 45.5816C62.0678 45.5181 60.8603 45.213 59.6019 44.6792C56.081 43.4462 52.7762 40.51 50.5517 36.7857C48.7341 33.7477 47.4503 30.6463 47.0562 27.8626C46.6749 25.2187 47.1325 23.2612 48.3909 22.1681L48.3782 22.1554Z" fill="#1D4C29"/>
<path d="M47.565 20.6426C46.2177 21.8374 45.7855 23.9983 46.2812 26.8074C46.4211 27.5701 46.6117 28.3708 46.8787 29.1589C47.7303 31.6884 49.281 34.1924 51.2639 36.4423C53.8188 39.3404 56.8949 41.3995 59.793 42.5562C62.2716 43.5477 64.2672 43.7765 65.6273 42.8105C67.0128 41.8317 67.5085 39.8742 67.3178 37.2431C67.1018 34.2941 66.0849 30.8876 64.0765 27.6463C63.0978 25.8668 61.7504 24.316 60.1743 23.0704C59.1066 22.2315 58.0007 21.5324 56.8695 21.0112C56.0051 20.5917 55.1281 20.2994 54.2764 20.0452C52.3952 19.4859 50.7428 19.3207 49.4081 19.702C48.6963 19.8545 48.0862 20.1723 47.5778 20.6172L47.565 20.6426ZM47.1075 20.185C48.798 18.7232 51.3021 18.469 54.3527 19.4605C56.8949 20.2867 59.526 21.8501 61.8903 24.0745C62.5385 24.6847 63.1741 25.3456 63.7588 26.0447C65.0044 27.5319 66.0086 29.1462 66.7458 30.824C67.6483 32.9086 68.0678 34.9805 68.1695 36.8872C68.322 39.9505 67.5721 42.2893 65.7544 43.5096C65.1316 43.929 64.407 44.1705 63.5935 44.2595C63.1614 44.3104 62.7038 44.3104 62.2335 44.2595C61.0895 44.1832 59.8692 43.8655 58.5981 43.3062C55.0518 42.0224 51.7088 39.0353 49.4208 35.2475C47.5269 32.1206 46.1923 28.9301 45.7728 26.0702C45.366 23.3373 45.8236 21.3163 47.1202 20.1977L47.1075 20.185Z" fill="#1D4C29"/>
<path d="M46.28 18.5837C44.9072 19.7912 44.4624 22.0029 44.9835 24.8756C45.1233 25.6637 45.3267 26.4645 45.6063 27.278C46.4707 29.8583 48.0595 32.4259 50.0679 34.7393C52.6609 37.7264 55.7878 39.8745 58.7494 41.0948C61.2916 42.1498 63.3508 42.3786 64.7363 41.3998C66.1472 40.4084 66.6429 38.3873 66.4268 35.6672C66.1726 32.6547 65.0922 29.1592 63.0203 25.8416C62.0162 24.0494 60.6561 22.4732 59.0672 21.2021C57.9995 20.3505 56.8809 19.626 55.737 19.0794C54.8726 18.6472 53.9828 18.3295 53.1312 18.0625C51.2246 17.4651 49.5467 17.2745 48.1867 17.6431C47.4621 17.7956 46.8393 18.1007 46.3181 18.5583L46.28 18.5837ZM45.8351 18.1261C47.5511 16.6516 50.0933 16.4483 53.2075 17.5033C55.7751 18.3803 58.4444 20.0073 60.834 22.2953C61.495 22.9308 62.1306 23.5918 62.728 24.3036C63.9863 25.8162 65.0159 27.4686 65.7659 29.1719C66.6938 31.2946 67.1387 33.4046 67.2658 35.3367C67.4564 38.4763 66.7065 40.866 64.8761 42.0989C64.2406 42.5184 63.5033 42.7726 62.6771 42.8489C62.2322 42.8997 61.7746 42.8997 61.2916 42.8489C60.1349 42.7599 58.8893 42.4294 57.5928 41.8447C54.021 40.5101 50.6399 37.4594 48.2883 33.6207C46.3182 30.4049 44.9327 27.1254 44.4878 24.1765C44.0556 21.3547 44.5259 19.2701 45.8606 18.1261H45.8351Z" fill="#1D4C29"/>
<path d="M44.9198 16.4603C43.5089 17.6806 43.064 19.9431 43.5978 22.8921C43.7376 23.6929 43.9537 24.5191 44.2334 25.3453C45.1231 27.9765 46.7247 30.6076 48.7712 32.9973C51.4151 36.0733 54.5928 38.3104 57.5926 39.5942C60.1983 40.7001 62.3083 40.9543 63.7319 39.9629C65.181 38.946 65.6767 36.8741 65.4098 34.0777C65.1302 30.9889 63.9735 27.4045 61.8253 24.0106C60.7957 22.193 59.4229 20.6041 57.8341 19.3076C56.7536 18.4305 55.6224 17.6933 54.4784 17.134C53.6013 16.6764 52.7116 16.3459 51.8472 16.0663C49.9025 15.4308 48.2119 15.202 46.8264 15.5579C46.0892 15.6977 45.4536 16.0028 44.9198 16.4731V16.4603ZM44.4749 16.0028C46.2163 14.5283 48.8093 14.3503 51.9616 15.4689C54.5674 16.3968 57.2621 18.0873 59.6899 20.4389C60.3508 21.0871 60.9991 21.7735 61.5965 22.498C62.8676 24.0488 63.9226 25.7266 64.6853 27.4553C65.6386 29.6035 66.1089 31.7516 66.2487 33.7218C66.4775 36.9377 65.7403 39.3782 63.8845 40.6238C63.2362 41.056 62.4863 41.3102 61.6346 41.3865C61.1898 41.4246 60.7195 41.4246 60.2237 41.3865C59.0543 41.2848 57.7832 40.9289 56.4613 40.3188C52.8641 38.9333 49.4449 35.8318 47.0298 31.9296C44.9833 28.6374 43.547 25.2436 43.064 22.2311C42.6064 19.3203 43.0767 17.1722 44.4622 16.0028H44.4749Z" fill="#1D4C29"/>
<path d="M43.4326 14.3257C41.9962 15.5586 41.5513 17.872 42.0979 20.8845C42.2504 21.698 42.4665 22.5369 42.7589 23.3885C43.6614 26.0706 45.3011 28.7653 47.373 31.2185C50.055 34.3835 53.2963 36.7223 56.3342 38.0443C59.0162 39.2137 61.177 39.4806 62.6261 38.4637C64.1005 37.4214 64.5963 35.2987 64.3039 32.4133C63.9862 29.261 62.7659 25.5875 60.5542 22.1175C59.4992 20.2871 58.1137 18.6728 56.5121 17.3636C55.419 16.4738 54.2877 15.7111 53.131 15.1264C52.254 14.6561 51.3515 14.3002 50.4744 14.0079C48.5042 13.3342 46.7883 13.08 45.3773 13.4232C44.6274 13.563 43.9664 13.8681 43.4326 14.3257ZM42.9877 13.8553C44.7545 12.3682 47.3857 12.2283 50.6015 13.4232C53.2327 14.4019 55.9655 16.156 58.4188 18.5711C59.0924 19.2321 59.7407 19.9312 60.3508 20.6811C61.6473 22.27 62.7023 23.9733 63.4904 25.7274C64.4819 27.9136 64.9649 30.0999 65.1301 32.0955C65.3971 35.3877 64.6598 37.879 62.7913 39.1501C62.1431 39.595 61.3677 39.8492 60.5034 39.9255C60.0458 39.9636 59.5627 39.9636 59.067 39.9001C57.8722 39.7984 56.5884 39.417 55.241 38.7815C51.6184 37.3452 48.161 34.1928 45.6824 30.227C43.5724 26.8459 42.0725 23.3631 41.5641 20.2617C41.0683 17.2619 41.5641 15.0502 42.975 13.8553H42.9877Z" fill="#1D4C29"/>
<path d="M41.7689 12.2529C40.3072 13.4985 39.8496 15.85 40.4216 18.9515C40.5741 19.7777 40.8029 20.6421 41.0953 21.5064C42.0232 24.2393 43.6756 26.9975 45.7856 29.5143C48.5184 32.781 51.7979 35.1961 54.8993 36.5816C57.6449 37.8145 59.8566 38.0942 61.3311 37.0519C62.831 35.9969 63.3267 33.8106 63.0089 30.8489C62.653 27.6204 61.3692 23.8706 59.0939 20.3243C58.0135 18.4685 56.6026 16.8415 55.001 15.5069C53.9079 14.5917 52.7639 13.8163 51.5945 13.2062C50.7047 12.7232 49.8022 12.3545 48.9125 12.0368C46.9169 11.3122 45.1755 11.0453 43.7391 11.3631C42.9765 11.4902 42.3028 11.7953 41.7562 12.2656L41.7689 12.2529ZM41.3241 11.7826C43.1163 10.2954 45.7983 10.181 49.0523 11.4394C51.7089 12.4689 54.4799 14.2866 56.9585 16.7652C57.6449 17.4389 58.2931 18.1634 58.916 18.9261C60.2252 20.5404 61.3056 22.2818 62.1064 24.0613C63.1106 26.2857 63.6317 28.4974 63.8224 30.5312C64.1275 33.8996 63.3902 36.4418 61.4963 37.7256C60.8353 38.1704 60.0473 38.4374 59.1702 38.5009C58.7126 38.5391 58.2169 38.5263 57.7085 38.4755C56.5009 38.3611 55.1917 37.9671 53.8316 37.3061C50.1836 35.8062 46.6754 32.6031 44.1459 28.5864C41.9596 25.1163 40.4089 21.5445 39.875 18.3668C39.3539 15.2781 39.8496 13.0028 41.3113 11.7953L41.3241 11.7826Z" fill="#1D4C29"/>
<path d="M39.874 10.2833C38.3741 11.5416 37.9166 13.944 38.514 17.1217C38.6792 17.9734 38.908 18.8504 39.2004 19.7275C40.1537 22.5112 41.8315 25.333 43.967 27.9133C46.7507 31.269 50.0809 33.7731 53.2205 35.2221C56.0296 36.5186 58.2922 36.811 59.8048 35.7433C61.3301 34.6628 61.8385 32.4257 61.4699 29.3751C61.0759 26.0702 59.7412 22.2442 57.3897 18.6089C56.2839 16.7404 54.8602 15.088 53.2587 13.7279C52.1528 12.8 51.0088 11.9865 49.8394 11.3637C48.9369 10.8552 48.0217 10.4739 47.1447 10.1434C45.1237 9.38078 43.3441 9.07571 41.8951 9.38078C41.107 9.50789 40.4333 9.80024 39.874 10.2833ZM39.4292 9.81295C41.2468 8.31306 43.967 8.23679 47.2845 9.55873C49.9792 10.6392 52.7756 12.5204 55.2924 15.0626C55.9788 15.7617 56.6398 16.4862 57.2626 17.2616C58.5845 18.914 59.6777 20.6808 60.5039 22.4858C61.5335 24.7483 62.0928 26.9981 62.2961 29.07C62.6393 32.5147 61.9148 35.1077 59.9954 36.4042C59.3218 36.8618 58.521 37.1288 57.6312 37.1923C57.1609 37.2304 56.6652 37.2177 56.144 37.1542C54.9238 37.0271 53.5891 36.6076 52.2036 35.9339C48.5302 34.3832 44.9838 31.1292 42.3908 27.049C40.1283 23.4899 38.5267 19.8292 37.9674 16.5625C37.4208 13.3847 37.9293 11.0459 39.4292 9.81295Z" fill="#1D4C29"/>
<path d="M37.7009 8.46575C36.1756 9.73684 35.7053 12.1901 36.3281 15.4313C36.4933 16.2957 36.7221 17.1855 37.0399 18.0879C38.0059 20.9225 39.7092 23.8078 41.8828 26.4517C44.7046 29.8964 48.0857 32.4894 51.2762 34.002C54.1488 35.3494 56.4749 35.6672 58.0129 34.5867C59.5637 33.4809 60.0721 31.1929 59.6781 28.0533C59.2586 24.6849 57.8477 20.7572 55.4326 17.0583C54.3014 15.1644 52.865 13.4866 51.2507 12.1138C50.1322 11.1605 48.9755 10.3343 47.8061 9.686C46.9036 9.16485 45.9757 8.7581 45.0859 8.4149C43.0268 7.61412 41.2345 7.28363 39.7728 7.57598C38.972 7.69038 38.2856 7.99544 37.7136 8.46575H37.7009ZM37.2687 7.99544C39.1118 6.49555 41.8828 6.44471 45.2385 7.84291C47.9586 8.97419 50.7931 10.919 53.3353 13.5247C54.0344 14.2365 54.7081 14.9865 55.3309 15.7745C56.6656 17.4524 57.7841 19.2573 58.6231 21.0877C59.6781 23.3884 60.2628 25.6764 60.4916 27.7737C60.8729 31.2946 60.1484 33.9385 58.2163 35.2604C57.5299 35.7307 56.7291 35.9976 55.814 36.0485C55.3309 36.0866 54.8352 36.0612 54.3014 35.9976C53.0684 35.8578 51.721 35.4256 50.2974 34.7265C46.5985 33.125 43.014 29.8074 40.3702 25.6764C38.0314 22.0283 36.3789 18.2659 35.7942 14.9356C35.2222 11.6689 35.7307 9.26654 37.2814 8.00815L37.2687 7.99544Z" fill="#1D4C29"/>
<path d="M35.2087 6.87645C33.658 8.14755 33.1877 10.6643 33.8232 13.9819C33.9885 14.8589 34.23 15.7741 34.5477 16.6893C35.5392 19.5747 37.2679 22.5236 39.4669 25.2438C42.3395 28.7774 45.7715 31.4721 49.0128 33.0229C51.949 34.4338 54.326 34.7643 55.8894 33.6584C57.4783 32.5398 57.9867 30.1883 57.5545 26.9724C57.0969 23.5278 55.6225 19.5238 53.1311 15.7487C51.9744 13.842 50.5254 12.1388 48.8984 10.7406C47.7798 9.76184 46.6104 8.92292 45.4283 8.24924C44.5131 7.70267 43.5852 7.2832 42.6827 6.91459C40.5981 6.07567 38.7805 5.71976 37.2933 5.98669C36.4798 6.10109 35.7807 6.39344 35.196 6.87645H35.2087ZM34.7765 6.39344C36.645 4.88084 39.4542 4.86813 42.8734 6.32988C45.6317 7.512 48.4916 9.52033 51.072 12.1896C51.7711 12.9141 52.4574 13.6768 53.093 14.4903C54.4531 16.2063 55.5716 18.0239 56.436 19.8925C57.5164 22.2313 58.1265 24.5447 58.368 26.6801C58.7875 30.2773 58.063 32.972 56.1182 34.3067C55.4191 34.777 54.6056 35.0439 53.6777 35.1074C53.1947 35.1456 52.6862 35.1202 52.1397 35.0439C50.8813 34.8914 49.5212 34.4465 48.0849 33.722C44.3606 32.0695 40.738 28.7011 38.0305 24.5065C35.6155 20.7822 33.9122 16.9181 33.2894 13.4989C32.6919 10.1432 33.2131 7.67724 34.7892 6.39344H34.7765Z" fill="#1D4C29"/>
<path d="M32.3246 5.55488C30.7357 6.83868 30.2654 9.39358 30.9263 12.7874C31.1043 13.6899 31.3458 14.6051 31.6763 15.5457C32.6932 18.4819 34.4346 21.4944 36.6717 24.2781C39.5825 27.9134 43.0653 30.6844 46.3574 32.2987C49.3572 33.7732 51.7977 34.1164 53.3866 32.9851C55.0009 31.8411 55.5093 29.426 55.0517 26.1339C54.556 22.613 53.018 18.5327 50.4631 14.6686C49.2809 12.7493 47.8192 11.0206 46.1922 9.59696C45.0609 8.6055 43.8915 7.74116 42.6967 7.04206C41.7815 6.48278 40.8409 6.03789 39.9257 5.65657C37.8157 4.7668 35.9726 4.38547 34.46 4.63969C33.6338 4.74138 32.9093 5.03373 32.3246 5.51675V5.55488ZM31.8924 5.07186C33.7863 3.55926 36.6463 3.57197 40.1036 5.09729C42.8873 6.33025 45.7854 8.40213 48.3912 11.135C49.103 11.8722 49.7894 12.6603 50.4249 13.4865C51.7977 15.2279 52.9417 17.0837 53.8187 18.9649C54.9246 21.3291 55.5601 23.6934 55.8271 25.8542C56.2847 29.5277 55.5728 32.2733 53.6027 33.6333C52.9036 34.1164 52.0646 34.3833 51.1113 34.4341C50.6156 34.4723 50.0944 34.4341 49.5479 34.3579C48.2768 34.1926 46.8913 33.735 45.4295 32.9851C41.6798 31.2691 38.0063 27.8499 35.2481 23.6171C32.7694 19.8038 31.0026 15.8507 30.3544 12.3552C29.7188 8.91057 30.2527 6.38109 31.8797 5.07186H31.8924Z" fill="#1D4C29"/>
<path d="M29.3245 4.63987C27.7102 5.93638 27.2272 8.54213 27.9135 12.0122C28.0915 12.9274 28.3457 13.868 28.6762 14.8213C29.7058 17.8084 31.4853 20.8844 33.7479 23.7317C36.7095 27.456 40.2432 30.316 43.5734 31.9938C46.6368 33.5318 49.1281 33.8877 50.7551 32.731C52.3948 31.5743 52.9032 29.0957 52.4075 25.7273C51.8737 22.1301 50.2721 17.9736 47.6536 14.0332C46.4461 12.0885 44.9716 10.3471 43.3319 8.89803C42.1879 7.88116 41.0185 7.0041 39.8237 6.29229C38.8958 5.7203 37.9552 5.24999 37.04 4.85595C34.9046 3.92806 33.0361 3.52131 31.498 3.76281C30.6591 3.8645 29.9219 4.15685 29.3245 4.63987ZM28.8923 4.15685C30.8116 2.63154 33.7097 2.68239 37.2307 4.28396C40.0525 5.56777 42.976 7.7032 45.6199 10.4996C46.3317 11.2496 47.0308 12.0503 47.6791 12.8893C49.0645 14.6688 50.2212 16.55 51.1237 18.4567C52.255 20.859 52.916 23.2487 53.2083 25.4477C53.704 29.1974 52.9922 31.9938 50.9966 33.3666C50.2848 33.8623 49.4332 34.1292 48.4671 34.1801C47.9714 34.2055 47.4375 34.1801 46.8783 34.1038C45.5945 33.9259 44.1835 33.4428 42.6964 32.6802C38.9212 30.9134 35.2096 27.4433 32.3878 23.147C29.8329 19.2447 28.0025 15.2027 27.3416 11.6182C26.6806 8.08453 27.2272 5.4915 28.8923 4.16956V4.15685Z" fill="#1D4C29"/>
<path d="M26.6042 4.30927C24.9517 5.61849 24.4687 8.27508 25.1805 11.8214C25.3712 12.7493 25.6254 13.7154 25.9686 14.6814C27.0236 17.7193 28.8159 20.8589 31.1165 23.7697C34.129 27.583 37.7008 30.5319 41.0946 32.2606C44.2215 33.8622 46.7637 34.2308 48.4161 33.0614C50.0812 31.8793 50.6024 29.3498 50.0685 25.8924C49.5093 22.2317 47.8314 17.9735 45.1494 13.9696C43.9164 12.0121 42.4293 10.2453 40.7768 8.77081C39.6329 7.74122 38.438 6.83874 37.2432 6.10151C36.3026 5.5041 35.362 5.03379 34.4341 4.61433C32.2732 3.6483 30.3666 3.20342 28.8159 3.43221C27.9642 3.52119 27.2143 3.81354 26.6042 4.30927ZM26.1847 3.81354C28.1295 2.28823 31.0784 2.36449 34.6375 4.02963C37.4847 5.36428 40.4464 7.56327 43.1157 10.4232C43.8402 11.1986 44.5393 12.0121 45.2003 12.8637C46.5985 14.6814 47.7806 16.588 48.6958 18.5201C49.8525 20.9606 50.5388 23.3884 50.8566 25.6128C51.3905 29.4388 50.6914 32.286 48.6703 33.6715C47.9458 34.1672 47.0815 34.4469 46.1027 34.4977C45.5943 34.5232 45.0604 34.4977 44.5011 34.4088C43.1919 34.2181 41.7683 33.7224 40.2684 32.9216C36.4678 31.1039 32.7181 27.583 29.8327 23.2231C27.2016 19.2319 25.3203 15.0881 24.634 11.4401C23.9476 7.81749 24.4941 5.1609 26.1974 3.81354H26.1847Z" fill="#1D4C29"/>
<path d="M23.9599 4.48732C22.2821 5.80926 21.799 8.50398 22.5236 12.1266C22.7142 13.0672 22.9812 14.0459 23.3244 15.0374C24.3921 18.1262 26.2225 21.3293 28.5486 24.3037C31.5992 28.2186 35.2345 31.2566 38.6665 33.0361C41.8569 34.6885 44.4626 35.0826 46.1405 33.8877C47.831 32.6802 48.3522 30.0999 47.7929 26.5662C47.1955 22.8292 45.4541 18.4948 42.7085 14.4019C41.4502 12.4189 39.9503 10.6394 38.2851 9.13953C37.1284 8.08452 35.9336 7.16933 34.7261 6.40667C33.7855 5.79655 32.8321 5.30082 31.8915 4.86865C29.7052 3.86449 27.7732 3.39418 26.197 3.61027C25.32 3.69924 24.57 3.97889 23.9472 4.47461L23.9599 4.48732ZM23.5404 3.9916C25.5106 2.45357 28.5104 2.56797 32.1203 4.29666C35.0057 5.68215 37.9928 7.9447 40.7002 10.8682C41.4247 11.6563 42.1365 12.4825 42.8102 13.3596C44.2211 15.2026 45.416 17.1474 46.3439 19.1049C47.526 21.5835 48.2378 24.0495 48.5683 26.2993C49.1403 30.2015 48.4412 33.0996 46.4074 34.5106C45.6702 35.019 44.7931 35.2986 43.8017 35.3368C43.2932 35.3622 42.7467 35.3368 42.1747 35.2351C40.8527 35.0317 39.4037 34.5233 37.8784 33.6971C34.0524 31.8285 30.2518 28.2441 27.3156 23.8334C24.6082 19.7659 22.6761 15.5204 21.9516 11.7834C21.2398 8.07181 21.7863 5.33896 23.5404 3.97889V3.9916Z" fill="#1D4C29"/>
<path d="M21.3796 5.09731C19.6764 6.43196 19.1806 9.17753 19.9306 12.8764C20.1212 13.8424 20.4009 14.8339 20.7568 15.8381C21.8499 18.9777 23.693 22.2444 26.0573 25.295C29.1587 29.2989 32.8322 32.4258 36.315 34.2689C39.569 35.9849 42.2256 36.3789 43.9415 35.1714C45.6702 33.9511 46.1914 31.3073 45.5813 27.6847C44.9457 23.8714 43.1535 19.4607 40.3189 15.2915C39.0351 13.2959 37.5098 11.4909 35.8574 9.9656C34.688 8.89788 33.4931 7.94456 32.2729 7.1692C31.3196 6.54636 30.3535 6.02521 29.4256 5.58033C27.2012 4.52532 25.2565 4.04231 23.6549 4.23297C22.7651 4.30924 21.9898 4.60159 21.3669 5.09731H21.3796ZM20.9602 4.60159C22.9558 3.06356 25.9937 3.20338 29.6544 5.00834C32.5653 6.44467 35.5905 8.77078 38.3233 11.7578C39.0605 12.5586 39.7724 13.4103 40.446 14.3C41.8824 16.1813 43.0899 18.1514 44.0305 20.1344C45.2381 22.6511 45.9753 25.1425 46.3312 27.4304C46.9413 31.409 46.2422 34.3579 44.1958 35.7815C43.4458 36.3027 42.556 36.5823 41.5519 36.6204C41.0307 36.6459 40.4715 36.6077 39.8995 36.506C38.5648 36.29 37.0903 35.7688 35.5396 34.9172C31.6882 32.9978 27.8495 29.3625 24.8497 24.8882C22.066 20.7318 20.0831 16.3973 19.3332 12.5841C18.5832 8.78349 19.1552 5.98708 20.9475 4.60159H20.9602Z" fill="#1D4C29"/>
<path d="M18.9135 6.05033C17.1848 7.39769 16.6764 10.1941 17.4518 13.9692C17.6551 14.948 17.9348 15.9521 18.2907 16.9817C19.4092 20.1722 21.2778 23.5024 23.6674 26.6166C26.807 30.7095 30.544 33.9254 34.0777 35.8321C37.3952 37.6116 40.1154 38.0183 41.844 36.7854C43.5982 35.5397 44.1193 32.845 43.4838 29.1461C42.8101 25.2566 40.9543 20.7696 38.0562 16.5114C36.7597 14.4904 35.2089 12.6727 33.5438 11.122C32.3744 10.0289 31.1669 9.06282 29.9339 8.26203C28.9806 7.61378 28.0018 7.07992 27.0612 6.62232C24.8114 5.52918 22.8412 5.00803 21.2269 5.18599C20.3244 5.26225 19.5364 5.54189 18.9008 6.03762L18.9135 6.05033ZM18.4941 5.5546C20.5151 4.00387 23.6039 4.18182 27.3154 6.05033C30.2644 7.5248 33.315 9.92717 36.0733 12.9778C36.8105 13.7913 37.535 14.6556 38.2214 15.5581C39.6705 17.4647 40.9034 19.4731 41.8568 21.4814C43.0897 24.0363 43.8651 26.5658 44.2337 28.8919C44.882 32.9467 44.1956 35.9464 42.1237 37.3828C41.3737 37.9039 40.4586 38.1836 39.4417 38.2217C38.9078 38.2471 38.3485 38.209 37.7638 38.0946C36.4165 37.8658 34.9293 37.3192 33.3531 36.4549C29.4763 34.472 25.5995 30.7858 22.5488 26.2607C19.6889 22.0153 17.6551 17.5919 16.8798 13.6896C16.1044 9.80006 16.6764 6.9401 18.5068 5.52918L18.4941 5.5546Z" fill="#1D4C29"/>
<path d="M16.5504 7.28322C14.7836 8.63058 14.2752 11.4905 15.0759 15.3292C15.2793 16.3207 15.5717 17.3503 15.9403 18.3926C17.0716 21.6339 18.9782 25.0277 21.3933 28.2054C24.5837 32.3873 28.3589 35.7049 31.9434 37.6496C35.3245 39.4927 38.0954 39.9122 39.8623 38.6665C41.6418 37.4081 42.1757 34.6499 41.502 30.862C40.8029 26.9089 38.8708 22.333 35.9092 17.9985C34.5872 15.9648 33.0238 14.1217 31.3459 12.5455C30.1638 11.4397 28.9436 10.4482 27.7233 9.62203C26.7573 8.96106 25.7786 8.40178 24.8252 7.93148C22.55 6.80021 20.5544 6.25364 18.9146 6.41888C17.9995 6.48243 17.1987 6.76207 16.5504 7.27051V7.28322ZM16.131 6.77478C18.1774 5.21134 21.3043 5.42743 25.0667 7.3722C28.0411 8.89751 31.1299 11.3634 33.9263 14.4776C34.6762 15.3165 35.4007 16.1936 36.0998 17.1088C37.5616 19.0535 38.8073 21.0873 39.786 23.121C41.0444 25.7141 41.8452 28.269 42.2392 30.6332C42.9256 34.7643 42.2392 37.8149 40.1419 39.2766C39.3793 39.8105 38.4641 40.0901 37.4091 40.1283C36.8752 40.1537 36.3032 40.1028 35.7058 40.0012C34.333 39.7724 32.8331 39.2004 31.2315 38.3106C27.3166 36.2769 23.4143 32.5398 20.3001 27.9512C17.3639 23.6168 15.2793 19.1044 14.4785 15.1259C13.6777 11.1473 14.2624 8.22383 16.131 6.80021V6.77478Z" fill="#1D4C29"/>
<path d="M14.3117 8.71963C12.5195 10.0797 11.9983 12.9778 12.8245 16.9055C13.0406 17.9096 13.333 18.9646 13.7016 20.0196C14.8583 23.3118 16.7776 26.7692 19.2308 30.0104C22.4594 34.294 26.2854 37.6878 29.9207 39.6962C33.3654 41.6028 36.1872 42.035 37.9922 40.7639C39.7971 39.4801 40.331 36.6583 39.6319 32.8068C38.8947 28.7775 36.8991 24.1126 33.8738 19.7146C32.5265 17.6554 30.9503 15.7996 29.2725 14.198C28.0777 13.0668 26.8574 12.0626 25.6244 11.211C24.6457 10.5373 23.667 9.95259 22.7009 9.46957C20.4003 8.28746 18.3665 7.72818 16.7141 7.868C15.7862 7.93155 14.9727 8.21119 14.3117 8.71963ZM13.905 8.21119C15.9768 6.64775 19.1546 6.88925 22.9679 8.89758C25.9804 10.4737 29.0945 13.0032 31.9164 16.1937C32.6663 17.0453 33.4035 17.9351 34.1026 18.8757C35.5771 20.8459 36.8482 22.9177 37.8397 24.9769C39.1108 27.5954 39.9497 30.2011 40.3564 32.5908C41.081 36.7981 40.3946 39.8995 38.2845 41.374C37.5092 41.9206 36.5813 42.2002 35.5136 42.2384C34.967 42.2511 34.395 42.2129 33.7849 42.0985C32.3994 41.857 30.8741 41.2723 29.2471 40.3571C25.3067 38.2725 21.3536 34.4847 18.1886 29.8325C15.1761 25.4218 13.0406 20.795 12.2144 16.7402C11.3882 12.6727 11.9729 9.68566 13.8923 8.23661L13.905 8.21119Z" fill="#1D4C29"/>
<path d="M12.2283 10.283C10.4106 11.6558 9.88945 14.6047 10.7284 18.5959C10.9445 19.6255 11.2495 20.6805 11.6181 21.7609C12.7875 25.1039 14.7323 28.6249 17.2237 31.9297C20.4904 36.3023 24.3799 39.7851 28.0661 41.8569C31.5743 43.8271 34.4597 44.272 36.2901 42.9755C38.1204 41.6663 38.667 38.7936 37.9171 34.8532C37.1417 30.7476 35.0825 26.0064 31.9938 21.5194C30.621 19.4476 29.0321 17.5663 27.3416 15.9393C26.1467 14.7826 24.9138 13.7658 23.6681 12.8887C22.6894 12.1896 21.6979 11.6049 20.7319 11.0965C18.4058 9.87622 16.3466 9.27881 14.6688 9.40592C13.7154 9.45676 12.9019 9.7364 12.2283 10.2448V10.283ZM11.8215 9.77454C13.9188 8.19838 17.1347 8.47802 20.9988 10.5499C24.0367 12.1769 27.189 14.7699 30.049 18.0239C30.8117 18.8883 31.5489 19.8035 32.2607 20.7568C33.7479 22.7651 35.0317 24.8497 36.0486 26.947C37.3451 29.6036 38.2094 32.2348 38.6416 34.6625C39.4042 38.9461 38.7306 42.0984 36.5951 43.5856C35.8071 44.1322 34.8664 44.4245 33.786 44.45C33.2394 44.4627 32.6547 44.4118 32.0319 44.2974C30.6337 44.0432 29.083 43.4331 27.4433 42.5052C23.4774 40.3698 19.4862 36.5183 16.2576 31.8153C13.1689 27.3156 10.9826 22.5999 10.1182 18.4561C9.26661 14.2996 9.86403 11.249 11.8088 9.77454H11.8215Z" fill="#1D4C29"/>
<path d="M10.2951 11.9099C8.43928 13.2954 7.90542 16.2952 8.78247 20.3627C8.99856 21.405 9.30362 22.4854 9.69766 23.5785C10.8925 26.9724 12.8627 30.5568 15.3794 33.938C18.697 38.4122 22.6247 41.9713 26.3617 44.1067C29.9335 46.1404 32.8697 46.598 34.7255 45.2761C36.594 43.9542 37.1279 41.0179 36.3525 36.9886C35.5517 32.8194 33.4163 27.9892 30.2512 23.426C28.853 21.3414 27.2515 19.4348 25.5482 17.7951C24.3407 16.6257 23.1077 15.5834 21.8493 14.6936C20.8579 13.9818 19.8664 13.3717 18.8877 12.8378C16.5361 11.5794 14.4515 10.9566 12.7483 11.071C11.7823 11.1218 10.9433 11.4015 10.2696 11.9099H10.2951ZM9.88832 11.3888C11.9983 9.8126 15.2778 10.1177 19.1927 12.2658C22.2688 13.9436 25.4465 16.6002 28.3319 19.9178C29.0945 20.7948 29.8445 21.7227 30.569 22.6888C32.0816 24.7352 33.3781 26.8452 34.4077 28.968C35.7297 31.6627 36.6194 34.332 37.077 36.7852C37.8905 41.1323 37.2041 44.3482 35.056 45.8608C34.2552 46.4201 33.3019 46.7124 32.2087 46.7379C31.6494 46.7506 31.052 46.6997 30.4292 46.5726C29.0056 46.3057 27.4421 45.6829 25.777 44.7295C21.7858 42.5433 17.7564 38.641 14.4643 33.8744C11.2992 29.2857 9.0494 24.481 8.17234 20.261C7.28258 16.0155 7.8927 12.8886 9.88832 11.4015V11.3888Z" fill="#1D4C29"/>
<path d="M8.55364 13.5114C6.67242 14.9096 6.13857 17.9603 7.02833 22.104C7.25713 23.159 7.56219 24.2522 7.95623 25.3707C9.17648 28.8154 11.1594 32.4634 13.727 35.9081C17.0954 40.4713 21.0612 44.1321 24.8491 46.3056C28.4844 48.4029 31.4842 48.8732 33.3654 47.5386C35.2593 46.1912 35.8059 43.2042 34.9924 39.0985C34.1535 34.8531 31.9672 29.9467 28.7259 25.3072C27.3023 23.1972 25.688 21.2778 23.9847 19.6127C22.7645 18.4179 21.5188 17.3501 20.2731 16.4477C19.2817 15.7104 18.2775 15.0876 17.2861 14.541C14.9091 13.2318 12.7991 12.5963 11.0704 12.6852C10.0917 12.7234 9.24003 13.003 8.55364 13.5242V13.5114ZM8.14689 12.9903C10.2823 11.4014 13.6126 11.7446 17.5657 13.9563C20.6672 15.685 23.883 18.4052 26.8065 21.7863C27.5819 22.6887 28.3319 23.6293 29.0564 24.6081C30.5817 26.68 31.8909 28.8281 32.9459 30.9763C34.2933 33.7091 35.2085 36.4165 35.6915 38.8952C36.5431 43.3186 35.8567 46.5853 33.6832 48.1106C32.8824 48.6826 31.9036 48.9749 30.7978 48.9876C30.2258 48.9876 29.6284 48.9368 28.9928 48.8097C27.5565 48.5301 25.9676 47.8945 24.2771 46.9031C20.2604 44.6532 16.1802 40.7128 12.8372 35.8827C9.59594 31.2178 7.29526 26.3113 6.39278 22.0023C5.4776 17.6679 6.08772 14.4775 8.13418 12.9649L8.14689 12.9903Z" fill="#1D4C29"/>
<path d="M7.00443 15.024C5.09779 16.435 4.55122 19.5237 5.46641 23.7438C5.69521 24.8115 6.01298 25.93 6.41973 27.0613C7.65269 30.5568 9.67373 34.2684 12.2668 37.7766C15.6733 42.4288 19.7027 46.1786 23.5414 48.4157C27.2402 50.5638 30.2909 51.0596 32.2102 49.6995C34.1296 48.3394 34.6761 45.2888 33.8245 41.0942C32.9474 36.7725 30.6976 31.7771 27.3928 27.0613C25.9437 24.9386 24.3167 22.9938 22.6007 21.3033C21.3805 20.0957 20.1221 19.0026 18.8637 18.0747C17.8596 17.3247 16.8554 16.6765 15.864 16.1172C13.4616 14.7698 11.3261 14.0962 9.58475 14.1851C8.5933 14.2233 7.72895 14.4902 7.02985 15.0113L7.00443 15.024ZM6.61039 14.5029C8.77125 12.914 12.1396 13.2827 16.1563 15.5579C19.2959 17.3374 22.5372 20.1084 25.4861 23.5658C26.2742 24.481 27.0369 25.4343 27.7614 26.4385C29.2994 28.5485 30.6341 30.7221 31.7018 32.8956C33.0746 35.6666 34.0152 38.3995 34.5236 40.9162C35.4134 45.4159 34.7397 48.7335 32.5407 50.2842C31.7272 50.8562 30.7357 51.1612 29.6172 51.174C29.0452 51.174 28.4351 51.1231 27.7868 50.9833C26.3378 50.6909 24.7235 50.0427 23.0202 49.0258C18.9781 46.7251 14.8598 42.7212 11.466 37.8402C8.14842 33.0863 5.79689 28.0782 4.86899 23.7056C3.92838 19.2822 4.55122 16.0282 6.6231 14.5029H6.61039Z" fill="#1D4C29"/>
<path d="M5.65544 16.3591C3.71066 17.7827 3.16409 20.9223 4.1047 25.2186C4.34621 26.3118 4.66398 27.443 5.07073 28.587C6.32912 32.1334 8.36287 35.8958 10.994 39.4803C14.4514 44.2215 18.5189 48.0602 22.4084 50.3609C26.1709 52.5726 29.2851 53.081 31.2171 51.6955C33.1619 50.31 33.7212 47.2085 32.8314 42.9377C31.9162 38.5397 29.6028 33.468 26.2344 28.676C24.76 26.5278 23.1203 24.5704 21.3916 22.8544C20.1586 21.6214 18.9002 20.5156 17.6291 19.5623C16.6123 18.7996 15.5954 18.1259 14.6039 17.5539C12.1761 16.1684 10.0026 15.4693 8.24847 15.5329C7.2443 15.5583 6.36725 15.838 5.65544 16.3591ZM5.2614 15.838C7.44768 14.2364 10.8669 14.6431 14.9217 16.9946C18.0867 18.825 21.3662 21.6596 24.3532 25.1805C25.1413 26.1084 25.9167 27.0871 26.6539 28.104C28.2046 30.2394 29.552 32.4511 30.6451 34.6501C32.0433 37.4593 33.0221 40.2302 33.5305 42.7724C34.4584 47.3484 33.7847 50.7168 31.573 52.2802C30.7468 52.8649 29.7427 53.1573 28.5987 53.17C28.014 53.17 27.4038 53.1191 26.7429 52.9793C25.2684 52.6742 23.6541 52.0006 21.9127 50.971C17.8452 48.6195 13.6887 44.5647 10.2314 39.6201C6.83755 34.7772 4.42248 29.6802 3.48187 25.2186C2.50313 20.7062 3.13867 17.3887 5.2614 15.838Z" fill="#1D4C29"/>
<path d="M4.55088 17.4523C2.58068 18.8886 2.0214 22.0791 2.98743 26.4516C3.22894 27.5575 3.55943 28.7015 3.97889 29.8709C5.24998 33.4681 7.32186 37.2941 9.97845 40.9421C13.4867 45.7723 17.605 49.7127 21.5454 52.0515C25.3714 54.3267 28.5364 54.8479 30.5066 53.437C32.4768 52.026 33.0361 48.8737 32.1209 44.5139C31.1803 40.0396 28.7906 34.8917 25.3587 30.0234C23.8588 27.8626 22.2064 25.8796 20.4777 24.1382C19.2447 22.8799 17.9736 21.7613 16.6898 20.7826C15.6729 19.9945 14.6434 19.3081 13.6392 18.7234C11.1733 17.2871 8.98699 16.5752 7.20746 16.6134C6.17788 16.6388 5.30082 16.9057 4.5763 17.4269L4.55088 17.4523ZM4.15684 16.9184C6.36854 15.3041 9.83863 15.749 13.9315 18.1641C17.1347 20.0453 20.4395 22.9434 23.452 26.5279C24.2528 27.4685 25.0282 28.46 25.7654 29.4896C27.3416 31.6631 28.7017 33.9002 29.8075 36.1247C31.2311 38.9719 32.2353 41.7683 32.7692 44.3614C33.7352 49.0136 33.0615 52.4328 30.8371 54.009C29.9982 54.6064 28.9813 54.8987 27.8246 54.9114C27.2399 54.9114 26.6043 54.8479 25.9561 54.7081C24.4689 54.3903 22.8292 53.7039 21.0624 52.6489C16.9695 50.2465 12.7749 46.1409 9.25392 41.1328C5.78384 36.2009 3.31792 31.0149 2.33918 26.4771C1.33501 21.8757 1.97056 18.4946 4.14413 16.9184H4.15684Z" fill="#1D4C29"/>
<path d="M3.68538 18.2406C1.68976 19.6896 1.13048 22.9309 2.10922 27.367C2.35073 28.4856 2.69392 29.655 3.11338 30.8371C4.4099 34.4851 6.5072 38.3747 9.18921 42.099C12.7356 47.0308 16.9047 51.0475 20.896 53.4499C24.7855 55.7887 28.0014 56.3225 30.0097 54.8989C32.0053 53.4753 32.5773 50.2467 31.624 45.8233C30.6453 41.2855 28.1921 36.0486 24.6966 31.0913C23.1712 28.905 21.4934 26.9094 19.7647 25.1426C18.519 23.8715 17.2352 22.7275 15.9641 21.7233C14.9346 20.9226 13.905 20.2235 12.8881 19.6133C10.3968 18.1389 8.18505 17.3889 6.3801 17.4271C5.3378 17.4398 4.43532 17.7067 3.7108 18.2406H3.68538ZM3.29134 17.7067C5.52846 16.0924 9.04939 16.5627 13.1932 19.0413C16.4344 20.9607 19.7647 23.9351 22.8026 27.5831C23.6034 28.5491 24.3915 29.5533 25.1414 30.5956C26.7303 32.7946 28.1031 35.0698 29.2344 37.3197C30.6834 40.1924 31.713 43.0396 32.2723 45.6581C33.2764 50.3865 32.6155 53.8566 30.3656 55.4582C29.514 56.0556 28.4971 56.3607 27.315 56.3734C26.7176 56.3734 26.082 56.3098 25.4211 56.1573C23.9212 55.8268 22.2561 55.1277 20.4765 54.0473C16.3582 51.5941 12.1127 47.4376 8.54095 42.3659C4.9946 37.3578 2.47784 32.0701 1.47367 27.4433C0.444088 22.7529 1.09235 19.2956 3.29134 17.7067Z" fill="#1D4C29"/>
<path d="M3.08967 18.6346C1.05592 20.0963 0.496638 23.3757 1.5008 27.9008C1.75502 29.0448 2.09822 30.2142 2.53039 31.4218C3.85233 35.1206 5.96234 39.0737 8.68248 42.8616C12.2797 47.8824 16.487 52.0008 20.5291 54.454C24.4695 56.8691 27.7616 57.3902 29.7826 55.9539C31.8164 54.5048 32.3884 51.2254 31.3842 46.713C30.3801 42.0989 27.8506 36.7858 24.2788 31.7522C22.7281 29.5533 21.0375 27.5322 19.2961 25.74C18.0377 24.4435 16.7539 23.2868 15.4701 22.2572C14.4405 21.4437 13.3982 20.7192 12.3814 20.0963C9.87731 18.571 7.62747 17.8084 5.7971 17.8211C4.74209 17.8211 3.8269 18.1007 3.07696 18.6346H3.08967ZM2.69563 18.1007C4.95818 16.4737 8.51724 16.9821 12.7119 19.537C15.9786 21.5199 19.347 24.5451 22.423 28.2567C23.2365 29.2355 24.0246 30.2524 24.7872 31.3201C26.3888 33.5572 27.787 35.8579 28.931 38.1331C30.4055 41.0439 31.4605 43.9166 32.0452 46.5732C33.1002 51.3652 32.4265 54.8989 30.1513 56.5131C29.2996 57.1233 28.2573 57.4283 27.0625 57.4283C26.4524 57.4283 25.8168 57.3521 25.1432 57.1995C23.6305 56.8563 21.94 56.1318 20.135 55.0387C15.9913 52.5219 11.7077 48.3146 8.07236 43.1921C4.44974 38.0823 1.88213 32.6929 0.852545 28.0025C-0.202463 23.2232 0.445794 19.7023 2.69563 18.088V18.1007Z" fill="#1D4C29"/>
<path d="M5.51628 17.7448C4.44857 17.7448 3.52067 18.0118 2.75801 18.5456C0.69884 20.0074 0.126848 23.3503 1.15643 27.939C2.19873 32.6293 4.77905 38.0315 8.42709 43.1413C12.0624 48.2511 16.3333 52.4457 20.4262 54.9751C24.4302 57.4411 27.7731 57.9876 29.8323 56.5259C31.8915 55.0641 32.4635 51.7212 31.4339 47.1325C30.3916 42.4422 27.8113 37.04 24.1632 31.9302C20.5279 26.8204 16.257 22.6258 12.1641 20.0963C9.62192 18.5329 7.35937 17.7448 5.50357 17.7448H5.51628ZM27.0867 57.9876C25.1038 57.9876 22.7142 57.1614 20.0703 55.5344C15.9011 52.9668 11.5794 48.7087 7.88052 43.5226C4.19435 38.3492 1.57589 32.8708 0.508176 28.0915C-0.572253 23.2232 0.0887155 19.6388 2.37668 18.0118C4.66465 16.3848 8.26185 16.9186 12.52 19.5371C16.6892 22.1047 21.0109 26.3628 24.7098 31.5489C28.396 36.735 31.0271 42.2134 32.0821 46.9927C33.1753 51.861 32.5016 55.4455 30.2136 57.0725C29.3493 57.6953 28.2943 58.0004 27.0867 58.0004V57.9876Z" fill="#1D4C29"/>
</g>
<defs>
<clipPath id="clip0_180_2870">
<rect width="84.1083" height="58" fill="white"/>
</clipPath>
</defs>
</svg>
