<svg width="68" height="68" viewBox="0 0 68 68" fill="none" xmlns="http://www.w3.org/2000/svg">
<g clipPath="url(#clip0_180_2864)">
<path d="M65.23 38.94C63.81 37.66 62.99 35.82 62.99 33.9C62.99 31.98 63.81 30.15 65.23 28.86C67.71 26.62 68.4799 23.19 67.21 20.1C65.93 17.02 62.95 15.11 59.62 15.31C57.7 15.4 55.83 14.69 54.48 13.33C53.13 11.98 52.4 10.1 52.5 8.18995C52.67 4.85995 50.79 1.87995 47.7 0.599953C44.62 -0.680047 41.18 0.0999527 38.94 2.57995C37.66 3.99995 35.82 4.81995 33.9 4.81995C31.98 4.81995 30.15 3.99995 28.86 2.57995C26.64 0.109953 23.2 -0.670047 20.11 0.609953C17.03 1.88995 15.14 4.86995 15.31 8.19995C15.41 10.11 14.69 11.99 13.33 13.34C11.97 14.7 10.1 15.41 8.18995 15.32C4.85995 15.13 1.87995 17.03 0.599953 20.12C-0.680047 23.2 0.0999527 26.64 2.57995 28.88C3.99995 30.17 4.81995 32 4.81995 33.92C4.81995 35.84 3.99995 37.67 2.57995 38.96C0.0999527 41.2 -0.670047 44.63 0.599953 47.72C1.87995 50.8 4.84995 52.7 8.18995 52.51C10.11 52.41 11.98 53.13 13.33 54.49C14.69 55.85 15.41 57.72 15.31 59.63C15.14 62.96 17.02 65.94 20.11 67.22C21.1 67.63 22.12 67.83 23.13 67.83C25.27 67.83 27.35 66.93 28.87 65.25C30.15 63.83 31.99 63.01 33.91 63.01C35.83 63.01 37.66 63.83 38.95 65.25C41.19 67.73 44.62 68.5 47.71 67.23C50.79 65.95 52.68 62.97 52.51 59.64C52.41 57.73 53.13 55.85 54.49 54.5C55.85 53.15 57.72 52.43 59.63 52.52C62.97 52.71 65.94 50.81 67.22 47.73C68.5 44.65 67.72 41.21 65.24 38.97L65.23 38.94ZM39.66 5.14995C39.66 5.14995 40 5.44995 40.01 5.43995C41.19 4.19995 42.55 3.58995 43.85 3.37995C45.02 3.18995 46.16 3.37995 47.11 3.73995C47.75 3.98995 48.4 4.35995 48.98 4.86995C49.93 5.68995 50.71 6.86995 50.97 8.38995C50.3 6.97995 49.16 5.82995 47.65 5.16995C46.89 4.83995 46.1 4.64995 45.32 4.60995C43.45 4.49995 41.62 5.19995 40.26 6.58995C39.15 7.72995 37.62 8.42995 36.04 8.51995C34.5 8.64995 32.95 8.08995 31.8 7.01995C32.67 7.38995 33.62 7.59995 34.58 7.62995C36.6 7.68995 38.57 6.89995 39.97 5.44995C39.97 5.44995 39.65 5.14995 39.66 5.14995ZM64.02 27.37C63.86 27.58 63.69 27.78 63.5 27.98C64.73 26.16 65 23.87 64.13 21.75C64.0799 21.62 64.02 21.5 63.96 21.37C62.81 18.96 60.4 17.49 57.71 17.59C57.22 17.61 56.73 17.57 56.25 17.48C55.15 17.28 54.12 16.75 53.31 15.96C53.14 15.79 52.97 15.61 52.82 15.42C52.37 14.86 52.05 14.21 51.84 13.53C52.18 14.19 52.62 14.8 53.15 15.33C54.6 16.78 56.6 17.54 58.64 17.44C61.63 17.29 63.57 19 64.5 20.8C64.59 20.97 64.67 21.14 64.74 21.31C65.43 23 65.53 25.36 64.02 27.36V27.37ZM40 7.37995C40 7.37995 40.32 7.63995 40.33 7.62995C41.44 6.52995 42.7 5.95995 43.89 5.71995C44.96 5.50995 46.02 5.63995 46.9 5.95995C47.5 6.17995 48.11 6.50995 48.65 6.95995C49.56 7.71995 50.31 8.82995 50.54 10.28C49.94 9.04995 48.93 8.03995 47.62 7.43995C46.94 7.12995 46.23 6.94995 45.52 6.89995C43.83 6.76995 42.17 7.35995 40.92 8.57995C39.89 9.57995 38.51 10.22 37.11 10.36C35.65 10.56 34.14 10.07 33.04 9.01995C32.99 8.96995 32.93 8.92995 32.88 8.88995C33.64 9.18995 34.44 9.37995 35.26 9.43995C37.1 9.56995 38.93 8.91995 40.26 7.63995C40.27 7.63995 40 7.37995 40.01 7.37995H40ZM62.51 27.67C62.37 27.85 62.21 28.03 62.04 28.21C63.14 26.55 63.38 24.47 62.6 22.55C62.55 22.43 62.5 22.32 62.45 22.21C61.4 20.01 59.22 18.66 56.77 18.72C56.32 18.73 55.87 18.7 55.44 18.62C54.43 18.45 53.49 17.98 52.75 17.27C52.59 17.12 52.44 16.95 52.3 16.78C51.88 16.25 51.57 15.65 51.38 15C51.69 15.59 52.09 16.14 52.56 16.62C53.9 17.96 55.75 18.67 57.64 18.57C60.38 18.43 62.15 20 62.99 21.65C63.07 21.8 63.14 21.96 63.2 22.12C63.83 23.67 63.91 25.83 62.5 27.66L62.51 27.67ZM31.55 9.32995C31.55 9.32995 31.61 9.36995 31.63 9.38995C30.47 9.00995 29.19 9.01995 27.98 9.47995C27.75 9.56995 27.52 9.66995 27.3 9.77995C25.38 10.79 24.23 12.79 24.34 15C24.4 16.14 24.03 17.25 23.32 18.12C23.19 18.28 23.05 18.43 22.9 18.57C22.22 19.21 21.38 19.61 20.47 19.75C20.07 19.81 19.66 19.84 19.25 19.84C17.03 19.81 15.07 21.05 14.13 23.06C14.09 23.15 14.05 23.25 14.01 23.34C13.14 25.51 13.67 27.91 15.37 29.5C15.52 29.64 15.66 29.78 15.79 29.93C16.55 30.77 16.98 31.87 16.98 33.01C16.98 34.16 16.55 35.25 15.79 36.09C15.66 36.24 15.52 36.38 15.37 36.52C13.67 38.11 13.14 40.51 14.01 42.68C14.05 42.78 14.1 42.89 14.14 42.99C15.08 44.99 17.04 46.23 19.25 46.2C19.66 46.2 20.06 46.22 20.46 46.28C21.38 46.42 22.23 46.83 22.91 47.47C23.06 47.61 23.19 47.75 23.32 47.91C24.04 48.79 24.41 49.9 24.35 51.05C24.24 53.26 25.38 55.25 27.3 56.27C27.52 56.39 27.75 56.49 27.98 56.58C28.4 56.74 28.84 56.85 29.27 56.9C29.59 56.94 29.91 56.95 30.22 56.94C31.32 56.89 32.38 56.51 33.28 55.83C33.67 55.54 34.05 55.23 34.41 54.9C35.44 53.98 36.85 53.63 38.16 53.86C39.39 54.08 40.63 54.63 41.57 55.48C42.71 56.52 44.2 57 45.7 56.86C46.34 56.8 46.98 56.63 47.59 56.34C48.74 55.79 49.63 54.89 50.16 53.8C50.08 55.2 49.48 56.29 48.71 57.05C48.09 57.66 47.33 58.08 46.59 58.3C45.97 58.48 45.28 58.56 44.56 58.47C43.27 58.3 41.81 57.79 40.55 56.66C39.29 55.55 37.59 55.05 35.93 55.25C34.31 55.44 32.72 56.1 31.57 57.17C31.1 57.61 30.59 57.92 30.09 58.13C28.63 58.75 27.07 58.52 25.93 57.91C25.34 57.59 24.75 57.14 24.28 56.54C23.56 55.61 23.02 54.35 23.02 52.79C23.02 51.81 22.77 50.85 22.31 49.99C22.01 49.42 21.61 48.89 21.13 48.44C20.01 47.37 18.51 46.78 16.96 46.78C16.86 46.78 16.75 46.78 16.65 46.78C14.17 46.91 12.56 45.47 11.8 43.97C11.73 43.83 11.66 43.69 11.61 43.54C11.05 42.13 10.99 40.17 12.29 38.51C12.51 38.23 12.76 37.96 13.04 37.69C14.27 36.54 14.97 34.92 14.97 33.23C14.97 31.54 14.27 29.92 13.04 28.76C12.77 28.51 12.54 28.25 12.32 27.99C10.98 26.33 11.04 24.34 11.61 22.92C11.67 22.76 11.75 22.61 11.83 22.45C12.6 20.97 14.21 19.56 16.66 19.69C18.32 19.78 19.94 19.18 21.14 18.04C21.64 17.57 22.05 17.01 22.36 16.41C22.79 15.57 23.03 14.64 23.03 13.69C23.03 12.11 23.58 10.84 24.32 9.89995C24.79 9.30995 25.37 8.86995 25.95 8.55995C27.1 7.93995 28.68 7.70995 30.16 8.35995C30.65 8.56995 31.14 8.86995 31.59 9.29995L31.55 9.32995ZM40.35 9.60995C40.35 9.60995 40.64 9.82995 40.66 9.81995C41.7 8.85995 42.86 8.33995 43.94 8.05995C44.91 7.81995 45.88 7.90995 46.69 8.16995C47.25 8.34995 47.82 8.64995 48.31 9.04995C49.18 9.73995 49.9 10.79 50.1 12.16C49.56 11.11 48.7 10.24 47.58 9.70995C46.98 9.41995 46.35 9.24995 45.71 9.18995C44.2 9.03995 42.7 9.52995 41.56 10.57C40.62 11.42 39.39 12.01 38.16 12.19C36.86 12.45 35.45 12.07 34.41 11.15C34.24 11 34.05 10.86 33.87 10.71C34.53 10.96 35.21 11.15 35.91 11.23C37.57 11.42 39.26 10.92 40.53 9.81995C40.55 9.81995 40.33 9.58995 40.35 9.58995V9.60995ZM61 27.98C60.9 28.11 60.76 28.24 60.65 28.36C61.56 26.88 61.74 25.06 61.07 23.37C61.03 23.26 60.98 23.16 60.93 23.06C59.99 21.06 58.03 19.83 55.83 19.86C55.42 19.86 55.02 19.84 54.62 19.78C53.7 19.64 52.85 19.23 52.17 18.59C52.02 18.45 51.89 18.31 51.76 18.15C51.36 17.66 51.08 17.09 50.91 16.49C51.19 17.01 51.54 17.5 51.97 17.92C53.2 19.15 54.91 19.8 56.64 19.71C59.13 19.58 60.73 21.02 61.49 22.52C61.56 22.66 61.63 22.8 61.68 22.95C62.24 24.36 62.3 26.33 61 27.98ZM40.69 11.85C40.69 11.85 40.95 12.03 40.98 12.02C41.94 11.21 43.01 10.72 43.99 10.41C44.86 10.14 45.74 10.19 46.49 10.41C47.01 10.56 47.53 10.82 47.99 11.17C48.81 11.8 49.51 12.77 49.68 14.08C49.21 13.21 48.48 12.49 47.56 12.03C47.04 11.77 46.48 11.6 45.92 11.53C44.59 11.36 43.26 11.74 42.22 12.61C41.37 13.32 40.29 13.85 39.22 14.08C38.07 14.41 36.77 14.13 35.8 13.34C35.5 13.09 35.19 12.85 34.88 12.6C35.43 12.81 36 12.98 36.58 13.08C38.06 13.34 39.61 12.98 40.81 12.06C40.84 12.06 40.66 11.87 40.69 11.87V11.85ZM59.48 28.29C59.39 28.41 59.27 28.52 59.16 28.64C59.96 27.32 60.11 25.7 59.52 24.2C59.48 24.11 59.44 24.01 59.4 23.92C58.57 22.13 56.83 21 54.87 21.01C54.51 21.01 54.15 20.99 53.79 20.94C52.97 20.83 52.2 20.48 51.59 19.91C51.46 19.79 51.34 19.66 51.22 19.52C50.84 19.06 50.58 18.53 50.43 17.97C50.68 18.42 50.99 18.85 51.36 19.22C52.48 20.34 54.04 20.94 55.61 20.86C57.85 20.74 59.29 22.05 59.96 23.39C60.02 23.52 60.08 23.65 60.13 23.77C60.63 25.05 60.67 26.81 59.47 28.29H59.48ZM41.03 14.08C41.03 14.08 41.27 14.22 41.3 14.21C42.19 13.54 43.16 13.09 44.03 12.75C44.8 12.45 45.59 12.45 46.28 12.62C46.76 12.73 47.24 12.95 47.66 13.25C48.44 13.81 49.12 14.72 49.26 15.96C48.86 15.26 48.27 14.68 47.53 14.29C47.08 14.05 46.61 13.89 46.12 13.81C44.96 13.62 43.8 13.89 42.87 14.59C42.1 15.16 41.17 15.63 40.28 15.91C39.28 16.31 38.09 16.14 37.18 15.47C36.86 15.23 36.53 14.98 36.22 14.72C36.09 14.61 35.95 14.51 35.81 14.41C36.28 14.59 36.76 14.74 37.25 14.87C38.56 15.2 39.97 14.98 41.09 14.23C41.13 14.23 41 14.08 41.03 14.07V14.08ZM57.96 28.59C57.87 28.69 57.77 28.79 57.68 28.9C58.36 27.74 58.49 26.32 57.98 25.01C57.95 24.93 57.91 24.84 57.88 24.76C57.16 23.18 55.64 22.17 53.92 22.13C53.6 22.13 53.28 22.1 52.96 22.07C52.23 21.99 51.55 21.7 51 21.21C50.88 21.11 50.77 20.99 50.67 20.87C50.31 20.45 50.07 19.95 49.94 19.42C50.16 19.81 50.43 20.17 50.75 20.49C51.76 21.5 53.17 22.04 54.59 21.97C56.58 21.87 57.85 23.03 58.44 24.23C58.5 24.34 58.54 24.46 58.59 24.57C59.03 25.71 59.05 27.27 57.96 28.57V28.59ZM29.26 29.9C29.14 29.77 29.02 29.64 28.9 29.52C28.12 28.74 28.08 27.76 28.33 27.04C28.36 26.97 28.38 26.89 28.42 26.82C28.75 26.08 29.53 25.32 30.76 25.39C31.52 25.43 32.26 25.21 32.86 24.78C33.11 24.6 33.34 24.38 33.53 24.14C33.8 23.8 34 23.42 34.11 23.01C34.28 22.39 34.45 21.78 34.55 21.22C34.61 20.88 34.75 20.6 34.91 20.36C35.28 19.81 35.9 19.48 36.49 19.42C36.72 19.4 36.97 19.4 37.23 19.46C37.84 19.6 38.59 19.83 39.23 20.3C40 20.86 40.99 21.04 41.91 20.82C41.97 20.82 41.98 20.78 42.04 20.77C42.1 20.76 42.2 20.79 42.25 20.78C42.93 20.53 43.61 20.2 44.14 19.77C44.61 19.39 45.14 19.25 45.63 19.27C45.99 19.28 46.35 19.38 46.64 19.54C47.29 19.88 47.93 20.59 47.92 21.67C47.62 21.26 47.2 20.92 46.7 20.71C45.55 20.23 44.28 20.52 43.45 21.44C42.72 22.24 41.37 22.24 40.64 21.44C39.81 20.52 38.53 20.23 37.39 20.71C36.24 21.18 35.54 22.29 35.61 23.53C35.64 24.07 35.44 24.58 35.06 24.96C34.68 25.34 34.17 25.53 33.62 25.51C32.38 25.45 31.27 26.15 30.8 27.29C30.33 28.44 30.61 29.71 31.53 30.54C31.93 30.9 32.15 31.4 32.15 31.95C32.15 32.5 31.93 32.99 31.53 33.35C30.61 34.18 30.32 35.46 30.8 36.6C31.27 37.75 32.39 38.46 33.62 38.38C34.17 38.36 34.67 38.55 35.06 38.93C35.44 39.31 35.64 39.82 35.61 40.36C35.55 41.6 36.25 42.7 37.39 43.18C37.76 43.33 38.14 43.41 38.51 43.41C39.31 43.41 40.08 43.08 40.64 42.45C41.37 41.65 42.72 41.65 43.45 42.45C44.28 43.37 45.56 43.66 46.7 43.18C47.22 42.97 47.64 42.62 47.94 42.19C47.94 42.28 47.92 42.37 47.92 42.46C47.92 42.58 47.92 42.69 47.92 42.8C47.87 43.75 47.3 44.38 46.71 44.71C46.31 44.93 45.82 45.05 45.32 44.99C44.96 44.94 44.59 44.81 44.24 44.55C43.6 44.05 42.75 43.71 41.92 43.49C41 43.26 40 43.45 39.22 44.01C38.58 44.47 37.84 44.71 37.23 44.85C36.97 44.91 36.71 44.91 36.47 44.89C35.88 44.83 35.27 44.51 34.9 43.96C34.74 43.72 34.6 43.43 34.53 43.09C34.43 42.54 34.27 41.94 34.1 41.33C33.99 40.91 33.78 40.51 33.5 40.17C33.31 39.94 33.1 39.74 32.86 39.56C32.3 39.15 31.61 38.93 30.9 38.93C30.84 38.93 30.78 38.93 30.73 38.93C29.5 38.99 28.72 38.24 28.38 37.49C28.35 37.42 28.32 37.35 28.29 37.27C28.05 36.55 28.09 35.58 28.86 34.81C28.99 34.68 29.11 34.55 29.24 34.41C29.79 33.79 30.11 32.98 30.11 32.14C30.11 31.3 29.79 30.48 29.24 29.86L29.26 29.9ZM32.22 29.82C31.49 29.16 31.49 28.29 31.74 27.69C31.99 27.09 32.59 26.47 33.59 26.52C34.41 26.57 35.21 26.26 35.78 25.68C36.36 25.1 36.67 24.3 36.62 23.49C36.57 22.51 37.19 21.89 37.79 21.65C38.39 21.4 39.26 21.4 39.92 22.13C41.01 23.34 43.12 23.34 44.21 22.13C44.87 21.4 45.74 21.4 46.34 21.65C46.94 21.9 47.56 22.51 47.51 23.49C47.47 24.31 47.78 25.11 48.35 25.68C48.93 26.26 49.74 26.58 50.54 26.52C51.53 26.48 52.14 27.09 52.39 27.69C52.64 28.29 52.64 29.16 51.91 29.82C51.3 30.37 50.96 31.15 50.96 31.97C50.96 32.79 51.31 33.57 51.91 34.12C52.64 34.78 52.64 35.65 52.39 36.25C52.14 36.85 51.55 37.47 50.54 37.42C49.73 37.37 48.93 37.68 48.35 38.26C47.77 38.84 47.46 39.64 47.51 40.45C47.56 41.43 46.94 42.05 46.34 42.29C45.74 42.54 44.87 42.54 44.21 41.81C43.12 40.6 41.01 40.6 39.92 41.81C39.26 42.54 38.39 42.54 37.79 42.29C37.19 42.04 36.57 41.43 36.62 40.45C36.66 39.63 36.35 38.83 35.78 38.26C35.24 37.72 34.5 37.41 33.73 37.41C33.68 37.41 33.63 37.41 33.58 37.41C32.6 37.45 31.98 36.84 31.73 36.24C31.48 35.64 31.48 34.77 32.21 34.11C32.82 33.56 33.16 32.78 33.16 31.96C33.16 31.14 32.81 30.36 32.21 29.81L32.22 29.82ZM52.31 33.08C52.08 32.76 51.95 32.38 51.95 31.97C51.95 31.43 52.17 30.93 52.57 30.56C52.59 30.54 52.6 30.52 52.62 30.51C52.33 31.02 52.17 31.59 52.17 32.18C52.17 32.49 52.23 32.79 52.31 33.08ZM53.31 27.31C52.84 26.16 51.73 25.45 50.49 25.53C49.95 25.54 49.44 25.36 49.06 24.98C48.75 24.67 48.57 24.28 48.52 23.86C48.65 24.05 48.79 24.23 48.95 24.39C49.64 25.08 50.59 25.44 51.56 25.39C52.8 25.32 53.57 26.08 53.91 26.83C53.94 26.9 53.97 26.97 53.99 27.05C54.23 27.77 54.19 28.74 53.42 29.52C53.35 29.59 53.28 29.67 53.21 29.75C53.6 29.01 53.65 28.13 53.31 27.32V27.31ZM48.5 40.55C48.5 40.5 48.5 40.45 48.5 40.4C48.47 39.86 48.67 39.35 49.05 38.97C49.43 38.59 49.94 38.4 50.48 38.42C51.73 38.48 52.83 37.78 53.3 36.64C53.53 36.08 53.58 35.48 53.46 34.92C54.18 35.69 54.21 36.63 53.97 37.34C53.94 37.41 53.92 37.49 53.88 37.56C53.55 38.3 52.78 39.06 51.54 38.99C50.59 38.94 49.65 39.29 48.97 39.96C48.93 40 48.89 40.04 48.85 40.08C48.71 40.23 48.6 40.39 48.49 40.55H48.5ZM53.18 32.19C53.18 31.53 53.44 30.91 53.92 30.45C53.94 30.43 53.95 30.42 53.97 30.4C53.61 31 53.41 31.69 53.41 32.41C53.41 32.8 53.48 33.18 53.59 33.54C53.32 33.15 53.18 32.68 53.18 32.19ZM54.91 26.65C54.89 26.59 54.86 26.53 54.84 26.47C54.33 25.3 53.26 24.53 52.03 24.42C51.8 24.4 51.56 24.39 51.33 24.39C50.79 24.38 50.28 24.19 49.86 23.86C49.77 23.79 49.69 23.71 49.61 23.62C49.28 23.27 49.07 22.83 48.99 22.36C49.15 22.63 49.34 22.88 49.56 23.11C50.35 23.91 51.46 24.33 52.58 24.27C54.07 24.19 55.01 25.09 55.43 25.98C55.47 26.06 55.5 26.15 55.54 26.24C55.85 27.1 55.83 28.27 54.95 29.22C54.88 29.3 54.8 29.38 54.73 29.46C55.19 28.61 55.27 27.6 54.92 26.66L54.91 26.65ZM47.47 18.87C47.18 18.68 46.86 18.53 46.52 18.43C45.72 18.19 44.89 18.26 44.18 18.61C43.58 18.9 42.96 19.24 42.41 19.62C41.72 20.15 40.73 20.2 39.95 19.79C39.67 19.64 39.41 19.46 39.18 19.23C38.29 18.35 37.03 18.03 35.84 18.38C35.68 18.43 35.53 18.48 35.38 18.55C34.08 19.13 33.29 20.42 33.36 21.85C33.39 22.51 33.16 23.14 32.71 23.62C32.63 23.71 32.54 23.79 32.45 23.86C32.04 24.19 31.53 24.37 30.99 24.39C30.75 24.39 30.52 24.41 30.29 24.43C29.05 24.54 27.98 25.31 27.47 26.48C27.45 26.53 27.43 26.59 27.41 26.64C26.94 27.89 27.22 29.26 28.14 30.21C28.22 30.29 28.3 30.38 28.39 30.46C28.86 30.92 29.13 31.54 29.13 32.2C29.13 32.86 28.87 33.48 28.39 33.94C28.31 34.02 28.23 34.1 28.15 34.18C27.23 35.13 26.94 36.49 27.4 37.74C27.42 37.8 27.45 37.86 27.47 37.92C27.98 39.09 29.05 39.87 30.29 39.97C30.52 39.99 30.76 40 30.99 40C31.53 40.01 32.04 40.2 32.46 40.53C32.55 40.6 32.63 40.68 32.71 40.77C33.16 41.25 33.39 41.88 33.36 42.55C33.29 43.98 34.07 45.27 35.37 45.85C35.52 45.92 35.67 45.97 35.82 46.02C36.1 46.1 36.38 46.15 36.66 46.16C36.87 46.16 37.08 46.16 37.28 46.13C37.98 46.03 38.64 45.7 39.17 45.18C39.4 44.96 39.65 44.77 39.92 44.63C40.7 44.21 41.68 44.28 42.39 44.79C42.93 45.18 43.57 45.51 44.17 45.8C44.88 46.14 45.7 46.21 46.5 45.98C46.84 45.88 47.16 45.73 47.45 45.54C47.82 45.29 48.14 44.98 48.38 44.61C48.38 44.73 48.38 44.85 48.38 44.97C48.35 46.06 47.76 46.81 47.12 47.24C46.68 47.54 46.13 47.73 45.58 47.71C45.17 47.69 44.73 47.62 44.31 47.39C43.54 46.96 42.57 46.57 41.65 46.18C40.66 45.76 39.52 45.83 38.57 46.31C37.74 46.73 36.82 47.04 36.1 47.37C35.8 47.51 35.49 47.57 35.2 47.59C34.43 47.66 33.64 47.36 33.11 46.8C32.86 46.54 32.63 46.22 32.48 45.83C32.25 45.21 32.02 44.47 31.89 43.67C31.8 43.14 31.58 42.63 31.27 42.18C31.06 41.88 30.81 41.61 30.52 41.38C29.84 40.84 28.99 40.54 28.12 40.54C28.05 40.54 27.98 40.54 27.92 40.54C26.44 40.61 25.49 39.72 25.07 38.83C25.03 38.74 24.99 38.66 24.96 38.57C24.65 37.71 24.67 36.54 25.55 35.59C25.7 35.43 25.85 35.27 26 35.11C26.69 34.38 27.08 33.41 27.08 32.4C27.08 31.39 26.69 30.41 25.99 29.68C25.84 29.52 25.7 29.37 25.56 29.22C24.67 28.27 24.65 27.09 24.96 26.22C24.99 26.13 25.03 26.04 25.07 25.95C25.49 25.06 26.43 24.17 27.91 24.25C28.85 24.3 29.76 24.01 30.49 23.43C30.79 23.19 31.06 22.91 31.27 22.59C31.57 22.15 31.78 21.66 31.87 21.15C32.01 20.34 32.25 19.6 32.48 18.96C32.62 18.57 32.85 18.26 33.09 18.01C33.62 17.45 34.42 17.14 35.2 17.22C35.48 17.25 35.78 17.3 36.08 17.44C36.8 17.76 37.72 18.08 38.56 18.5C39.51 18.98 40.64 19.03 41.63 18.63C41.68 18.63 41.65 18.55 41.7 18.54C41.75 18.54 41.88 18.6 41.93 18.59C42.68 18.2 43.46 17.83 44.1 17.43C44.67 17.07 45.29 16.99 45.84 17.05C46.24 17.1 46.64 17.23 46.98 17.44C47.67 17.86 48.32 18.63 48.37 19.76C48.13 19.4 47.82 19.09 47.45 18.85L47.47 18.87ZM49.59 40.77C49.67 40.68 49.76 40.6 49.85 40.53C50.26 40.2 50.77 40.02 51.31 40C51.55 40 51.78 39.98 52.01 39.96C53.26 39.85 54.32 39.08 54.83 37.91C54.85 37.86 54.87 37.81 54.89 37.75C55.15 37.07 55.17 36.35 55 35.68C55.8 36.62 55.82 37.74 55.51 38.58C55.48 38.67 55.44 38.76 55.4 38.85C54.98 39.74 54.05 40.63 52.56 40.55C51.47 40.49 50.39 40.89 49.6 41.65C49.55 41.7 49.5 41.74 49.46 41.79C49.26 42.01 49.09 42.25 48.94 42.5C48.92 41.85 49.14 41.23 49.58 40.76L49.59 40.77ZM54.4 32.41C54.4 31.63 54.7 30.89 55.25 30.33C55.27 30.31 55.28 30.3 55.3 30.28C54.87 30.98 54.62 31.79 54.62 32.62C54.62 33.09 54.71 33.54 54.85 33.98C54.55 33.51 54.39 32.97 54.39 32.4L54.4 32.41ZM56.44 25.84C56.41 25.77 56.38 25.69 56.35 25.62C55.74 24.24 54.44 23.36 52.96 23.28C52.69 23.27 52.41 23.25 52.13 23.23C51.5 23.19 50.9 22.94 50.42 22.53C50.32 22.44 50.22 22.35 50.13 22.24C49.78 21.85 49.55 21.37 49.45 20.86C49.65 21.2 49.87 21.52 50.15 21.8C51.05 22.7 52.31 23.19 53.58 23.12C55.32 23.03 56.43 24.06 56.93 25.11C56.98 25.21 57.02 25.31 57.06 25.41C57.43 26.41 57.43 27.77 56.45 28.9C56.37 28.99 56.28 29.08 56.2 29.17C56.77 28.17 56.88 26.95 56.45 25.83L56.44 25.84ZM47.49 16.59C47.12 16.37 46.72 16.22 46.31 16.13C45.33 15.91 44.34 16.09 43.51 16.61C42.83 17.04 42.05 17.44 41.33 17.77C40.49 18.23 39.39 18.17 38.55 17.64C38.25 17.45 37.96 17.23 37.69 16.99C36.65 16.05 35.21 15.73 33.86 16.17C33.68 16.23 33.51 16.29 33.35 16.37C31.89 17.06 31.02 18.52 31.1 20.15C31.14 20.93 30.88 21.68 30.36 22.26C30.27 22.37 30.17 22.46 30.06 22.56C29.58 22.97 28.99 23.2 28.36 23.25C28.08 23.27 27.8 23.29 27.53 23.3C26.04 23.37 24.75 24.26 24.13 25.64C24.1 25.7 24.08 25.77 24.05 25.83C23.48 27.31 23.83 28.93 24.94 30.05C25.04 30.15 25.13 30.25 25.23 30.34C25.78 30.89 26.08 31.63 26.08 32.42C26.08 33.2 25.78 33.94 25.23 34.49C25.13 34.59 25.04 34.68 24.94 34.78C23.83 35.89 23.48 37.51 24.04 38.99C24.07 39.06 24.1 39.13 24.13 39.2C24.74 40.58 26.04 41.47 27.52 41.54C27.79 41.55 28.07 41.57 28.35 41.58C28.99 41.62 29.58 41.87 30.06 42.28C30.16 42.37 30.26 42.46 30.35 42.57C30.87 43.15 31.13 43.9 31.09 44.69C31.01 46.32 31.88 47.78 33.34 48.47C33.51 48.55 33.67 48.62 33.85 48.67C34.17 48.77 34.49 48.83 34.8 48.85C35.04 48.87 35.27 48.86 35.5 48.83C36.3 48.74 37.06 48.4 37.68 47.84C37.95 47.6 38.23 47.38 38.53 47.19C39.37 46.64 40.46 46.62 41.32 47.05C42.03 47.41 42.82 47.78 43.51 48.21C44.33 48.72 45.32 48.9 46.29 48.69C46.7 48.6 47.1 48.45 47.47 48.23C48.03 47.9 48.48 47.44 48.81 46.9C48.81 46.95 48.81 47 48.81 47.06C48.8 48.28 48.19 49.15 47.5 49.69C47.02 50.07 46.41 50.3 45.82 50.35C45.36 50.39 44.85 50.35 44.36 50.15C43.46 49.79 42.37 49.36 41.36 48.79C40.31 48.2 39.02 48.13 37.89 48.54C36.86 48.91 35.78 49.3 34.95 49.81C34.6 50.02 34.25 50.14 33.9 50.22C32.96 50.43 31.97 50.14 31.29 49.57C30.96 49.29 30.63 48.95 30.41 48.5C30.06 47.8 29.75 46.94 29.65 45.95C29.58 45.31 29.36 44.68 29.01 44.13C28.78 43.76 28.49 43.43 28.15 43.15C27.36 42.48 26.35 42.11 25.31 42.11C25.23 42.11 25.16 42.11 25.08 42.11C23.35 42.2 22.23 41.17 21.73 40.12C21.68 40.02 21.64 39.92 21.6 39.82C21.23 38.82 21.23 37.46 22.21 36.33C22.37 36.14 22.55 35.95 22.74 35.76C23.56 34.93 24.03 33.79 24.03 32.61C24.03 31.43 23.56 30.29 22.73 29.46C22.55 29.28 22.38 29.1 22.23 28.92C21.23 27.79 21.23 26.41 21.6 25.4C21.64 25.29 21.69 25.19 21.74 25.08C22.25 24.04 23.36 23.02 25.08 23.12C26.2 23.18 27.29 22.81 28.13 22.1C28.48 21.8 28.78 21.45 29.02 21.06C29.35 20.52 29.57 19.92 29.64 19.3C29.75 18.3 30.06 17.42 30.42 16.71C30.64 16.27 30.96 15.93 31.29 15.66C31.97 15.09 32.97 14.8 33.92 15.02C34.25 15.1 34.6 15.21 34.94 15.42C35.77 15.93 36.85 16.33 37.89 16.69C39.02 17.09 40.29 17.01 41.34 16.44C41.38 16.44 41.3 16.32 41.34 16.32C41.38 16.32 41.55 16.42 41.59 16.41C42.41 15.88 43.29 15.47 44.04 15.1C44.71 14.77 45.42 14.73 46.04 14.85C46.48 14.93 46.92 15.11 47.3 15.36C48.04 15.86 48.71 16.7 48.8 17.9C48.48 17.37 48.03 16.91 47.47 16.58L47.49 16.59ZM50.12 42.57C50.21 42.46 50.32 42.36 50.42 42.27C50.9 41.86 51.49 41.63 52.12 41.58C52.4 41.56 52.68 41.54 52.95 41.53C54.44 41.46 55.73 40.57 56.34 39.19C56.37 39.13 56.39 39.07 56.42 39C56.74 38.16 56.76 37.27 56.52 36.46C57.4 37.56 57.4 38.87 57.04 39.84C57 39.95 56.95 40.05 56.9 40.16C56.39 41.2 55.29 42.21 53.56 42.13C52.33 42.06 51.12 42.51 50.22 43.36C50.17 43.41 50.11 43.46 50.06 43.52C49.78 43.81 49.56 44.14 49.37 44.49C49.38 43.78 49.63 43.11 50.1 42.58L50.12 42.57ZM56.13 34.43C55.8 33.89 55.62 33.27 55.62 32.63C55.62 31.72 55.96 30.87 56.58 30.22C56.6 30.2 56.62 30.18 56.63 30.17C56.13 30.97 55.84 31.89 55.84 32.85C55.84 33.4 55.95 33.93 56.12 34.44L56.13 34.43ZM31.92 13.92C31.72 13.99 31.53 14.07 31.35 14.16C29.74 14.96 28.77 16.6 28.86 18.42C28.91 19.32 28.61 20.19 28.03 20.87C27.92 20.99 27.81 21.11 27.69 21.22C27.14 21.7 26.47 22 25.74 22.08C25.42 22.11 25.1 22.14 24.78 22.14C23.05 22.18 21.53 23.18 20.81 24.78C20.78 24.85 20.75 24.93 20.72 25C20.05 26.71 20.46 28.59 21.76 29.87C21.87 29.98 21.99 30.09 22.09 30.21C22.71 30.86 23.05 31.72 23.05 32.62C23.05 33.52 22.71 34.38 22.09 35.03C21.98 35.14 21.87 35.26 21.76 35.37C20.45 36.64 20.04 38.52 20.71 40.23C20.74 40.31 20.78 40.39 20.81 40.47C21.53 42.06 23.05 43.07 24.77 43.1C25.09 43.1 25.41 43.12 25.72 43.16C26.45 43.23 27.13 43.53 27.68 44.02C27.8 44.12 27.91 44.24 28.01 44.36C28.6 45.04 28.9 45.91 28.85 46.82C28.76 48.64 29.72 50.28 31.33 51.08C31.51 51.17 31.7 51.25 31.9 51.32C32.25 51.44 32.61 51.52 32.97 51.55C33.23 51.57 33.5 51.57 33.76 51.55C34.66 51.47 35.52 51.12 36.23 50.52C36.54 50.26 36.86 50.01 37.17 49.78C38.08 49.11 39.27 48.98 40.28 49.34C41.16 49.66 42.1 50.09 42.87 50.66C43.8 51.35 44.95 51.63 46.1 51.44C46.59 51.36 47.07 51.2 47.52 50.96C48.27 50.56 48.87 49.97 49.27 49.25C49.25 50.57 48.64 51.54 47.91 52.16C47.38 52.61 46.73 52.91 46.08 53.02C45.57 53.11 45 53.11 44.43 52.94C43.4 52.64 42.19 52.19 41.09 51.43C39.97 50.66 38.55 50.46 37.24 50.79C36.01 51.1 34.77 51.58 33.83 52.28C33.44 52.57 33.03 52.75 32.64 52.87C31.52 53.22 30.35 52.94 29.52 52.37C29.1 52.08 28.69 51.7 28.38 51.2C27.9 50.42 27.52 49.43 27.45 48.25C27.41 47.49 27.17 46.76 26.79 46.1C26.53 45.66 26.21 45.27 25.83 44.93C24.93 44.13 23.75 43.68 22.54 43.68C22.45 43.68 22.37 43.68 22.28 43.68C20.3 43.78 19.02 42.62 18.43 41.42C18.37 41.31 18.32 41.19 18.28 41.08C17.84 39.94 17.82 38.38 18.91 37.08C19.09 36.86 19.29 36.64 19.51 36.43C20.47 35.49 21.01 34.19 21.01 32.85C21.01 31.5 20.46 30.2 19.5 29.26C19.29 29.06 19.1 28.85 18.93 28.64C17.82 27.33 17.84 25.75 18.28 24.6C18.33 24.48 18.38 24.35 18.44 24.23C19.04 23.04 20.31 21.9 22.27 22C23.57 22.07 24.84 21.62 25.8 20.77C26.2 20.41 26.54 19.99 26.8 19.54C27.17 18.9 27.39 18.19 27.43 17.46C27.5 16.26 27.89 15.26 28.38 14.47C28.68 13.98 29.09 13.61 29.5 13.32C30.34 12.73 31.53 12.46 32.66 12.83C33.04 12.95 33.44 13.13 33.82 13.41C34.04 13.57 34.28 13.73 34.54 13.87C33.69 13.64 32.78 13.65 31.91 13.95L31.92 13.92ZM50.68 44.35C50.79 44.23 50.9 44.11 51.02 44C51.56 43.52 52.24 43.22 52.96 43.15C53.28 43.12 53.6 43.09 53.92 43.09C55.65 43.05 57.17 42.05 57.89 40.45C57.92 40.38 57.95 40.31 57.98 40.23C58.37 39.23 58.39 38.18 58.08 37.21C59.05 38.48 59.02 39.97 58.6 41.07C58.55 41.19 58.5 41.32 58.44 41.44C57.85 42.63 56.58 43.77 54.61 43.67C53.24 43.6 51.89 44.09 50.89 45.03C50.83 45.09 50.77 45.15 50.71 45.21C50.36 45.57 50.09 45.99 49.86 46.44C49.9 45.67 50.18 44.95 50.68 44.36V44.35ZM57.35 34.7C57.05 34.13 56.87 33.49 56.87 32.82C56.87 31.79 57.26 30.82 57.95 30.07C57.95 30.07 57.97 30.05 57.98 30.04C57.42 30.93 57.1 31.96 57.1 33.03C57.1 33.6 57.19 34.16 57.35 34.69V34.7ZM29.95 11.71C29.74 11.79 29.53 11.88 29.32 11.98C27.55 12.89 26.5 14.71 26.6 16.72C26.65 17.74 26.32 18.73 25.67 19.51C25.55 19.65 25.42 19.79 25.29 19.91C24.68 20.47 23.92 20.82 23.1 20.93C22.74 20.98 22.37 21 22.01 21.01C20.04 21.03 18.29 22.14 17.47 23.94C17.43 24.02 17.4 24.11 17.36 24.19C16.59 26.13 17.06 28.27 18.56 29.7C18.69 29.82 18.82 29.95 18.94 30.08C19.63 30.83 20.02 31.8 20.02 32.83C20.02 33.85 19.63 34.83 18.94 35.58C18.82 35.71 18.69 35.84 18.56 35.96C17.06 37.39 16.59 39.53 17.35 41.47C17.39 41.56 17.43 41.65 17.47 41.74C18.3 43.53 20.04 44.66 22 44.66C22.36 44.66 22.72 44.68 23.08 44.73C23.9 44.84 24.67 45.19 25.28 45.76C25.41 45.88 25.54 46.01 25.65 46.15C26.3 46.93 26.64 47.92 26.59 48.95C26.49 50.97 27.54 52.78 29.3 53.69C29.5 53.79 29.71 53.89 29.92 53.96C30.31 54.1 30.7 54.19 31.1 54.23C31.39 54.26 31.68 54.27 31.97 54.25C32.97 54.19 33.93 53.82 34.73 53.18C35.08 52.91 35.43 52.63 35.77 52.35C36.74 51.55 38.04 51.31 39.2 51.61C40.26 51.88 41.34 52.37 42.2 53.08C43.23 53.94 44.55 54.32 45.88 54.16C46.45 54.09 47 53.92 47.53 53.66C48.48 53.18 49.22 52.44 49.69 51.54C49.64 52.9 49.04 53.92 48.29 54.62C47.72 55.15 47.01 55.51 46.31 55.67C45.75 55.8 45.11 55.85 44.47 55.72C43.31 55.49 41.98 55 40.8 54.06C39.61 53.12 38.05 52.77 36.56 53.04C35.14 53.29 33.72 53.86 32.68 54.75C32.25 55.11 31.79 55.36 31.34 55.53C30.05 56.01 28.68 55.76 27.7 55.17C27.2 54.87 26.69 54.45 26.3 53.9C25.7 53.05 25.24 51.92 25.21 50.55C25.19 49.68 24.95 48.83 24.53 48.08C24.25 47.58 23.89 47.12 23.46 46.72C22.45 45.79 21.11 45.26 19.73 45.26C19.64 45.26 19.54 45.26 19.44 45.26C17.21 45.37 15.76 44.07 15.09 42.73C15.03 42.6 14.97 42.47 14.92 42.34C14.42 41.06 14.38 39.3 15.58 37.82C15.78 37.57 16 37.33 16.26 37.09C17.35 36.04 17.98 34.59 17.98 33.07C17.98 31.55 17.35 30.09 16.26 29.04C16.02 28.81 15.81 28.58 15.62 28.35C14.39 26.86 14.43 25.08 14.94 23.8C15 23.66 15.06 23.52 15.13 23.38C15.81 22.05 17.25 20.77 19.46 20.88C20.94 20.96 22.38 20.43 23.46 19.44C23.91 19.02 24.29 18.54 24.57 18.01C24.97 17.27 25.2 16.45 25.22 15.61C25.26 14.22 25.73 13.08 26.34 12.22C26.73 11.68 27.22 11.27 27.71 10.98C28.7 10.38 30.09 10.13 31.39 10.63C31.83 10.8 32.27 11.04 32.68 11.39C32.78 11.48 32.9 11.54 33.01 11.62C32.03 11.34 30.96 11.36 29.94 11.73L29.95 11.71ZM51.21 46.16C51.33 46.02 51.46 45.88 51.59 45.76C52.2 45.2 52.96 44.85 53.78 44.74C54.14 44.69 54.51 44.67 54.87 44.66C56.85 44.66 58.58 43.53 59.41 41.73C59.45 41.65 59.48 41.57 59.52 41.48C59.98 40.32 59.99 39.1 59.61 37.99C60.66 39.43 60.62 41.1 60.14 42.32C60.08 42.46 60.02 42.6 59.95 42.74C59.27 44.07 57.83 45.35 55.62 45.24C54.11 45.16 52.63 45.7 51.52 46.73C51.45 46.79 51.39 46.86 51.32 46.92C50.9 47.35 50.57 47.86 50.31 48.4C50.38 47.58 50.68 46.8 51.21 46.16ZM58.61 35.12C58.29 34.48 58.1 33.78 58.1 33.05C58.1 31.9 58.53 30.81 59.29 29.97C59.29 29.97 59.31 29.95 59.32 29.94C58.68 30.92 58.33 32.08 58.33 33.27C58.33 33.9 58.43 34.53 58.62 35.12H58.61ZM51.75 47.96C51.88 47.8 52.02 47.65 52.18 47.5C52.86 46.87 53.7 46.46 54.61 46.32C55.01 46.26 55.42 46.23 55.83 46.23C58.05 46.26 60.01 45.02 60.95 43.01C60.99 42.92 61.03 42.83 61.07 42.73C61.6 41.42 61.61 40.02 61.16 38.77C62.3 40.38 62.23 42.23 61.69 43.58C61.63 43.74 61.56 43.89 61.48 44.05C60.71 45.53 59.11 46.94 56.65 46.81C55 46.73 53.38 47.31 52.17 48.43C52.1 48.5 52.02 48.57 51.95 48.64C51.45 49.14 51.07 49.73 50.78 50.36C50.87 49.48 51.21 48.65 51.77 47.96H51.75ZM59.32 33.27C59.32 32 59.79 30.79 60.62 29.85C60.62 29.85 60.64 29.83 60.65 29.82C59.94 30.9 59.55 32.17 59.55 33.48C59.55 34.18 59.66 34.87 59.87 35.53C59.52 34.83 59.32 34.06 59.32 33.27ZM30.3 7.21995C28.95 6.72995 27.44 6.71995 26.01 7.26995C25.76 7.36995 25.51 7.47995 25.27 7.60995C23.19 8.72995 21.96 10.91 22.08 13.32C22.14 14.58 21.74 15.81 20.97 16.78C20.83 16.96 20.67 17.13 20.51 17.29C19.77 18 18.84 18.46 17.83 18.64C17.39 18.72 16.93 18.75 16.48 18.74C14.02 18.67 11.83 20.04 10.79 22.26C10.74 22.36 10.7 22.46 10.65 22.57C9.67995 24.97 10.27 27.63 12.16 29.38C12.32 29.53 12.48 29.69 12.62 29.85C13.46 30.79 13.92 32 13.92 33.27C13.92 34.54 13.45 35.75 12.62 36.69C12.47 36.86 12.32 37.01 12.15 37.17C10.26 38.92 9.65995 41.58 10.64 43.98C10.69 44.09 10.74 44.21 10.79 44.32C11.83 46.53 14.02 47.89 16.47 47.82C16.92 47.81 17.37 47.84 17.8 47.91C18.81 48.08 19.75 48.55 20.49 49.26C20.65 49.41 20.8 49.58 20.94 49.75C21.73 50.73 22.13 51.96 22.07 53.23C21.95 55.63 23.18 57.81 25.25 58.93C25.49 59.06 25.74 59.17 25.99 59.27C26.45 59.45 26.92 59.57 27.39 59.63C27.74 59.68 28.08 59.7 28.42 59.68C29.62 59.64 30.78 59.25 31.77 58.53C32.2 58.22 32.61 57.88 33 57.51C34.1 56.46 35.61 56 37.07 56.17C38.47 56.34 39.86 56.95 40.89 57.95C42.13 59.16 43.79 59.75 45.47 59.63C46.19 59.58 46.91 59.4 47.6 59.09C48.96 58.47 49.99 57.41 50.59 56.13C50.49 57.58 49.88 58.72 49.09 59.55C48.43 60.24 47.62 60.72 46.82 60.99C46.15 61.21 45.39 61.34 44.6 61.28C43.18 61.17 41.6 60.63 40.25 59.32C38.92 58.03 37.08 57.39 35.24 57.52C33.43 57.65 31.67 58.4 30.41 59.66C29.89 60.17 29.34 60.54 28.78 60.81C27.15 61.57 25.39 61.36 24.1 60.73C23.42 60.4 22.74 59.92 22.19 59.26C21.34 58.25 20.73 56.86 20.77 55.11C20.79 54.02 20.54 52.94 20.04 51.98C19.71 51.34 19.28 50.75 18.75 50.24C17.51 49.04 15.85 48.37 14.13 48.37C14.02 48.37 13.9 48.37 13.79 48.37C11.06 48.51 9.27995 46.94 8.43995 45.29C8.35995 45.13 8.28995 44.98 8.21995 44.82C7.58995 43.27 7.50995 41.11 8.91995 39.28C9.15995 38.97 9.42995 38.67 9.74995 38.38C11.11 37.12 11.89 35.34 11.89 33.48C11.89 31.62 11.11 29.84 9.74995 28.58C9.44995 28.31 9.18995 28.02 8.95995 27.73C7.50995 25.89 7.58995 23.71 8.21995 22.14C8.28995 21.97 8.36995 21.79 8.45995 21.62C9.31995 19.99 11.09 18.45 13.79 18.59C15.63 18.69 17.43 18.01 18.74 16.73C19.29 16.2 19.74 15.58 20.07 14.9C20.53 13.96 20.77 12.92 20.75 11.86C20.71 10.09 21.34 8.68995 22.21 7.66995C22.76 7.02995 23.43 6.55995 24.09 6.22995C25.39 5.59995 27.18 5.38995 28.82 6.17995C29.32 6.41995 29.82 6.75995 30.28 7.20995L30.3 7.21995ZM52.28 49.75C52.42 49.57 52.58 49.4 52.75 49.24C53.49 48.53 54.42 48.07 55.42 47.89C55.86 47.81 56.32 47.78 56.77 47.79C59.24 47.86 61.42 46.49 62.46 44.27C62.51 44.17 62.55 44.07 62.59 43.96C63.19 42.49 63.19 40.92 62.67 39.52C63.89 41.29 63.81 43.33 63.2 44.81C63.13 44.98 63.05 45.16 62.96 45.33C62.1 46.96 60.34 48.49 57.63 48.36C55.84 48.27 54.08 48.9 52.77 50.11C52.69 50.18 52.61 50.26 52.53 50.34C51.96 50.91 51.52 51.58 51.19 52.3C51.31 51.37 51.68 50.49 52.27 49.75H52.28ZM60.54 33.48C60.54 32.09 61.05 30.76 61.96 29.73C61.96 29.73 61.98 29.71 61.99 29.7C61.21 30.88 60.77 32.26 60.77 33.7C60.77 34.47 60.89 35.22 61.13 35.94C60.76 35.18 60.55 34.35 60.55 33.48H60.54ZM29.03 5.05995C27.47 4.41995 25.71 4.37995 24.05 5.03995C23.78 5.14995 23.51 5.26995 23.26 5.40995C21.03 6.63995 19.7 8.98995 19.84 11.6C19.91 12.98 19.48 14.33 18.63 15.4C18.48 15.6 18.31 15.78 18.13 15.96C17.32 16.75 16.3 17.27 15.21 17.47C14.73 17.56 14.23 17.6 13.73 17.58C11.03 17.48 8.60995 18.96 7.46995 21.39C7.41995 21.5 7.36995 21.61 7.31995 21.73C6.23995 24.35 6.89995 27.27 8.98995 29.19C9.16995 29.35 9.33995 29.53 9.49995 29.71C10.41 30.74 10.92 32.08 10.92 33.47C10.92 34.86 10.41 36.19 9.50995 37.22C9.34995 37.4 9.17995 37.58 8.99995 37.74C6.90995 39.65 6.25995 42.57 7.32995 45.2C7.37995 45.32 7.43995 45.45 7.48995 45.57C8.63995 47.98 11.05 49.46 13.74 49.36C14.23 49.34 14.72 49.38 15.2 49.47C16.3 49.67 17.33 50.2 18.14 50.99C18.31 51.16 18.48 51.34 18.63 51.53C19.48 52.61 19.92 53.96 19.85 55.35C19.72 57.95 21.04 60.3 23.26 61.53C23.52 61.67 23.78 61.8 24.06 61.91C24.56 62.11 25.06 62.24 25.57 62.32C25.94 62.38 26.32 62.4 26.69 62.39C27.99 62.36 29.25 61.95 30.33 61.19C30.8 60.86 31.24 60.49 31.65 60.07C32.81 58.9 34.43 58.32 36.04 58.43C37.61 58.54 39.15 59.22 40.26 60.36C41.61 61.75 43.43 62.44 45.29 62.34C46.09 62.3 46.88 62.11 47.65 61.78C49.21 61.1 50.38 59.9 51.04 58.44C50.92 59.92 50.31 61.11 49.5 62C48.8 62.77 47.93 63.31 47.08 63.63C46.36 63.9 45.54 64.07 44.67 64.04C43.12 64 41.41 63.43 39.98 61.93C38.58 60.47 36.61 59.68 34.59 59.75C32.58 59.81 30.65 60.66 29.29 62.1C28.73 62.69 28.13 63.12 27.51 63.43C25.71 64.33 23.76 64.14 22.32 63.49C21.56 63.15 20.79 62.63 20.15 61.92C19.18 60.83 18.49 59.32 18.56 57.38C18.6 56.17 18.34 54.99 17.81 53.92C17.46 53.21 16.99 52.56 16.42 51.99C15.07 50.66 13.25 49.92 11.36 49.92C11.24 49.92 11.11 49.92 10.99 49.92C8.00995 50.07 6.06995 48.37 5.13995 46.57C5.04995 46.4 4.96995 46.23 4.89995 46.06C4.20995 44.37 4.10995 42.01 5.61995 40.01C5.87995 39.67 6.16995 39.34 6.51995 39.03C8.01995 37.66 8.86995 35.72 8.87995 33.69C8.87995 31.66 8.01995 29.72 6.51995 28.35C6.18995 28.05 5.90995 27.74 5.65995 27.42C4.09995 25.4 4.18995 23.02 4.88995 21.31C4.96995 21.12 5.05995 20.93 5.15995 20.74C6.09995 18.96 8.04995 17.29 10.98 17.45C13 17.55 14.97 16.8 16.41 15.39C17.01 14.8 17.5 14.11 17.85 13.36C18.35 12.32 18.59 11.17 18.55 9.99995C18.47 8.03995 19.19 6.50995 20.18 5.40995C20.81 4.71995 21.56 4.20995 22.31 3.87995C23.77 3.22995 25.75 3.03995 27.57 3.97995C28.08 4.23995 28.57 4.60995 29.04 5.05995H29.03ZM52.82 51.54C52.98 51.34 53.14 51.15 53.33 50.98C54.14 50.2 55.15 49.68 56.25 49.47C56.74 49.38 57.23 49.34 57.73 49.36C60.44 49.46 62.85 47.98 63.99 45.55C64.04 45.44 64.09 45.33 64.14 45.21C64.81 43.58 64.81 41.84 64.22 40.3C65.52 42.24 65.42 44.46 64.76 46.07C64.68 46.26 64.59 46.45 64.49 46.64C63.55 48.42 61.61 50.08 58.67 49.94C56.74 49.84 54.85 50.52 53.43 51.82C53.34 51.9 53.26 51.98 53.17 52.06C52.54 52.69 52.04 53.43 51.69 54.23C51.83 53.26 52.22 52.33 52.83 51.55L52.82 51.54ZM62.39 36.33C62 35.51 61.77 34.61 61.77 33.68C61.77 32.17 62.32 30.72 63.3 29.59C63.3 29.59 63.32 29.57 63.32 29.56C62.47 30.83 61.99 32.34 61.99 33.89C61.99 34.72 62.13 35.54 62.38 36.32L62.39 36.33ZM53.77 14.04C55.32 15.59 57.48 16.43 59.67 16.31C63.21 16.14 65.4 18.35 66.28 20.49C67.1199 22.52 67.17 25.43 64.94 27.74C66.31 25.76 66.62 23.24 65.66 20.92C65.6 20.78 65.54 20.65 65.48 20.51C64.22 17.89 61.59 16.31 58.66 16.44C58.12 16.46 57.59 16.42 57.07 16.32C55.87 16.09 54.76 15.51 53.88 14.64C53.69 14.45 53.52 14.26 53.36 14.05C52.89 13.45 52.54 12.76 52.31 12.04C52.68 12.77 53.16 13.44 53.75 14.03L53.77 14.04ZM39.69 3.24995C42.06 0.629953 45.18 0.639953 47.32 1.52995C49.08 2.25995 50.88 3.89995 51.36 6.41995C50.63 4.86995 49.35 3.59995 47.67 2.87995C46.83 2.51995 45.97 2.32995 45.11 2.29995C43.07 2.20995 41.07 3.00995 39.6 4.57995C38.4 5.85995 36.72 6.61995 34.97 6.65995C33.38 6.71995 31.82 6.14995 30.64 5.07995C31.66 5.54995 32.77 5.80995 33.91 5.80995C36.11 5.80995 38.22 4.86995 39.69 3.23995V3.24995ZM28.13 64.56C25.76 67.18 22.64 67.17 20.5 66.28C18.36 65.39 16.14 63.19 16.32 59.67C16.43 57.47 15.6 55.32 14.05 53.77C12.59 52.31 10.6 51.49 8.54995 51.49C8.41995 51.49 8.28995 51.49 8.14995 51.5C4.61995 51.67 2.41995 49.46 1.53995 47.32C0.649953 45.18 0.639953 42.05 3.25995 39.69C4.88995 38.22 5.82995 36.11 5.82995 33.91C5.82995 31.71 4.88995 29.6 3.25995 28.13C0.639953 25.76 0.649953 22.64 1.53995 20.5C2.42995 18.36 4.62995 16.14 8.14995 16.32C10.35 16.43 12.5 15.61 14.05 14.05C15.6 12.5 16.43 10.34 16.32 8.14995C16.14 4.61995 18.36 2.41995 20.5 1.52995C22.56 0.679953 25.52 0.639953 27.85 2.96995C26.07 2.12995 24.01 2.04995 22.08 2.82995C21.79 2.94995 21.5 3.08995 21.23 3.23995C18.84 4.57995 17.43 7.10995 17.57 9.90995C17.65 11.41 17.18 12.88 16.27 14.05C16.1 14.27 15.92 14.47 15.73 14.66C14.86 15.52 13.75 16.1 12.57 16.34C12.05 16.44 11.5 16.49 10.96 16.47C8.00995 16.33 5.37995 17.93 4.11995 20.57C4.05995 20.69 4.00995 20.81 3.95995 20.94C2.77995 23.79 3.49995 26.97 5.77995 29.05C5.97995 29.23 6.15995 29.42 6.32995 29.61C7.30995 30.74 7.85995 32.19 7.85995 33.7C7.85995 35.21 7.30995 36.66 6.32995 37.79C6.15995 37.99 5.96995 38.18 5.77995 38.36C3.49995 40.44 2.77995 43.61 3.95995 46.47C4.01995 46.61 4.07995 46.74 4.13995 46.87C5.39995 49.49 8.02995 51.08 10.96 50.95C11.5 50.93 12.03 50.97 12.55 51.07C13.75 51.3 14.86 51.88 15.74 52.75C15.93 52.94 16.1 53.13 16.27 53.34C17.19 54.52 17.67 56 17.59 57.5C17.45 60.29 18.86 62.82 21.23 64.16C21.5 64.31 21.79 64.45 22.09 64.57C22.62 64.79 23.17 64.9399 23.71 65.02C24.11 65.0799 24.51 65.11 24.91 65.11C26.31 65.1 27.67 64.67 28.85 63.87C28.98 63.78 29.11 63.67 29.24 63.58C28.85 63.87 28.48 64.2 28.15 64.57L28.13 64.56ZM47.32 66.28C45.18 67.17 42.05 67.18 39.69 64.56C38.22 62.93 36.11 61.99 33.91 61.99C32.28 61.99 30.7 62.51 29.39 63.44C29.69 63.2 29.98 62.94 30.26 62.65C31.48 61.35 33.21 60.65 34.98 60.71C36.73 60.77 38.41 61.51 39.61 62.79C41.07 64.35 43.05 65.14 45.09 65.07C45.96 65.04 46.84 64.85 47.69 64.49C49.44 63.75 50.76 62.4 51.48 60.76C51.2 63.64 49.24 65.49 47.34 66.28H47.32ZM66.29 47.32C65.4 49.46 63.2 51.67 59.68 51.5C57.49 51.39 55.33 52.21 53.78 53.77C53.08 54.47 52.54 55.3 52.15 56.19C52.31 55.16 52.72 54.18 53.36 53.35C53.53 53.13 53.71 52.93 53.91 52.73C54.78 51.87 55.88 51.29 57.07 51.05C57.6 50.94 58.14 50.9 58.68 50.92C61.63 51.05 64.2599 49.45 65.52 46.81C65.5799 46.69 65.63 46.57 65.68 46.44C66.43 44.62 66.41 42.68 65.7 40.96C67.1499 43.09 67.02 45.53 66.29 47.3V47.32Z" fill="#1D4C29"/>
</g>
<defs>
<clipPath id="clip0_180_2864">
<rect width="67.81" height="67.81" fill="white"/>
</clipPath>
</defs>
</svg>
