<svg width="89" height="82" viewBox="0 0 89 82" fill="none" xmlns="http://www.w3.org/2000/svg">
<rect x="0.5" width="88" height="82" rx="14" fill="#1D4C29" fill-opacity="0.07"/>
<g clip-path="url(#clip0_18_1738)">
<path d="M52.7258 45.9262C50.5016 43.8238 47.5664 42.6559 44.5094 42.666C48.5109 42.666 51.7406 39.416 51.7406 35.4246C51.7406 31.4332 48.4906 28.1934 44.4992 28.1934C40.4977 28.1934 37.268 31.4434 37.268 35.4348C37.268 39.4262 40.5078 42.6559 44.4992 42.666C38.7813 42.666 33.8656 46.7082 32.7383 52.3145C34.932 54.5996 37.7453 56.2043 40.843 56.9254C41.1883 54.9043 43.1078 53.5434 45.1289 53.8988C46.6828 54.1629 47.8914 55.3816 48.1555 56.9254C51.243 56.2043 54.0562 54.6098 56.2602 52.3145C55.7828 49.8668 54.5438 47.6324 52.7258 45.9262Z" fill="#1D4C29"/>
<path d="M68.0523 38.5523H66.7828C65.6453 28.132 57.3781 19.8648 46.9578 18.7273V17.4477C46.9477 16.0969 45.8508 15 44.5 15C43.1492 15 42.0523 16.0969 42.0523 17.4477V18.7172C31.632 19.8547 23.3648 28.1219 22.2273 38.5422H20.9477C19.5969 38.5523 18.5 39.6492 18.5 41C18.5 42.3508 19.5969 43.4477 20.9477 43.4477H22.2172C23.3547 53.868 31.6219 62.1352 42.0422 63.2727V64.5422C42.0422 65.893 43.1391 66.9898 44.4898 66.9898C45.8406 66.9898 46.9375 65.893 46.9375 64.5422V63.2727C57.3578 62.1352 65.625 53.868 66.7625 43.4477H68.032C69.3828 43.4477 70.4797 42.3508 70.4797 41C70.5 39.6492 69.4031 38.5523 68.0523 38.5523ZM61.0445 43.4477H61.918C60.8109 51.2172 54.7172 57.3109 46.9477 58.418V57.5445C46.9477 56.1937 45.8508 55.0969 44.5 55.0969C43.1492 55.0969 42.0523 56.1937 42.0523 57.5445V58.418C34.2828 57.3109 28.1789 51.207 27.082 43.4477H27.9656C29.3164 43.4477 30.4133 42.3508 30.4133 41C30.4133 39.6492 29.3164 38.5523 27.9656 38.5523H27.082C28.1891 30.7828 34.293 24.6789 42.0523 23.582V24.4656C42.0523 25.8164 43.1492 26.9133 44.5 26.9133C45.8508 26.9133 46.9477 25.8164 46.9477 24.4656V23.582C54.7172 24.6891 60.8211 30.793 61.918 38.5523H61.0445C59.6937 38.5523 58.5969 39.6492 58.5969 41C58.5969 42.3508 59.6937 43.4477 61.0445 43.4477Z" fill="#1D4C29"/>
</g>
<defs>
<clipPath id="clip0_18_1738">
<rect width="52" height="52" fill="white" transform="translate(18.5 15)"/>
</clipPath>
</defs>
</svg>
