<svg width="88" height="82" viewBox="0 0 88 82" fill="none" xmlns="http://www.w3.org/2000/svg">
<rect width="88" height="82" rx="14" fill="#1D4C29" fill-opacity="0.07"/>
<g clip-path="url(#clip0_18_1728)">
<path d="M67.8335 38.8335H65.5562C64.5378 28.6133 56.3867 20.4622 46.1665 19.4438V17.1665C46.1665 15.9708 45.1981 15 44 15C42.8019 15 41.8335 15.9708 41.8335 17.1665V19.4438C31.6133 20.4622 23.4622 28.6133 22.4438 38.8335H20.1665C18.9684 38.8335 18 39.8039 18 41C18 42.1961 18.9684 43.1665 20.1665 43.1665H22.4438C23.4641 53.3867 31.6133 61.5378 41.8335 62.5562V64.8335C41.8335 66.0292 42.8019 67 44 67C45.1981 67 46.1665 66.0292 46.1665 64.8335V62.5562C56.3867 61.5359 64.5378 53.3867 65.5562 43.1665H67.8335C69.0316 43.1665 70 42.1961 70 41C70 39.8039 69.0316 38.8335 67.8335 38.8335ZM61.1839 38.8335H54.6169C53.752 34.5889 50.4111 31.248 46.1665 30.3855V23.8161C53.9928 24.8 60.2 31.0072 61.1839 38.8335ZM41.8335 23.8161V30.3831C37.5889 31.248 34.248 34.5889 33.3855 38.8335H26.8161C27.8 31.0072 34.0072 24.8 41.8335 23.8161ZM26.8161 43.1665H33.3831C34.2456 47.4111 37.5865 50.752 41.8311 51.6145V58.1815C34.0072 57.2 27.8 50.9928 26.8161 43.1665ZM46.1665 58.1839V51.6169C50.4111 50.7544 53.752 47.4135 54.6145 43.1689H61.1815C60.2 50.9928 53.9928 57.2 46.1665 58.1839Z" fill="#1D4C29"/>
</g>
<defs>
<clipPath id="clip0_18_1728">
<rect width="52" height="52" fill="white" transform="translate(18 15)"/>
</clipPath>
</defs>
</svg>
