<svg width="57" height="40" viewBox="0 0 57 40" fill="none" xmlns="http://www.w3.org/2000/svg">
<rect x="0.5" width="56" height="40" rx="16" fill="white"/>
<path fill-rule="evenodd" clip-rule="evenodd" d="M28.5 10.25C23.1152 10.25 18.75 14.6152 18.75 20C18.75 25.3848 23.1152 29.75 28.5 29.75C33.8848 29.75 38.25 25.3848 38.25 20C38.25 14.6152 33.8848 10.25 28.5 10.25ZM29.25 17C29.25 16.5858 28.9142 16.25 28.5 16.25C28.0858 16.25 27.75 16.5858 27.75 17V19.25H25.5C25.0858 19.25 24.75 19.5858 24.75 20C24.75 20.4142 25.0858 20.75 25.5 20.75H27.75V23C27.75 23.4142 28.0858 23.75 28.5 23.75C28.9142 23.75 29.25 23.4142 29.25 23V20.75H31.5C31.9142 20.75 32.25 20.4142 32.25 20C32.25 19.5858 31.9142 19.25 31.5 19.25H29.25V17Z" fill="black"/>
</svg>
